<svg width="22" height="22" viewBox="0 0 22 22" fill="none" xmlns="http://www.w3.org/2000/svg">
<path d="M3.87022 20.1618V16.9076C3.87022 15.7425 3.56497 15.1366 2.96547 14.1237C2.23464 12.8863 1.8441 11.4776 1.83347 10.0406C1.82285 8.60354 2.19251 7.18925 2.90497 5.9412C3.61742 4.69315 4.64731 3.65575 5.89015 2.93425C7.13299 2.21275 8.54455 1.83282 9.98164 1.83301C12.1423 1.83325 14.2144 2.69155 15.7424 4.2192C17.2704 5.74684 18.1292 7.81877 18.1299 9.97942C18.1299 10.5111 18.1299 10.7769 18.1519 10.9254C18.2051 11.2811 18.3719 11.5873 18.5341 11.9044L20.1667 15.0706L18.8834 15.7123C18.5121 15.8974 18.3261 15.99 18.1968 16.1614C18.0676 16.3328 18.0309 16.5272 17.9585 16.9131L17.9511 16.9516C17.7834 17.8389 17.5991 18.8179 17.0803 19.4358C16.897 19.653 16.6696 19.8299 16.4139 19.9555C15.9913 20.1618 15.4716 20.1618 14.4321 20.1618C13.9508 20.1618 13.4686 20.1728 12.9874 20.1618C11.848 20.1333 11.0001 19.1745 11.0001 18.0626" stroke="#F2F2F2" stroke-opacity="0.6" stroke-width="1.5" stroke-linecap="round" stroke-linejoin="round"/>
<path d="M13.189 9.65411C12.7985 9.65411 12.4419 9.50561 12.1715 9.26269M13.189 9.65411C13.189 10.7046 12.5803 11.7019 11.4088 11.7019C10.2373 11.7019 9.62864 12.6993 9.62864 13.7498M13.189 9.65411C15.1598 9.65411 15.1598 6.58236 13.189 6.58236C13.0093 6.58297 12.8391 6.612 12.6784 6.66944C12.7746 4.37961 9.47372 3.75811 8.72572 5.90311M8.72572 5.90311C9.27114 6.27069 9.62864 6.89586 9.62864 7.60536M8.72572 5.90311C7.02805 4.75728 4.76572 6.81336 5.84189 8.64669C4.03605 8.91711 4.22855 11.7019 6.0683 11.7019C6.3136 11.7018 6.55524 11.6424 6.77263 11.5288C6.99002 11.4152 7.17672 11.2506 7.3168 11.0493" stroke="#F2F2F2" stroke-opacity="0.6" stroke-width="1.5" stroke-linecap="round" stroke-linejoin="round"/>
</svg>
