<svg width="181" height="180" viewBox="0 0 181 180" fill="none" xmlns="http://www.w3.org/2000/svg">
<path d="M120.535 62.4146C122.538 60.4116 125.786 60.4116 127.789 62.4146L129.157 63.7832C130.233 64.8586 130.233 66.6021 129.157 67.6775L77.569 119.266C76.4936 120.341 74.7501 120.341 73.6747 119.266L70.6265 116.218C69.5511 115.142 69.5511 113.399 70.6265 112.323L120.535 62.4146Z" fill="#81FE9D"/>
<path d="M52.6293 98.614C50.6188 96.6185 50.6067 93.371 52.6022 91.3605L53.9657 89.9869C55.0371 88.9075 56.7806 88.901 57.86 89.9723L80.3595 112.305C81.4389 113.376 81.4454 115.12 80.374 116.199L77.3372 119.258C76.2659 120.338 74.5223 120.344 73.4429 119.273L52.6293 98.614Z" fill="#81FE9D"/>
</svg>
