<svg width="17" height="17" viewBox="0 0 17 17" fill="none" xmlns="http://www.w3.org/2000/svg">
<path d="M9.8866 7.11604C10.2703 7.45009 10.5621 7.8615 10.604 8.38301C10.6326 8.93339 10.5194 9.40238 10.1495 9.82917C9.94916 10.0384 9.74168 10.1939 9.47889 10.3161C9.40476 10.3499 9.40476 10.3499 9.31751 10.4112C9.35042 10.4158 9.38333 10.4204 9.41724 10.4251C10.1324 10.5329 10.7809 10.8569 11.2243 11.445C11.5821 11.9401 11.7584 12.4534 11.7625 13.0632C11.7627 13.099 11.763 13.1348 11.7632 13.1718C11.7637 13.2474 11.764 13.3231 11.7642 13.3988C11.7646 13.4759 11.7652 13.553 11.7662 13.6302C11.7675 13.742 11.768 13.8537 11.7683 13.9655C11.7689 13.9997 11.7694 14.0339 11.77 14.0691C11.7691 14.3889 11.6642 14.6471 11.4425 14.88C11.2529 15.0294 11.0565 15.1063 10.8135 15.1071C10.7758 15.1073 10.7381 15.1076 10.6992 15.1079C10.6583 15.1078 10.6173 15.1078 10.5751 15.1078C10.5312 15.108 10.4873 15.1082 10.4434 15.1084C10.3245 15.109 10.2055 15.1091 10.0866 15.1092C10.0122 15.1092 9.93776 15.1093 9.86336 15.1095C9.60347 15.1101 9.34359 15.1103 9.08371 15.1103C8.84194 15.1103 8.60017 15.1109 8.3584 15.1119C8.15043 15.1127 7.94247 15.113 7.7345 15.113C7.61046 15.113 7.48643 15.1132 7.3624 15.1138C7.24566 15.1144 7.12894 15.1144 7.0122 15.114C6.9493 15.1139 6.8864 15.1144 6.8235 15.115C6.59521 15.1134 6.42235 15.0894 6.22376 14.9737C6.19846 14.959 6.17317 14.9444 6.1471 14.9293C5.94064 14.7767 5.82127 14.5972 5.75501 14.3487C5.74512 14.2277 5.74476 14.107 5.74451 13.9857C5.74431 13.9504 5.7441 13.915 5.74388 13.8787C5.74357 13.8039 5.74342 13.7292 5.74343 13.6544C5.7433 13.5416 5.74216 13.4288 5.74097 13.316C5.73851 12.8209 5.76938 12.3746 5.99134 11.9229C6.00186 11.9012 6.01238 11.8794 6.02322 11.8569C6.33935 11.2318 6.89668 10.7725 7.55201 10.5361C7.76202 10.4762 7.97673 10.443 8.19251 10.4112C8.1005 10.3499 8.00799 10.3028 7.90931 10.253C7.46548 10.0145 7.1469 9.64416 6.97462 9.17158C6.82514 8.66753 6.88841 8.12407 7.13221 7.66194C7.40925 7.22787 7.8256 6.91363 8.32337 6.77449C8.86159 6.67816 9.4568 6.76112 9.8866 7.11604Z" fill="#FFC727"/>
<path d="M5.60862 7.32778C5.9286 7.56943 6.19385 7.87768 6.25511 8.28677C6.29977 8.83195 6.21816 9.2353 5.8596 9.66067C5.67527 9.85934 5.45024 9.98837 5.19261 10.068C5.21875 10.0707 5.2449 10.0734 5.27183 10.0762C5.66859 10.1241 6.03942 10.226 6.38011 10.443C6.33382 10.5556 6.27224 10.6124 6.17894 10.6891C5.53417 11.2596 5.18808 12.0805 5.12401 12.9302C5.11385 13.1231 5.11107 13.3162 5.10862 13.5094C5.10758 13.5671 5.10651 13.6247 5.10539 13.6824C5.10278 13.8214 5.10067 13.9603 5.09886 14.0993C4.81089 14.1022 4.52294 14.1044 4.23496 14.1057C4.10121 14.1064 3.96748 14.1073 3.83374 14.1087C3.70446 14.1101 3.5752 14.1108 3.44592 14.1111C3.39681 14.1114 3.3477 14.1118 3.29859 14.1125C2.90883 14.1177 2.61009 14.0732 2.317 13.7957C2.06332 13.503 2.06105 13.1841 2.0601 12.8155C2.0598 12.7451 2.05883 12.6747 2.05784 12.6043C2.0529 11.9396 2.224 11.3593 2.66136 10.8493C2.68053 10.8266 2.69971 10.8039 2.71946 10.7805C3.13475 10.3289 3.72128 10.1248 4.31761 10.068C4.29831 10.0615 4.27902 10.055 4.25914 10.0484C3.84775 9.89871 3.53868 9.60409 3.3491 9.21035C3.20254 8.83884 3.18887 8.36701 3.3386 7.99319C3.54145 7.59525 3.84572 7.29336 4.26683 7.13443C4.71838 7.01511 5.22007 7.06991 5.60862 7.32778Z" fill="#FFC727"/>
<path d="M13.6085 7.32778C13.9285 7.56943 14.1937 7.87768 14.255 8.28677C14.2997 8.83195 14.2181 9.2353 13.8595 9.66067C13.6752 9.85934 13.4501 9.98837 13.1925 10.068C13.2186 10.0707 13.2448 10.0734 13.2717 10.0762C13.95 10.1581 14.4984 10.4412 14.9464 10.9606C15.2761 11.3899 15.4455 11.8961 15.4489 12.4358C15.449 12.4583 15.4492 12.4809 15.4494 12.5041C15.4497 12.5515 15.4499 12.5989 15.45 12.6463C15.4503 12.7179 15.4513 12.7895 15.4523 12.861C15.4549 13.2157 15.4278 13.5054 15.1934 13.7854C15.0157 13.9644 14.8083 14.089 14.5533 14.1068C14.5137 14.1066 14.4742 14.1065 14.4334 14.1064C14.4005 14.1064 14.4005 14.1064 14.3668 14.1064C14.2948 14.1063 14.2228 14.1059 14.1508 14.1054C14.1006 14.1053 14.0504 14.1052 14.0002 14.1051C13.8686 14.1049 13.737 14.1043 13.6054 14.1036C13.4709 14.1029 13.3364 14.1026 13.2019 14.1023C12.9384 14.1017 12.6748 14.1006 12.4113 14.0993C12.4108 14.0643 12.4103 14.0294 12.4099 13.9934C12.408 13.861 12.4056 13.7286 12.4031 13.5961C12.402 13.5393 12.4011 13.4825 12.4004 13.4258C12.3869 12.3856 12.1245 11.4803 11.3839 10.7204C11.3228 10.6619 11.2612 10.6108 11.1945 10.5583C11.1732 10.5409 11.1519 10.5234 11.13 10.5055C11.13 10.4849 11.13 10.4643 11.13 10.443C11.5103 10.2344 11.8801 10.0987 12.3175 10.068C12.2982 10.0615 12.2789 10.055 12.259 10.0484C11.8476 9.89871 11.5386 9.60409 11.349 9.21035C11.2024 8.83884 11.1888 8.36701 11.3385 7.99319C11.5413 7.59525 11.8456 7.29336 12.2667 7.13443C12.7183 7.01511 13.22 7.06991 13.6085 7.32778Z" fill="#FFC727"/>
<path d="M8.75305 1.08484C8.77847 1.08423 8.80389 1.08363 8.83008 1.08301C9.02142 1.11955 9.1084 1.22862 9.21631 1.38171C9.25756 1.44332 9.29845 1.50518 9.33899 1.56726C9.38011 1.62912 9.42125 1.69097 9.4624 1.75281C9.48036 1.78016 9.49831 1.80751 9.51681 1.83569C9.54986 1.88479 9.58454 1.93284 9.62095 1.97949C9.66125 2.03601 9.66125 2.03601 9.66125 2.09851C9.69981 2.10669 9.73836 2.11487 9.77808 2.12329C9.96161 2.16421 10.1424 2.21339 10.3234 2.26453C10.3563 2.27337 10.3892 2.28221 10.4232 2.29132C10.636 2.35181 10.786 2.41209 10.923 2.59265C10.9686 2.75225 10.9658 2.86411 10.8931 3.01062C10.8063 3.15487 10.7013 3.28521 10.5968 3.41687C10.558 3.46614 10.5192 3.51542 10.4805 3.5647C10.4634 3.58622 10.4464 3.60773 10.4288 3.62991C10.4127 3.65048 10.3966 3.67106 10.38 3.69226C10.3627 3.7099 10.3454 3.72754 10.3275 3.74572C10.2643 3.85527 10.2744 3.96653 10.2758 4.08948C10.2754 4.14376 10.275 4.19804 10.2745 4.25232C10.2744 4.33756 10.2745 4.42279 10.275 4.50803C10.2753 4.59053 10.2746 4.67299 10.2738 4.75549C10.2742 4.78079 10.2746 4.80609 10.2751 4.83216C10.2727 5.01579 10.2301 5.09477 10.0988 5.22351C9.98705 5.30825 9.85805 5.30337 9.72375 5.28601C9.57376 5.24167 9.42822 5.18597 9.28235 5.12976C9.20492 5.1001 9.12736 5.07089 9.04968 5.04187C9.0156 5.02878 8.98151 5.01569 8.9464 5.0022C8.76343 4.94844 8.63591 4.97443 8.46033 5.04187C8.42258 5.05597 8.38484 5.07007 8.34595 5.08459C8.2868 5.1071 8.22771 5.12974 8.16866 5.1525C7.74951 5.31308 7.74951 5.31308 7.53625 5.28601C7.41421 5.22153 7.32272 5.15676 7.255 5.03601C7.25003 4.94725 7.25005 4.86528 7.25439 4.77698C7.25572 4.7247 7.25688 4.67241 7.25791 4.62012C7.25847 4.59294 7.25904 4.56575 7.25962 4.53774C7.2703 3.92452 7.2703 3.92452 6.95675 3.4149C6.91916 3.37865 6.88096 3.34302 6.84212 3.30812C6.68615 3.15914 6.57561 3.00988 6.55774 2.79187C6.5595 2.6552 6.60418 2.57901 6.6925 2.47351C6.79576 2.38148 6.89976 2.3482 7.03149 2.30908C7.0519 2.30297 7.07231 2.29686 7.09334 2.29057C7.1363 2.27776 7.1793 2.26509 7.22233 2.25253C7.28818 2.23328 7.3539 2.21363 7.41962 2.19391C7.74115 2.09851 7.74115 2.09851 7.84875 2.09851C7.85677 2.07595 7.86479 2.05339 7.87305 2.03015C7.91347 1.93717 7.96158 1.86686 8.02258 1.78601C8.09554 1.68838 8.16729 1.59063 8.23474 1.48914C8.25302 1.46182 8.25302 1.46182 8.27166 1.43396C8.30614 1.38217 8.34033 1.33019 8.37451 1.2782C8.48159 1.14286 8.58004 1.08511 8.75305 1.08484Z" fill="#FFC727"/>
<path d="M3.91897 2.43042C3.94233 2.42889 3.9657 2.42736 3.98977 2.42578C4.10655 2.45039 4.17864 2.5103 4.25491 2.59839C4.28377 2.64719 4.31104 2.69694 4.33706 2.74731C4.49709 3.05328 4.64071 3.26349 4.97779 3.37347C5.11721 3.41522 5.25867 3.44676 5.40054 3.47913C5.62148 3.53413 5.62148 3.53413 5.704 3.61707C5.77387 3.763 5.78976 3.87725 5.75491 4.03589C5.70247 4.13929 5.63469 4.2234 5.55959 4.31128C5.54126 4.3339 5.52294 4.35652 5.50405 4.37982C5.46975 4.42202 5.43515 4.46398 5.40014 4.50559C5.38315 4.5259 5.36616 4.54621 5.34866 4.56714C5.32623 4.59057 5.3038 4.61401 5.28069 4.63815C5.20571 4.7502 5.209 4.8236 5.21011 4.95764C5.20981 5.00328 5.2095 5.04891 5.20919 5.09454C5.20946 5.16586 5.20998 5.23717 5.21068 5.30848C5.21113 5.37775 5.21065 5.44697 5.21011 5.51624C5.21056 5.57808 5.21056 5.57808 5.21103 5.64117C5.1868 5.78878 5.14086 5.83759 5.03616 5.94214C4.90348 6.00848 4.74751 5.98929 4.60902 5.94933C4.49065 5.9055 4.37414 5.8578 4.25753 5.80951C3.91312 5.67409 3.69533 5.76806 3.36184 5.89716C3.19267 5.95982 3.06056 5.98953 2.87991 5.97339C2.77407 5.92047 2.71106 5.88381 2.65552 5.77835C2.62489 5.67526 2.62919 5.59755 2.63808 5.49048C2.68114 4.93228 2.68114 4.93228 2.43655 4.44604C2.38376 4.38873 2.32984 4.33311 2.27462 4.27814C2.17393 4.16996 2.07367 4.0473 2.06091 3.8968C2.06595 3.7608 2.09276 3.67064 2.19569 3.57444C2.33603 3.48308 2.50559 3.44685 2.66506 3.40112C2.72095 3.38429 2.72095 3.38429 2.77798 3.36713C3.05186 3.28589 3.05186 3.28589 3.16116 3.28589C3.16768 3.26563 3.17421 3.24536 3.18093 3.22449C3.2406 3.09202 3.32289 2.9799 3.40725 2.86206C3.42381 2.83847 3.44036 2.81489 3.45742 2.79059C3.70652 2.43981 3.70652 2.43981 3.91897 2.43042Z" fill="#FFC727"/>
<path d="M13.5831 2.42889C13.606 2.42893 13.6289 2.42897 13.6525 2.42901C13.7844 2.45409 13.8605 2.51123 13.9423 2.61651C13.9617 2.64741 13.9811 2.6783 14.0011 2.71014C14.0997 2.86444 14.2022 3.01428 14.3097 3.16253C14.3488 3.22381 14.3488 3.22381 14.3488 3.28631C14.3886 3.29481 14.4284 3.30331 14.4694 3.31207C14.6313 3.34819 14.7909 3.39072 14.9503 3.4367C14.9775 3.44405 15.0048 3.4514 15.0328 3.45898C15.1966 3.50655 15.3039 3.55238 15.4113 3.69256C15.4521 3.78782 15.456 3.87132 15.4425 3.97381C15.3956 4.08003 15.3272 4.16468 15.255 4.25506C15.2283 4.28992 15.2016 4.32483 15.175 4.3598C15.1206 4.43127 15.0657 4.50237 15.0104 4.57318C14.899 4.71785 14.8727 4.78067 14.8772 4.9627C14.8778 5.00385 14.8784 5.045 14.8791 5.0874C14.8804 5.15261 14.882 5.21782 14.8836 5.28302C14.8852 5.34617 14.8861 5.40931 14.887 5.47247C14.8883 5.52901 14.8883 5.52901 14.8897 5.5867C14.8761 5.73537 14.8319 5.84096 14.7179 5.93865C14.4418 6.0491 14.1846 5.91119 13.9265 5.80993C13.5841 5.68214 13.3685 5.7619 13.0411 5.89758C12.8741 5.96321 12.7164 6.006 12.5363 5.97381C12.4405 5.91971 12.3674 5.85489 12.3175 5.75506C12.3172 5.68332 12.3186 5.61156 12.3208 5.53985C12.3535 4.94907 12.3535 4.94907 12.1066 4.43865C12.0586 4.39051 12.0097 4.3447 11.9587 4.29982C11.8544 4.20143 11.7692 4.09323 11.7343 3.95318C11.7347 3.92841 11.7351 3.90363 11.7355 3.87811C11.7351 3.85325 11.7347 3.8284 11.7343 3.80279C11.7657 3.68307 11.8109 3.60686 11.9113 3.53631C12.0142 3.50188 12.1176 3.47855 12.2235 3.45473C12.5676 3.37591 12.828 3.29925 13.0409 2.9959C13.1128 2.87856 13.1795 2.75903 13.2446 2.63774C13.327 2.49892 13.4201 2.42458 13.5831 2.42889Z" fill="#FFC727"/>
</svg>
