<svg width="24" height="24" viewBox="0 0 24 24" fill="none" xmlns="http://www.w3.org/2000/svg">
<g id="material-symbols-light:dashboard-rounded">
<path id="Vector" d="M19.4163 8.41265L19.4155 8.41341C19.3585 8.46943 19.2935 8.5 19.186 8.5H14.305C14.1987 8.5 14.137 8.46988 14.0836 8.41645C14.0336 8.36648 14 8.30261 14 8.183V4.817C14 4.70005 14.0331 4.63715 14.0845 4.58659C14.1415 4.53057 14.2065 4.5 14.314 4.5H19.194C19.3025 4.5 19.3638 4.53067 19.4157 4.58278C19.4656 4.63291 19.4996 4.69749 19.5 4.81781V8.183C19.5 8.30106 19.4667 8.36333 19.4163 8.41265ZM9.91628 19.4126L9.91551 19.4134C9.85852 19.4694 9.79348 19.5 9.686 19.5H4.805C4.69868 19.5 4.63699 19.4699 4.58355 19.4164C4.53359 19.3665 4.5 19.3026 4.5 19.183V15.817C4.5 15.7001 4.53305 15.6371 4.58449 15.5866C4.64148 15.5306 4.70652 15.5 4.814 15.5H9.694C9.80254 15.5 9.86379 15.5307 9.91568 15.5828C9.96559 15.6329 9.99955 15.6975 10 15.8178V19.183C10 19.3011 9.96669 19.3633 9.91628 19.4126ZM4.805 11.5C4.69868 11.5 4.63699 11.4699 4.58355 11.4164C4.52862 11.3615 4.5 11.3007 4.5 11.2V4.8C4.5 4.70199 4.52794 4.64217 4.58449 4.58659C4.64148 4.53057 4.70652 4.5 4.814 4.5H9.694C9.80254 4.5 9.86379 4.53067 9.91568 4.58278C9.97048 4.63783 9.99958 4.69929 10 4.8008V11.2C10 11.298 9.97206 11.3578 9.91551 11.4134C9.85852 11.4694 9.79348 11.5 9.686 11.5H4.805ZM14.305 19.5C14.1987 19.5 14.137 19.4699 14.0836 19.4164C14.0286 19.3615 14 19.3008 14 19.2V12.8C14 12.702 14.0279 12.6422 14.0845 12.5866C14.1415 12.5306 14.2065 12.5 14.314 12.5H19.194C19.3025 12.5 19.3638 12.5307 19.4157 12.5828C19.4705 12.6378 19.4996 12.6993 19.5 12.8009V19.2C19.5 19.298 19.4721 19.3578 19.4155 19.4134C19.3585 19.4694 19.2935 19.5 19.186 19.5H14.305Z" stroke="#BEBEBE"/>
</g>
</svg>
