<svg width="25" height="24" viewBox="0 0 25 24" fill="none" xmlns="http://www.w3.org/2000/svg">
<g id="hugeicons:alert-diamond">
<path id="Vector" d="M12.3496 16H12.3586M12.3496 13V8M15.5026 4.284C14.3286 3.848 13.8076 2.104 12.4696 2.004C12.3897 1.9992 12.3096 1.9992 12.2296 2.004C10.8926 2.104 10.3716 3.848 9.19764 4.284C7.95464 4.745 6.25464 3.8 5.20264 4.852C4.18964 5.865 5.08564 7.63 4.63364 8.847C4.17264 10.092 2.24064 10.607 2.35364 12.12C2.45464 13.457 4.19864 13.979 4.63364 15.153C5.08564 16.37 4.18964 18.135 5.20264 19.148C6.25464 20.2 7.95464 19.255 9.19764 19.716C10.3706 20.152 10.8926 21.896 12.2306 21.996C12.3106 22.002 12.3903 22.002 12.4696 21.996C13.8076 21.896 14.3296 20.152 15.5026 19.716C16.7196 19.265 18.4846 20.161 19.4976 19.148C20.5846 18.061 19.5376 16.298 20.1116 15.042C20.6416 13.886 22.4556 13.344 22.3456 11.881C22.2456 10.543 20.5026 10.021 20.0656 8.847C19.6056 7.604 20.5496 5.905 19.4976 4.852C18.4456 3.799 16.7456 4.745 15.5026 4.284Z" stroke="black" stroke-width="1.5" stroke-linecap="round" stroke-linejoin="round"/>
</g>
</svg>
