<svg width="25" height="25" viewBox="0 0 25 25" fill="none" xmlns="http://www.w3.org/2000/svg">
<g id="hugeicons:bulb-charging">
<g id="Group">
<path id="Vector" d="M6.76451 13.6214C6.16424 12.6384 5.84775 11.5084 5.85011 10.3566C5.85011 6.85742 8.71571 4.02142 12.2501 4.02142C15.7845 4.02142 18.6501 6.85742 18.6501 10.3566C18.6525 11.5084 18.336 12.6384 17.7357 13.6214M14.6501 17.6214L14.5461 18.139C14.4341 18.7046 14.3773 18.987 14.2501 19.211C14.0541 19.5563 13.7367 19.8163 13.3597 19.9406C13.1157 20.0214 12.8261 20.0214 12.2501 20.0214C11.6741 20.0214 11.3845 20.0214 11.1405 19.9414C10.7633 19.8169 10.446 19.5566 10.2501 19.211C10.1229 18.987 10.0661 18.7046 9.95411 18.139L9.85011 17.6214M8.55651 16.0998C8.48291 15.879 8.44611 15.7678 8.45011 15.6782C8.45464 15.5856 8.48591 15.4962 8.54014 15.421C8.59438 15.3457 8.66925 15.2878 8.75571 15.2542C8.83891 15.2214 8.95571 15.2214 9.18771 15.2214H15.3125C15.5453 15.2214 15.6613 15.2214 15.7445 15.2534C15.8311 15.2871 15.906 15.3451 15.9603 15.4205C16.0145 15.4959 16.0457 15.5854 16.0501 15.6782C16.0541 15.7678 16.0173 15.8782 15.9437 16.0998C15.8077 16.5086 15.7397 16.7134 15.6349 16.879C15.4157 17.2251 15.0721 17.4739 14.6749 17.5742C14.4845 17.6214 14.2701 17.6214 13.8405 17.6214H10.6597C10.2301 17.6214 10.0149 17.6214 9.82531 17.5734C9.42824 17.4733 9.08466 17.2248 8.86531 16.879C8.76051 16.7134 8.69251 16.5086 8.55651 16.0998Z" stroke="#AFAFAF" stroke-width="1.2" stroke-linecap="round" stroke-linejoin="round"/>
<path id="Vector_2" d="M12.6918 7.62143L11.475 8.97743C11.4371 9.0198 11.4112 9.07149 11.3999 9.12719C11.3886 9.18289 11.3924 9.24059 11.4108 9.29436C11.4292 9.34812 11.4616 9.39601 11.5047 9.43311C11.5477 9.47021 11.5999 9.49517 11.6558 9.50543L12.8462 9.72223C12.9052 9.73292 12.96 9.75998 13.0043 9.8003C13.0487 9.84062 13.0808 9.8926 13.0971 9.9503C13.1134 10.008 13.1131 10.0691 13.0963 10.1267C13.0795 10.1842 13.0469 10.2359 13.0022 10.2758L11.4918 11.6214" stroke="#AFAFAF" stroke-width="1.2" stroke-linecap="round" stroke-linejoin="round"/>
</g>
</g>
</svg>
