<svg width="25" height="25" viewBox="0 0 25 25" fill="none" xmlns="http://www.w3.org/2000/svg">
<g id="bx:stopwatch">
<path id="Vector" d="M12.1887 6.83789C8.47411 6.83789 5.45178 9.86018 5.45178 13.5747C5.45178 17.2892 8.47411 20.3115 12.1887 20.3115C15.9032 20.3115 18.9255 17.2892 18.9255 13.5747C18.9255 9.86018 15.9032 6.83789 12.1887 6.83789ZM12.1887 18.6273C9.40211 18.6273 7.136 16.3612 7.136 13.5747C7.136 10.7882 9.40211 8.52209 12.1887 8.52209C14.9752 8.52209 17.2413 10.7882 17.2413 13.5747C17.2413 16.3612 14.9752 18.6273 12.1887 18.6273Z" fill="#FFC727" fill-opacity="0.8"/>
<path id="Vector_2" d="M11.3464 10.2062H13.0307V14.4167H11.3464V10.2062ZM9.66223 4.31152H14.7149V5.99572H9.66223V4.31152ZM18.3301 9.11738L16.6458 7.43318L17.8366 6.24246L19.5208 7.92665L18.3301 9.11738Z" fill="#FFC727" fill-opacity="0.8"/>
</g>
</svg>
