<svg width="13" height="15" viewBox="0 0 13 15" fill="none" xmlns="http://www.w3.org/2000/svg">
<g id="Group">
<path id="Vector" d="M1.64509 8.90723C1.11359 8.08804 0.833374 7.14639 0.835461 6.18656C0.835461 3.27056 3.37271 0.907227 6.50213 0.907227C9.63154 0.907227 12.1688 3.27056 12.1688 6.18656C12.1709 7.14639 11.8907 8.08804 11.3592 8.90723M8.62713 12.2406L8.53504 12.6719C8.43588 13.1432 8.38559 13.3786 8.27296 13.5652C8.09941 13.8529 7.81842 14.0696 7.48459 14.1732C7.26854 14.2406 7.01213 14.2406 6.50213 14.2406C5.99213 14.2406 5.73571 14.2406 5.51967 14.1739C5.18572 14.0701 4.90471 13.8532 4.73129 13.5652C4.61867 13.3786 4.56838 13.1432 4.46921 12.6719L4.37713 12.2406M3.23175 10.9726C3.16659 10.7886 3.134 10.6959 3.13754 10.6212C3.14155 10.544 3.16924 10.4696 3.21726 10.4069C3.26528 10.3442 3.33157 10.2959 3.40813 10.2679C3.48179 10.2406 3.58521 10.2406 3.79063 10.2406H9.21363C9.41975 10.2406 9.52246 10.2406 9.59613 10.2672C9.67279 10.2953 9.73915 10.3436 9.78718 10.4065C9.83521 10.4693 9.86284 10.5439 9.86671 10.6212C9.87025 10.6959 9.83767 10.7879 9.7725 10.9726C9.65209 11.3132 9.59188 11.4839 9.49909 11.6219C9.305 11.9103 9.00077 12.1177 8.64909 12.2012C8.4805 12.2406 8.29067 12.2406 7.91029 12.2406H5.09396C4.71359 12.2406 4.52304 12.2406 4.35517 12.2006C4.0036 12.1172 3.69939 11.91 3.50517 11.6219C3.41238 11.4839 3.35217 11.3132 3.23175 10.9726Z" stroke="#FFC727" stroke-width="0.75" stroke-linecap="round" stroke-linejoin="round"/>
<path id="Vector_2" d="M3.84583 6.07422L5.43958 7.57422V10.2409M9.15833 6.07422L7.56458 7.57422V10.2409M3.84583 6.57422C3.98672 6.57422 4.12185 6.52154 4.22148 6.42777C4.3211 6.334 4.37708 6.20683 4.37708 6.07422C4.37708 5.94161 4.3211 5.81443 4.22148 5.72067C4.12185 5.6269 3.98672 5.57422 3.84583 5.57422C3.70493 5.57422 3.5698 5.6269 3.47017 5.72067C3.37055 5.81443 3.31458 5.94161 3.31458 6.07422C3.31458 6.20683 3.37055 6.334 3.47017 6.42777C3.5698 6.52154 3.70493 6.57422 3.84583 6.57422ZM9.15833 6.57422C9.01743 6.57422 8.8823 6.52154 8.78267 6.42777C8.68305 6.334 8.62708 6.20683 8.62708 6.07422C8.62708 5.94161 8.68305 5.81443 8.78267 5.72067C8.8823 5.6269 9.01743 5.57422 9.15833 5.57422C9.29922 5.57422 9.43435 5.6269 9.53398 5.72067C9.6336 5.81443 9.68958 5.94161 9.68958 6.07422C9.68958 6.20683 9.6336 6.334 9.53398 6.42777C9.43435 6.52154 9.29922 6.57422 9.15833 6.57422Z" stroke="#FFC727" stroke-width="0.75" stroke-linecap="round" stroke-linejoin="round"/>
</g>
</svg>
