<svg width="17" height="17" viewBox="0 0 17 17" fill="none" xmlns="http://www.w3.org/2000/svg">
<g id="Simplification" clip-path="url(#clip0_906_1306)">
<g id="Group 220864">
<g id="Group 220863">
<path id="Vector" d="M8.1104 2.0886C8.19087 2.18327 8.1952 2.23395 8.19755 2.35422C8.1636 2.45648 8.11215 2.48568 8.02055 2.54172C7.91404 2.57527 7.80583 2.59643 7.69633 2.61789C6.58305 2.85681 5.6121 3.45588 4.97894 4.41841C4.38427 5.35117 4.13755 6.47581 4.36552 7.56858C4.37535 7.61175 4.38536 7.65488 4.39555 7.69797C4.40285 7.72996 4.40285 7.72996 4.41029 7.76261C4.54492 8.33283 4.80948 8.86769 5.1768 9.32297C5.19122 9.3412 5.20563 9.35943 5.22049 9.37821C5.51662 9.75005 5.84548 10.0347 6.24382 10.2931C6.64197 10.5659 6.89427 10.9103 6.9893 11.3855C6.9893 11.7877 6.9893 12.1898 6.9893 12.6042C7.9793 12.6042 8.9693 12.6042 9.9893 12.6042C9.9893 12.202 9.9893 11.7998 9.9893 11.3855C10.1558 10.8445 10.3556 10.5392 10.8116 10.2331C11.0216 10.0886 11.2126 9.93864 11.3956 9.76047C11.422 9.73533 11.4484 9.7102 11.4756 9.6843C11.5008 9.65787 11.5259 9.63145 11.5518 9.60422C11.5722 9.58327 11.5926 9.56233 11.6137 9.54074C12.1673 8.95382 12.4607 8.20691 12.6397 7.43173C12.6474 7.39842 12.6552 7.36511 12.6631 7.33078C12.6696 7.3013 12.6761 7.27181 12.6828 7.24143C12.7102 7.16034 12.7345 7.12488 12.8018 7.07297C12.9161 7.0382 12.9679 7.03174 13.0772 7.08274C13.1456 7.13547 13.1456 7.13547 13.1768 7.19797C13.1864 7.37212 13.1608 7.52898 13.1241 7.69797C13.1185 7.72396 13.1129 7.74995 13.1071 7.77672C12.9228 8.6017 12.5207 9.42889 11.8956 10.0105C11.8698 10.0363 11.844 10.062 11.8174 10.0886C11.7916 10.1144 11.7659 10.1402 11.7393 10.1667C11.7243 10.1826 11.7092 10.1986 11.6937 10.215C11.5544 10.36 11.4041 10.4759 11.2393 10.5905C10.8866 10.8248 10.8866 10.8248 10.6338 11.155C10.6188 11.1838 10.6037 11.2125 10.5882 11.2422C10.4856 11.4701 10.5101 11.7259 10.5079 11.9712C10.5072 12.0286 10.5061 12.0861 10.5047 12.1435C10.5026 12.2264 10.5017 12.3093 10.5011 12.3923C10.4998 12.4307 10.4998 12.4307 10.4985 12.4699C10.4988 12.5404 10.5008 12.5991 10.5206 12.6667C10.6077 12.7443 10.6077 12.7443 10.7081 12.7917C10.8832 12.9766 10.9069 13.1669 10.9053 13.4109C10.9053 13.4359 10.9054 13.4609 10.9054 13.4866C10.9032 13.644 10.888 13.7747 10.8132 13.9161C10.7973 14.004 10.8356 14.0577 10.8724 14.136C10.9141 14.2476 10.9091 14.3595 10.9073 14.4773C10.9076 14.501 10.908 14.5248 10.9084 14.5492C10.9073 14.7592 10.8663 14.9341 10.7276 15.0984C10.5443 15.2511 10.4104 15.2959 10.1744 15.2948C10.1381 15.2947 10.1019 15.2946 10.0645 15.2945C10.0268 15.2942 9.98909 15.2939 9.95024 15.2937C9.91205 15.2935 9.87386 15.2934 9.83452 15.2932C9.74028 15.2929 9.64604 15.2924 9.5518 15.2917C9.55289 15.3317 9.55398 15.3716 9.5551 15.4128C9.55598 15.4662 9.55683 15.5196 9.55766 15.573C9.55845 15.5992 9.55923 15.6254 9.56004 15.6524C9.56243 15.8575 9.54082 16.0363 9.40434 16.1998C9.38597 16.214 9.3676 16.2282 9.34868 16.2429C9.33031 16.2577 9.31194 16.2725 9.29301 16.2877C9.20234 16.3472 9.1229 16.3583 9.0174 16.3593C8.99174 16.3596 8.96607 16.3599 8.93963 16.3602C8.89817 16.3604 8.89817 16.3604 8.85588 16.3606C8.82732 16.3607 8.79877 16.3609 8.76935 16.3611C8.70891 16.3614 8.64846 16.3616 8.58802 16.3617C8.49584 16.362 8.40368 16.363 8.31151 16.364C8.25273 16.3642 8.19395 16.3644 8.13518 16.3645C8.10773 16.3649 8.08028 16.3652 8.052 16.3656C7.89275 16.3651 7.78328 16.3493 7.64555 16.2605C7.46319 16.074 7.41936 15.9113 7.42131 15.6579C7.42183 15.6312 7.42236 15.6044 7.4229 15.5769C7.42318 15.5494 7.42346 15.5219 7.42375 15.4936C7.42448 15.4263 7.4256 15.359 7.4268 15.2917C7.4035 15.2922 7.38019 15.2927 7.35618 15.2932C7.24952 15.2952 7.14285 15.2964 7.03618 15.2976C6.98119 15.2988 6.98119 15.2988 6.92509 15.3C6.67253 15.3021 6.47644 15.2927 6.27641 15.1238C6.10275 14.9154 6.07639 14.7512 6.07524 14.489C6.07507 14.4637 6.0749 14.4384 6.07473 14.4123C6.07606 14.2534 6.08978 14.1228 6.16545 13.9798C6.18126 13.892 6.14304 13.8382 6.10619 13.7599C6.06452 13.6483 6.06954 13.5364 6.07133 13.4187C6.07097 13.3949 6.07061 13.3712 6.07023 13.3467C6.07123 13.1523 6.10263 12.9725 6.23161 12.8211C6.25026 12.8069 6.26891 12.7927 6.28813 12.778C6.30686 12.7633 6.32559 12.7485 6.34489 12.7332C6.39555 12.698 6.39555 12.698 6.45805 12.6667C6.46117 12.4994 6.46342 12.3322 6.46492 12.1649C6.46554 12.1081 6.46639 12.0514 6.46748 11.9946C6.47544 11.569 6.46895 11.2139 6.158 10.8891C6.04725 10.7914 5.92663 10.7133 5.80217 10.6341C5.40457 10.3758 5.05664 10.0432 4.77055 9.66672C4.74586 9.63506 4.72116 9.60339 4.69572 9.57077C4.2152 8.93924 3.91417 8.20068 3.8018 7.41672C3.79608 7.37946 3.79036 7.3422 3.78447 7.3038C3.72178 6.78439 3.74637 6.23854 3.8643 5.72922C3.87264 5.69083 3.88098 5.65244 3.88957 5.61289C4.04486 4.96759 4.33258 4.37748 4.7393 3.85422C4.7615 3.82562 4.78369 3.79702 4.80656 3.76755C5.32013 3.1231 7.14966 1.58734 8.1104 2.0886ZM6.58305 13.198C6.56554 13.2946 6.56554 13.2946 6.57133 13.4011C6.57174 13.4369 6.57214 13.4726 6.57255 13.5095C6.57631 13.6097 6.57631 13.6097 6.64555 13.698C6.71307 13.7122 6.71307 13.7122 6.79264 13.7099C6.83917 13.7103 6.83917 13.7103 6.88665 13.7107C6.93788 13.7104 6.93788 13.7104 6.99016 13.7101C7.04397 13.7103 7.04397 13.7103 7.09887 13.7106C7.21795 13.711 7.33702 13.7107 7.4561 13.7104C7.53853 13.7105 7.62097 13.7106 7.70341 13.7107C7.87637 13.7109 8.04934 13.7106 8.2223 13.7102C8.42243 13.7097 8.62255 13.7098 8.82268 13.7104C9.015 13.7108 9.20732 13.7108 9.39963 13.7105C9.48157 13.7105 9.56351 13.7105 9.64544 13.7107C9.75978 13.711 9.87411 13.7106 9.98845 13.7101C10.0226 13.7103 10.0568 13.7105 10.092 13.7107C10.123 13.7104 10.154 13.7101 10.186 13.7099C10.213 13.7098 10.2401 13.7098 10.2679 13.7098C10.2894 13.7059 10.3109 13.702 10.3331 13.698C10.4069 13.5872 10.4058 13.5325 10.4073 13.4011C10.4082 13.3653 10.409 13.3296 10.41 13.2927C10.4052 13.1967 10.4052 13.1967 10.3415 13.1459C10.2601 13.0981 10.2149 13.0924 10.1211 13.0923C10.0911 13.0921 10.0612 13.0918 10.0303 13.0915C9.99764 13.0917 9.96497 13.0919 9.93132 13.0921C9.89675 13.0919 9.86219 13.0918 9.82658 13.0916C9.71219 13.0912 9.59783 13.0915 9.48344 13.0918C9.40405 13.0917 9.32465 13.0916 9.24526 13.0915C9.07881 13.0914 8.91237 13.0916 8.74592 13.092C8.55357 13.0925 8.36122 13.0923 8.16887 13.0918C7.98373 13.0913 7.79859 13.0914 7.61344 13.0917C7.5347 13.0917 7.45595 13.0917 7.37721 13.0914C7.26723 13.0912 7.15726 13.0916 7.04729 13.0921C7.01462 13.0919 6.98195 13.0917 6.9483 13.0915C6.91833 13.0918 6.88836 13.092 6.85749 13.0923C6.8185 13.0924 6.8185 13.0924 6.77872 13.0924C6.69037 13.1072 6.64723 13.1362 6.58305 13.198ZM6.58305 14.2917C6.56814 14.3884 6.56814 14.3884 6.57133 14.4948C6.57109 14.5306 6.57085 14.5664 6.5706 14.6032C6.57501 14.6958 6.57501 14.6958 6.62144 14.75C6.69342 14.8042 6.73542 14.8035 6.82506 14.8036C6.85556 14.8039 6.88605 14.8042 6.91747 14.8044C6.96759 14.8041 6.96759 14.8041 7.01872 14.8039C7.07155 14.8041 7.07155 14.8041 7.12545 14.8043C7.24218 14.8048 7.3589 14.8045 7.47563 14.8042C7.55654 14.8042 7.63746 14.8043 7.71837 14.8044C7.88808 14.8046 8.05778 14.8044 8.22749 14.8039C8.42373 14.8034 8.61997 14.8036 8.81621 14.8041C9.00494 14.8046 9.19367 14.8045 9.3824 14.8043C9.46274 14.8042 9.54308 14.8043 9.62342 14.8045C9.73558 14.8047 9.84772 14.8044 9.95988 14.8039C10.01 14.8041 10.01 14.8041 10.0611 14.8044C10.1069 14.804 10.1069 14.804 10.1535 14.8036C10.1933 14.8036 10.1933 14.8036 10.2339 14.8035C10.3178 14.7889 10.3455 14.7659 10.3956 14.698C10.4105 14.6013 10.4105 14.6013 10.4073 14.4948C10.4075 14.4591 10.4078 14.4233 10.408 14.3864C10.4036 14.2938 10.4036 14.2938 10.3572 14.2397C10.2852 14.1855 10.2432 14.1862 10.1535 14.1861C10.123 14.1858 10.0926 14.1855 10.0611 14.1853C10.0277 14.1855 9.99431 14.1856 9.95988 14.1858C9.90705 14.1856 9.90705 14.1856 9.85316 14.1853C9.73642 14.1849 9.61971 14.1852 9.50297 14.1855C9.42206 14.1855 9.34114 14.1854 9.26023 14.1852C9.09052 14.1851 8.92082 14.1853 8.75111 14.1857C8.55487 14.1863 8.35864 14.1861 8.16239 14.1856C7.97366 14.1851 7.78494 14.1852 7.59621 14.1854C7.51587 14.1855 7.43552 14.1854 7.35518 14.1852C7.24302 14.185 7.13088 14.1853 7.01872 14.1858C6.98531 14.1856 6.9519 14.1855 6.91747 14.1853C6.87173 14.1857 6.87173 14.1857 6.82506 14.1861C6.78528 14.1861 6.78528 14.1861 6.74469 14.1862C6.66083 14.2007 6.63315 14.2238 6.58305 14.2917ZM7.9268 15.2917C7.9268 15.4567 7.9268 15.6217 7.9268 15.7917C8.04164 15.9066 8.07385 15.8975 8.23149 15.8979C8.25194 15.898 8.2724 15.8981 8.29347 15.8982C8.33665 15.8983 8.37984 15.8981 8.42302 15.8977C8.48908 15.8972 8.55508 15.8977 8.62114 15.8983C8.66313 15.8982 8.70512 15.8981 8.74711 15.8979C8.8044 15.8978 8.8044 15.8978 8.86284 15.8976C8.96866 15.894 8.96866 15.894 9.0518 15.7917C9.0518 15.6267 9.0518 15.4617 9.0518 15.2917C8.68055 15.2917 8.3093 15.2917 7.9268 15.2917Z" fill="#FFC727"/>
<path id="Vector_2" d="M8.41342 3.31516C8.48297 3.31485 8.55249 3.31388 8.62203 3.3129C8.66657 3.31269 8.7111 3.31253 8.75564 3.31241C8.79596 3.31212 8.83627 3.31182 8.87781 3.31152C8.99943 3.32366 9.07378 3.35172 9.1769 3.41641C9.24955 3.52537 9.24871 3.57484 9.25234 3.70389C9.25355 3.74165 9.25476 3.77942 9.25601 3.81833C9.25746 3.87751 9.25746 3.87751 9.25893 3.9379C9.26014 3.97772 9.26135 4.01754 9.2626 4.05856C9.26555 4.15701 9.26822 4.25545 9.27065 4.35391C9.31986 4.37664 9.36941 4.39864 9.41909 4.42032C9.44664 4.43265 9.4742 4.44497 9.50259 4.45767C9.58138 4.48629 9.58138 4.48629 9.65036 4.45663C9.76101 4.37963 9.84964 4.27714 9.94222 4.1799C10.0712 4.04702 10.2019 3.92564 10.3957 3.91641C10.6364 3.98354 10.7848 4.16556 10.9542 4.34024C10.9846 4.37093 11.0149 4.40159 11.0453 4.43222C11.3064 4.69751 11.3064 4.69751 11.3175 4.85782C11.315 5.01453 11.2593 5.08453 11.1527 5.19437C11.1015 5.24283 11.0498 5.29086 10.9979 5.33865C10.9693 5.3656 10.9407 5.39255 10.9113 5.42032C10.8702 5.45718 10.8702 5.45718 10.8283 5.49478C10.7612 5.56854 10.7612 5.56854 10.7736 5.66226C10.7829 5.69457 10.7923 5.72688 10.8019 5.76016C10.8074 5.78015 10.8128 5.80013 10.8184 5.82072C10.833 5.87367 10.8486 5.92632 10.8644 5.97891C10.886 5.97842 10.9076 5.97793 10.9298 5.97742C11.0284 5.97546 11.1271 5.97425 11.2257 5.97305C11.2597 5.97227 11.2936 5.97148 11.3286 5.97067C11.6743 5.96752 11.6743 5.96752 11.8332 6.07266C11.9627 6.25856 11.9412 6.47858 11.9391 6.69816C11.9386 6.76208 11.9391 6.82594 11.9397 6.88986C11.9396 6.93057 11.9395 6.97127 11.9394 7.01321C11.9392 7.05012 11.9391 7.08702 11.939 7.12504C11.9222 7.26913 11.8782 7.36982 11.7771 7.47443C11.6846 7.52236 11.6153 7.52079 11.5114 7.51932C11.4737 7.51902 11.436 7.51871 11.3972 7.5184C11.358 7.51762 11.3188 7.51683 11.2785 7.51602C11.2388 7.5156 11.1991 7.51518 11.1582 7.51474C11.0603 7.51364 10.9623 7.51209 10.8644 7.51016C10.86 7.53973 10.8555 7.5693 10.851 7.59976C10.8332 7.69766 10.8332 7.69766 10.798 7.76407C10.7624 7.84042 10.7742 7.8692 10.8019 7.94766C10.8407 7.99828 10.8407 7.99828 10.8905 8.04324C10.9083 8.06046 10.9261 8.07769 10.9445 8.09543C10.9632 8.11305 10.9819 8.13068 11.0011 8.14883C11.312 8.44378 11.312 8.44378 11.3253 8.64102C11.3167 8.85068 11.1629 8.96591 11.0207 9.10391C10.9856 9.13978 10.9507 9.17576 10.9159 9.21182C10.8799 9.24881 10.8439 9.28575 10.8078 9.32266C10.7906 9.3403 10.7733 9.35793 10.7556 9.3761C10.6336 9.49826 10.5556 9.5653 10.3839 9.58438C10.1531 9.5605 10.0074 9.38002 9.85268 9.2211C9.83266 9.2008 9.81264 9.18049 9.79202 9.15958C9.74308 9.10991 9.6943 9.06011 9.64565 9.01016C9.60952 9.0237 9.60952 9.0237 9.57266 9.03751C9.54132 9.04911 9.50997 9.06071 9.47768 9.07266C9.44651 9.08426 9.41533 9.09587 9.3832 9.10782C9.3019 9.13516 9.3019 9.13516 9.2394 9.13516C9.24006 9.1599 9.24071 9.18465 9.24139 9.21014C9.24399 9.32251 9.24561 9.43488 9.24722 9.54727C9.24826 9.58621 9.24931 9.62514 9.25039 9.66525C9.25079 9.70282 9.2512 9.74038 9.25161 9.77908C9.25227 9.81361 9.25292 9.84814 9.25359 9.88372C9.2357 10.0038 9.2022 10.052 9.1144 10.1352C8.91512 10.2258 8.70602 10.208 8.49136 10.2074C8.43278 10.2082 8.43278 10.2082 8.37301 10.209C8.00396 10.2091 8.00396 10.2091 7.83315 10.1039C7.73301 10.0003 7.72825 9.92365 7.73025 9.78214C7.73055 9.74447 7.73085 9.70681 7.73116 9.668C7.73195 9.6288 7.73274 9.58961 7.73354 9.54922C7.73397 9.50955 7.73439 9.46987 7.73483 9.42899C7.73593 9.33103 7.73747 9.2331 7.7394 9.13516C7.7072 9.12556 7.7072 9.12556 7.67434 9.11575C7.64618 9.10733 7.61802 9.09891 7.58901 9.09024C7.5611 9.0819 7.53318 9.07356 7.50442 9.06497C7.44707 9.04754 7.39002 9.02912 7.33315 9.01016C7.31866 9.02498 7.30417 9.0398 7.28924 9.05507C7.22331 9.1223 7.15714 9.18928 7.09097 9.25626C7.06817 9.27958 7.04537 9.3029 7.02187 9.32693C6.99972 9.34929 6.97756 9.37165 6.95474 9.39468C6.93444 9.4153 6.91415 9.43592 6.89324 9.45717C6.79773 9.5414 6.72955 9.57028 6.60269 9.58438C6.34894 9.55813 6.18313 9.33736 6.01284 9.16446C5.98738 9.13898 5.96192 9.1135 5.93569 9.08725C5.66795 8.81751 5.66795 8.81751 5.66128 8.66055C5.66805 8.43928 5.80155 8.32055 5.95449 8.17361C5.97019 8.15852 5.98589 8.14343 6.00206 8.12788C6.0336 8.09795 6.06562 8.06852 6.09815 8.03966C6.149 7.99407 6.149 7.99407 6.20815 7.91641C6.20408 7.82357 6.17844 7.76397 6.1437 7.67813C6.1144 7.60391 6.1144 7.60391 6.1144 7.51016C6.08966 7.51082 6.06492 7.51147 6.03943 7.51215C5.92706 7.51475 5.81469 7.51637 5.70229 7.51797C5.66336 7.51902 5.62443 7.52007 5.58431 7.52115C5.54675 7.52155 5.50919 7.52195 5.47048 7.52237C5.43595 7.52302 5.40142 7.52368 5.36585 7.52435C5.24671 7.50659 5.19789 7.471 5.1144 7.38516C5.01893 7.2136 5.04142 7.01957 5.04204 6.8286C5.04214 6.76447 5.0414 6.70038 5.04061 6.63626C5.04041 6.22313 5.04041 6.22313 5.14565 6.07266C5.33335 5.94845 5.53447 5.96799 5.75308 5.97305C5.78786 5.97348 5.82264 5.9739 5.85848 5.97433C5.94381 5.97543 6.0291 5.97697 6.1144 5.97891C6.13116 5.93547 6.14732 5.89181 6.16323 5.84805C6.1723 5.82376 6.18136 5.79947 6.1907 5.77444C6.21148 5.68303 6.20612 5.63031 6.1769 5.54141C6.13169 5.47966 6.13169 5.47966 6.07241 5.42581C6.0515 5.40545 6.0306 5.38509 6.00906 5.36411C5.9871 5.34334 5.96515 5.32257 5.94253 5.30118C5.89917 5.25945 5.85588 5.21767 5.81265 5.17581C5.79337 5.1575 5.7741 5.13918 5.75424 5.12031C5.68128 5.04488 5.66841 4.98357 5.66128 4.88126C5.66397 4.75715 5.68706 4.70104 5.77163 4.61075C5.79151 4.58927 5.81139 4.5678 5.83187 4.54567C5.86344 4.51262 5.86344 4.51262 5.89565 4.47891C5.9159 4.45716 5.93614 4.43542 5.95699 4.41301C6.01908 4.34692 6.0822 4.28198 6.14565 4.21719C6.1772 4.1839 6.1772 4.1839 6.20937 4.14993C6.33839 4.01868 6.43004 3.94307 6.6144 3.91641C6.91238 3.99768 7.12404 4.26479 7.33315 4.47891C7.35237 4.47251 7.37158 4.4661 7.39138 4.4595C7.49697 4.42431 7.60256 4.38911 7.70815 4.35391C7.70828 4.32917 7.70841 4.30443 7.70854 4.27894C7.70957 4.16654 7.71178 4.05419 7.71401 3.9418C7.71429 3.8834 7.71429 3.8834 7.71456 3.82382C7.72233 3.50175 7.72233 3.50175 7.81326 3.40701C7.99707 3.28855 8.20257 3.31571 8.41342 3.31516ZM8.20815 3.82266C8.20586 3.91239 8.20586 3.91239 8.20352 4.00394C8.20117 4.08218 8.19881 4.16043 8.19644 4.23868C8.19547 4.27814 8.1945 4.31759 8.19351 4.35825C8.1923 4.39601 8.19109 4.43378 8.18984 4.47269C8.18837 4.52497 8.18837 4.52497 8.18687 4.57832C8.1769 4.66641 8.1769 4.66641 8.1144 4.76016C8.03372 4.7949 7.95504 4.82541 7.87222 4.85391C7.74861 4.89738 7.62924 4.94024 7.51186 4.99893C7.39524 5.05725 7.30153 5.07942 7.1769 5.04141C7.06075 4.95929 6.96361 4.86172 6.8644 4.76016C6.83951 4.73563 6.81461 4.7111 6.78896 4.68582C6.73021 4.62779 6.67207 4.56927 6.6144 4.51016C6.58102 4.53729 6.54787 4.56469 6.51479 4.59219C6.4963 4.60742 6.47781 4.62265 6.45876 4.63834C6.37736 4.71486 6.30977 4.79838 6.2394 4.88516C6.25422 4.89965 6.26904 4.91415 6.28431 4.92908C6.35154 4.995 6.41852 5.06117 6.4855 5.12735C6.50882 5.15015 6.53215 5.17295 6.55618 5.19644C6.58971 5.22968 6.58971 5.22968 6.62393 5.26358C6.64455 5.28387 6.66517 5.30417 6.68641 5.32507C6.73941 5.38517 6.77278 5.4357 6.8019 5.51016C6.79203 5.65454 6.7441 5.76598 6.68081 5.89493C6.61186 6.03874 6.55442 6.17801 6.51248 6.33182C6.4894 6.38516 6.4894 6.38516 6.39565 6.44766C6.30756 6.45763 6.30756 6.45763 6.20193 6.4606C6.16416 6.46181 6.1264 6.46302 6.08749 6.46426C6.04803 6.46523 6.00857 6.4662 5.96792 6.46719C5.9281 6.4684 5.88828 6.46961 5.84725 6.47086C5.74881 6.47381 5.65036 6.47639 5.5519 6.47891C5.5519 6.65422 5.5519 6.82954 5.5519 7.01016C5.60649 7.01133 5.66107 7.0125 5.71731 7.0137C5.78913 7.01575 5.86095 7.01783 5.93276 7.01993C5.98669 7.02099 5.98669 7.02099 6.04171 7.02206C6.07646 7.02317 6.1112 7.02428 6.147 7.02542C6.17891 7.02624 6.21082 7.02706 6.2437 7.0279C6.34752 7.04358 6.4062 7.07151 6.4894 7.13516C6.52574 7.19447 6.52574 7.19447 6.54922 7.26077C6.55816 7.285 6.5671 7.30923 6.57632 7.3342C6.58502 7.3594 6.59372 7.38459 6.60269 7.41055C6.62059 7.46027 6.63857 7.50995 6.65664 7.5596C6.66934 7.59529 6.66934 7.59529 6.68231 7.6317C6.70938 7.70507 6.70938 7.70507 6.76357 7.79764C6.81168 7.90749 6.80713 7.95915 6.77065 8.07266C6.71487 8.15054 6.71487 8.15054 6.6437 8.22501C6.61856 8.25159 6.59343 8.27818 6.56753 8.30557C6.54175 8.33184 6.51597 8.3581 6.4894 8.38516C6.46491 8.41014 6.44042 8.43511 6.41519 8.46085C6.35703 8.51942 6.29849 8.57753 6.2394 8.63516C6.26653 8.66854 6.29393 8.7017 6.32144 8.73477C6.34428 8.76251 6.34428 8.76251 6.36758 8.7908C6.4441 8.87221 6.52763 8.93979 6.6144 9.01016C6.62935 8.99423 6.6443 8.9783 6.6597 8.96189C6.72808 8.8896 6.7972 8.81805 6.86636 8.74649C6.88986 8.72141 6.91337 8.69634 6.93758 8.6705C7.04096 8.56444 7.11572 8.48927 7.2571 8.44034C7.39225 8.44956 7.48985 8.48838 7.6105 8.54727C7.63229 8.55739 7.65409 8.5675 7.67655 8.57793C7.71968 8.59796 7.76273 8.6182 7.80567 8.63866C7.88117 8.67434 7.95767 8.70753 8.03433 8.74063C8.14565 8.79141 8.14565 8.79141 8.1769 8.82266C8.18185 8.88738 8.18476 8.95225 8.18679 9.01712C8.1881 9.0565 8.18941 9.09587 8.19076 9.13644C8.192 9.17833 8.19324 9.22022 8.19448 9.26212C8.19583 9.30413 8.19719 9.34614 8.19857 9.38815C8.2019 9.49132 8.20504 9.59449 8.20815 9.69766C8.39378 9.69766 8.5794 9.69766 8.77065 9.69766C8.77146 9.63559 8.77227 9.57351 8.7731 9.50955C8.7744 9.44936 8.77571 9.38916 8.77714 9.32897C8.77845 9.26663 8.77913 9.20428 8.77981 9.14194C8.78082 9.10276 8.78182 9.06359 8.78286 9.02322C8.78352 8.98706 8.78417 8.95089 8.78484 8.91363C8.8019 8.82266 8.8019 8.82266 8.85989 8.76569C8.94437 8.71933 9.02971 8.68574 9.12026 8.65274C9.26734 8.59855 9.40735 8.53989 9.5458 8.46646C9.65825 8.43565 9.72023 8.44514 9.83315 8.47891C9.93588 8.55911 10.0235 8.65154 10.1125 8.74649C10.149 8.78429 10.149 8.78429 10.1862 8.82285C10.2461 8.88488 10.3054 8.94731 10.3644 9.01016C10.5058 8.89522 10.6267 8.77857 10.7394 8.63516C10.7188 8.61534 10.7188 8.61534 10.6979 8.59511C10.6353 8.53449 10.5731 8.47351 10.5109 8.41251C10.4893 8.39172 10.4677 8.37093 10.4455 8.34952C10.329 8.23469 10.2362 8.13476 10.1769 7.97891C10.1769 7.82151 10.2512 7.70022 10.323 7.56436C10.3787 7.44947 10.4157 7.33066 10.4523 7.20853C10.5011 7.11198 10.5492 7.08914 10.6457 7.04141C10.7351 7.0279 10.7351 7.0279 10.8318 7.02542C10.8666 7.02431 10.9013 7.02321 10.9371 7.02206C10.973 7.02136 11.009 7.02065 11.046 7.01993C11.0826 7.01886 11.1192 7.01779 11.1568 7.01669C11.2468 7.01412 11.3369 7.01209 11.4269 7.01016C11.4269 6.83485 11.4269 6.65954 11.4269 6.47891C11.3674 6.47811 11.308 6.4773 11.2467 6.47647C11.1688 6.47471 11.0908 6.47292 11.0128 6.4711C10.9736 6.47066 10.9345 6.47021 10.8941 6.46976C10.8564 6.46875 10.8187 6.46774 10.7799 6.46671C10.7452 6.46605 10.7105 6.4654 10.6748 6.46472C10.5636 6.44402 10.5272 6.41048 10.4582 6.32266C10.4241 6.23941 10.4241 6.23941 10.3976 6.14688C10.3576 6.01552 10.3113 5.90007 10.2453 5.77969C10.1993 5.68974 10.1772 5.63941 10.1691 5.53751C10.2819 5.27804 10.5411 5.07984 10.7394 4.88516C10.7123 4.85178 10.6849 4.81863 10.6574 4.78555C10.6421 4.76706 10.6269 4.74857 10.6112 4.72952C10.5347 4.64812 10.4512 4.58053 10.3644 4.51016C10.3507 4.52403 10.337 4.53791 10.3229 4.5522C10.2606 4.61509 10.1983 4.67786 10.1359 4.74063C10.1143 4.76246 10.0927 4.7843 10.0705 4.80679C10.0392 4.83821 10.0392 4.83821 10.0073 4.87027C9.97863 4.89924 9.97863 4.89924 9.94933 4.92879C9.84693 5.02442 9.77066 5.05867 9.63003 5.05557C9.49224 5.0306 9.37271 4.96537 9.24795 4.90372C9.13109 4.84682 9.01216 4.80059 8.89028 4.75577C8.83315 4.72891 8.83315 4.72891 8.8019 4.66641C8.79709 4.60295 8.7941 4.53935 8.79202 4.47574C8.79071 4.43787 8.7894 4.40001 8.78805 4.36099C8.78682 4.32127 8.78559 4.28155 8.78433 4.24063C8.78298 4.20067 8.78163 4.16071 8.78024 4.11954C8.77691 4.02058 8.77377 3.92162 8.77065 3.82266C8.58503 3.82266 8.3994 3.82266 8.20815 3.82266Z" fill="#FFC727"/>
<path id="Vector_3" d="M9.36318 5.80797C9.61411 6.03309 9.74806 6.36567 9.77053 6.69786C9.77407 7.05379 9.66683 7.35589 9.4352 7.62621C9.15713 7.90715 8.87922 8.01798 8.49123 8.02403C8.26996 8.02261 8.09009 7.99795 7.89553 7.88536C7.87164 7.87247 7.84775 7.85958 7.82314 7.8463C7.54553 7.68096 7.35784 7.4358 7.26064 7.12865C7.1666 6.74553 7.21669 6.41323 7.40334 6.06639C7.5934 5.76306 7.88584 5.5846 8.23146 5.49864C8.65526 5.4251 9.02717 5.54745 9.36318 5.80797ZM7.87685 6.265C7.74402 6.44038 7.69616 6.64453 7.71364 6.86119C7.74971 7.07539 7.8493 7.24003 8.0226 7.37206C8.23686 7.50976 8.42311 7.53752 8.67678 7.51036C8.92913 7.42972 9.06287 7.29945 9.20021 7.07872C9.28409 6.86483 9.28717 6.67901 9.2123 6.46117C9.10623 6.23482 8.93798 6.09884 8.70803 6.01036C8.3972 5.90675 8.09028 6.02897 7.87685 6.265Z" fill="#FFC727"/>
<path id="Vector_4" d="M10.1783 2.30753C10.7477 2.53605 11.2561 2.84544 11.7081 3.26025C11.7252 3.27588 11.7422 3.29151 11.7598 3.30761C12.5352 4.02866 13.1346 5.12201 13.1886 6.19579C13.1857 6.28945 13.1784 6.32017 13.128 6.40282C13.0228 6.46486 12.9533 6.46277 12.8331 6.44775C12.7461 6.39938 12.714 6.37062 12.6807 6.27582C12.6751 6.24494 12.6695 6.21406 12.6637 6.18224C12.6535 6.13039 12.6535 6.13039 12.6432 6.07748C12.6363 6.04047 12.6293 6.00346 12.6222 5.96532C12.4618 5.18527 12.1346 4.42662 11.5572 3.8612C11.4894 3.7915 11.4894 3.7915 11.4894 3.729C11.4716 3.7213 11.4538 3.71361 11.4354 3.70568C11.3526 3.66003 11.2956 3.60526 11.2276 3.53954C10.6588 3.02058 9.90635 2.71456 9.15437 2.58736C9.00714 2.56055 8.90801 2.5299 8.80187 2.4165C8.77305 2.3297 8.78054 2.25488 8.80187 2.1665C9.0248 1.84007 9.87267 2.18991 10.1783 2.30753Z" fill="#FFC727"/>
<path id="Vector_5" d="M12.9892 2.1664C13.0608 2.21576 13.0796 2.25112 13.1103 2.33241C13.1168 2.47178 13.0552 2.56394 12.9649 2.66784C12.8968 2.73904 12.8272 2.8084 12.7568 2.87733C12.7329 2.9013 12.7091 2.92527 12.6845 2.94997C12.4792 3.15332 12.4792 3.15332 12.3642 3.19765C12.1737 3.19096 12.1737 3.19096 12.0849 3.11366C12.0385 3.0125 12.0304 2.96479 12.0517 2.8539C12.1127 2.75941 12.1915 2.68348 12.2705 2.6039C12.3067 2.56651 12.3429 2.52912 12.3791 2.49171C12.4184 2.45159 12.4577 2.41151 12.4971 2.37148C12.5163 2.35186 12.5355 2.33224 12.5552 2.31203C12.5736 2.29366 12.5919 2.27529 12.6108 2.25636C12.6273 2.23979 12.6437 2.22322 12.6607 2.20614C12.768 2.11603 12.8614 2.13445 12.9892 2.1664Z" fill="#FFC727"/>
<path id="Vector_6" d="M4.27051 2.16643C4.34867 2.22636 4.34867 2.22636 4.42444 2.304C4.45189 2.33182 4.47934 2.35963 4.50763 2.38829C4.53573 2.41756 4.56382 2.44682 4.59277 2.47698C4.63583 2.52069 4.63583 2.52069 4.67975 2.56529C4.92331 2.81425 4.92331 2.81425 4.93457 2.94377C4.9257 3.05463 4.91666 3.09357 4.83301 3.16643C4.72949 3.19768 4.72949 3.19768 4.61426 3.19768C4.44139 3.10167 4.3081 2.96549 4.16895 2.82658C4.13523 2.79402 4.13523 2.79402 4.10083 2.76079C3.98369 2.6443 3.89468 2.55362 3.86426 2.38518C3.88647 2.27903 3.91375 2.23977 3.99707 2.17033C4.10621 2.12569 4.15723 2.13589 4.27051 2.16643Z" fill="#FFC727"/>
<path id="Vector_7" d="M12.3955 10.3227C12.4914 10.3824 12.566 10.4618 12.6455 10.5415C12.6828 10.577 12.7202 10.6125 12.7576 10.6479C12.7977 10.6866 12.8379 10.7254 12.8779 10.7642C12.9074 10.7922 12.9074 10.7922 12.9374 10.8208C13.0176 10.9 13.0751 10.9572 13.114 11.0642C13.1144 11.1685 13.0743 11.2351 13.0205 11.3227C12.9186 11.3737 12.8524 11.3686 12.7393 11.354C12.6437 11.294 12.5685 11.2151 12.4893 11.1352C12.4569 11.1036 12.4246 11.0721 12.3922 11.0405C12.0566 10.711 12.0566 10.711 12.04 10.5591C12.0518 10.4477 12.0518 10.4477 12.1006 10.3716C12.211 10.3008 12.2662 10.299 12.3955 10.3227Z" fill="#FFC727"/>
<path id="Vector_8" d="M4.80176 10.3228C4.90214 10.3871 4.92222 10.4304 4.95215 10.5455C4.91175 10.7381 4.78224 10.8433 4.64551 10.979C4.61446 11.0108 4.58345 11.0426 4.55249 11.0744C4.28215 11.3501 4.28215 11.3501 4.13379 11.3638C4.02051 11.354 4.02051 11.354 3.94629 11.2994C3.89488 11.2282 3.86954 11.1912 3.86426 11.104C3.90451 10.974 3.96436 10.8988 4.06055 10.8038C4.08685 10.7776 4.11316 10.7515 4.14026 10.7245C4.16777 10.6977 4.19529 10.6708 4.22363 10.6431C4.25115 10.6158 4.27866 10.5884 4.30701 10.5602C4.5678 10.3026 4.5678 10.3026 4.80176 10.3228Z" fill="#FFC727"/>
<path id="Vector_9" d="M14.1956 6.50107C14.2661 6.50053 14.3366 6.49916 14.4071 6.49778C14.452 6.49746 14.4969 6.4972 14.5417 6.49699C14.603 6.4963 14.603 6.4963 14.6655 6.49561C14.7705 6.51029 14.7705 6.51029 14.8465 6.56679C14.9176 6.66612 14.9104 6.73483 14.8955 6.85404C14.8405 6.95357 14.8174 6.97382 14.708 7.01029C14.5636 7.01851 14.419 7.01753 14.2744 7.0181C14.2144 7.01907 14.2144 7.01907 14.1532 7.02006C14.1146 7.02022 14.0761 7.02038 14.0364 7.02055C14.0011 7.02084 13.9659 7.02113 13.9296 7.02143C13.8211 7.00892 13.7634 6.98211 13.6768 6.91654C13.6299 6.82865 13.6299 6.82865 13.6143 6.72904C13.7222 6.44297 13.929 6.50249 14.1956 6.50107Z" fill="#FFC727"/>
<path id="Vector_10" d="M2.43462 6.49365C2.46721 6.49347 2.46721 6.49347 2.50045 6.49329C2.54626 6.49321 2.59207 6.49343 2.63787 6.49396C2.70785 6.49463 2.77773 6.49396 2.84771 6.49316C2.89231 6.49325 2.9369 6.49341 2.9815 6.49365C3.04217 6.49386 3.04217 6.49386 3.10406 6.49408C3.22417 6.51276 3.26017 6.54023 3.33306 6.63525C3.36994 6.71691 3.36614 6.75274 3.34478 6.84033C3.29051 6.93655 3.24452 6.96203 3.14556 7.01025C3.04998 7.02238 3.04998 7.02238 2.94439 7.02271C2.88699 7.02289 2.88699 7.02289 2.82842 7.02307C2.7887 7.02271 2.74898 7.02235 2.70806 7.02197C2.66834 7.02234 2.62862 7.0227 2.5877 7.02307C2.54943 7.02295 2.51116 7.02283 2.47173 7.02271C2.43689 7.0226 2.40204 7.02249 2.36614 7.02238C2.25941 7.00884 2.20026 6.98017 2.11431 6.9165C2.066 6.81989 2.07389 6.74168 2.08306 6.63525C2.18216 6.49648 2.27007 6.49423 2.43462 6.49365Z" fill="#FFC727"/>
<path id="Vector_11" d="M8.42676 0.333008C8.4577 0.333612 8.4577 0.333612 8.48926 0.334229C8.50988 0.333826 8.53051 0.333423 8.55176 0.333008C8.64992 0.365599 8.68304 0.424928 8.73926 0.51001C8.75543 0.611328 8.75543 0.611328 8.75586 0.724854C8.75602 0.765942 8.75618 0.807031 8.75635 0.849365C8.75609 0.870615 8.75582 0.891864 8.75555 0.913757C8.75488 0.978593 8.75555 1.04332 8.75635 1.10815C8.75619 1.14924 8.75603 1.19033 8.75586 1.23267C8.75572 1.27013 8.75558 1.30759 8.75543 1.34619C8.73629 1.46608 8.6989 1.51831 8.61426 1.60376C8.55176 1.62451 8.55176 1.62451 8.48926 1.62329C8.45832 1.6239 8.45832 1.6239 8.42676 1.62451C8.3286 1.59192 8.29547 1.53259 8.23926 1.44751C8.22308 1.34619 8.22308 1.34619 8.22266 1.23267C8.2225 1.19158 8.22233 1.15049 8.22217 1.10815C8.22243 1.0869 8.22269 1.06566 8.22296 1.04376C8.22363 0.978926 8.22297 0.914198 8.22217 0.849365C8.22233 0.808276 8.22249 0.767188 8.22266 0.724854C8.2228 0.68739 8.22294 0.649927 8.22308 0.611328C8.24385 0.481259 8.29563 0.376548 8.42676 0.333008Z" fill="#FFC727"/>
</g>
</g>
</g>
<defs>
<clipPath id="clip0_906_1306">
<rect width="16" height="16" fill="white" transform="translate(0.489258 0.354004)"/>
</clipPath>
</defs>
</svg>
