<svg width="17" height="23" viewBox="0 0 17 23" fill="none" xmlns="http://www.w3.org/2000/svg">
<g id="fa6-brands:java">
<path id="Vector" d="M11.9826 13.7582C12.3909 13.479 12.9576 13.2374 12.9576 13.2374C12.9576 13.2374 11.3451 13.529 9.74088 13.6624C7.77839 13.8249 5.67005 13.8582 4.61172 13.7165C2.10755 13.3832 5.98672 12.4624 5.98672 12.4624C5.98672 12.4624 4.48255 12.3624 2.62838 13.254C0.440884 14.3124 8.04505 14.7957 11.9826 13.7582ZM8.42422 12.4207C7.63255 10.6415 4.96172 9.07904 8.42422 6.3457C12.7434 2.93737 10.5284 0.720703 10.5284 0.720703C11.4242 4.24154 7.37838 5.3082 5.91588 7.4957C4.92005 8.99154 6.40338 10.5957 8.42422 12.4207ZM13.1992 5.07904C13.2034 5.07904 5.89922 6.90404 9.38672 10.9207C10.4159 12.104 9.11588 13.1707 9.11588 13.1707C9.11588 13.1707 11.7284 11.8207 10.5284 10.1332C9.40755 8.5582 8.54922 7.77487 13.1992 5.07904ZM12.9451 16.3499C12.9223 16.3896 12.8942 16.426 12.8617 16.4582C18.2076 15.054 16.2409 11.504 13.6867 12.404C13.5488 12.4547 13.4296 12.5463 13.3451 12.6665C13.4942 12.6126 13.6475 12.5708 13.8034 12.5415C15.0951 12.2707 16.9492 14.2707 12.9451 16.3499ZM14.9101 18.9457C14.9101 18.9457 15.5142 19.4415 14.2476 19.829C11.8351 20.5582 4.21422 20.779 2.09755 19.8582C1.33505 19.529 2.76422 19.0665 3.21422 18.9707C3.68088 18.8707 3.95172 18.8874 3.95172 18.8874C3.10588 18.2915 -1.51912 20.0582 1.60172 20.5624C10.1117 21.9457 17.1184 19.9415 14.9101 18.9457ZM5.59505 17.2207C2.31588 18.1374 7.59088 20.029 11.7659 18.2415C11.3587 18.0833 10.9656 17.891 10.5909 17.6665C8.72838 18.0207 7.86588 18.0457 6.17422 17.854C4.77838 17.6957 5.59505 17.2207 5.59505 17.2207ZM13.0867 21.2707C9.80755 21.8874 5.76172 21.8165 3.36588 21.4207C3.36588 21.4165 3.85755 21.8249 6.38255 21.9874C10.2242 22.2332 16.1242 21.8499 16.2617 20.0332C16.2617 20.0332 15.9951 20.7207 13.0867 21.2707ZM11.2701 15.429C8.80338 15.904 7.37422 15.8915 5.57005 15.704C4.17422 15.5582 5.08672 14.8832 5.08672 14.8832C1.47005 16.0832 7.09505 17.4415 12.1492 15.9624C11.8226 15.847 11.5233 15.6654 11.2701 15.429Z" fill="#F2F2F2" fill-opacity="0.8"/>
</g>
</svg>
