<svg width="36" height="16" viewBox="0 0 36 16" fill="none" xmlns="http://www.w3.org/2000/svg">
<g id="Simplification" clip-path="url(#clip0_1_2725)">
<path id="Vector" d="M22.5649 2.86586C24.1568 3.89716 25.2776 5.37305 25.5599 7.05489C25.7619 8.83315 25.3344 10.5474 23.945 11.9503C22.4046 13.4045 20.612 14.1065 18.3206 14.3099C16.3267 14.3744 14.2716 13.6815 12.804 12.5744C11.2375 11.197 10.5114 9.56933 10.5346 7.69176C10.6034 5.92491 11.5329 4.41984 13.0585 3.20579C15.7838 1.27553 19.6529 1.19219 22.5649 2.86586ZM16.7487 2.41366C16.6208 2.44311 16.4928 2.47257 16.361 2.50291C16.5065 3.10585 16.7126 3.67087 16.9626 4.24895C17.0148 4.37123 17.0148 4.37123 17.0679 4.49597C17.1527 4.69456 17.2379 4.893 17.3236 5.09129C17.5001 5.09129 17.6766 5.09129 17.8585 5.09129C17.8585 4.17822 17.8585 3.26514 17.8585 2.3244C17.2814 2.32267 17.2814 2.32267 16.7487 2.41366ZM18.2863 2.3244C18.2863 3.23748 18.2863 4.15055 18.2863 5.09129C18.4275 5.09129 18.5687 5.09129 18.7142 5.09129C18.8202 4.79596 18.9245 4.50019 19.0284 4.20432C19.0581 4.12166 19.0878 4.03899 19.1184 3.95382C19.2986 3.43768 19.4109 2.94967 19.4629 2.41366C19.0746 2.3842 18.6864 2.35475 18.2863 2.3244ZM19.9977 2.59217C19.7511 3.11537 19.5579 3.63792 19.3894 4.18201C19.3653 4.25743 19.3413 4.33285 19.3165 4.41055C19.1827 4.83443 19.1827 4.83443 19.142 5.2698C19.2832 5.29925 19.4244 5.32871 19.5699 5.35905C19.7774 5.05796 19.9845 4.75667 20.1916 4.45535C20.2501 4.37044 20.3087 4.28553 20.369 4.19805C20.6514 3.78674 20.9286 3.37664 21.1743 2.94918C21.0186 2.88928 20.8625 2.82987 20.7064 2.77068C20.6195 2.73754 20.5326 2.7044 20.4431 2.67026C20.2202 2.58101 20.2202 2.58101 19.9977 2.59217ZM15.1643 2.85993C15.0878 2.89307 15.0113 2.9262 14.9324 2.96034C14.8453 2.999 14.8453 2.999 14.7565 3.03844C14.8253 3.35487 14.9812 3.57097 15.194 3.8372C15.2602 3.92021 15.3265 4.00322 15.3947 4.08875C15.4643 4.17475 15.5339 4.26075 15.6055 4.34936C15.6747 4.4364 15.7438 4.52344 15.8151 4.61312C16.1237 5.04908 16.1237 5.04908 16.5749 5.35905C16.6808 5.3296 16.7867 5.30014 16.8958 5.2698C16.6315 4.39145 16.2821 3.53818 15.9331 2.68142C15.5912 2.68142 15.4606 2.73022 15.1643 2.85993ZM21.4952 3.21695C21.4575 3.27232 21.4197 3.3277 21.3808 3.38476C21.2096 3.63569 21.0382 3.88654 20.8668 4.13738C20.8074 4.22454 20.748 4.31169 20.6867 4.40149C20.6295 4.48519 20.5723 4.56889 20.5133 4.65513C20.4607 4.73225 20.408 4.80937 20.3538 4.88883C20.2415 5.04881 20.121 5.20479 19.9977 5.35905C19.9977 5.44741 19.9977 5.53578 19.9977 5.62682C20.1868 5.70374 20.1868 5.70374 20.4256 5.71607C20.6652 5.57411 20.6652 5.57411 20.8869 5.36463C20.9707 5.29065 21.0545 5.21667 21.1409 5.14045C21.6323 4.68817 22.1142 4.2338 22.5649 3.75247C22.4476 3.66242 22.3293 3.57335 22.2106 3.48471C22.1119 3.41016 22.1119 3.41016 22.0112 3.33409C21.8128 3.19088 21.8128 3.19088 21.4952 3.21695ZM13.7871 3.59628C13.7087 3.65012 13.6302 3.70397 13.5494 3.75945C13.3185 3.93707 13.3185 3.93707 13.366 4.288C13.5016 4.44503 13.5016 4.44503 13.6944 4.58366C13.7639 4.63727 13.8334 4.69089 13.905 4.74613C13.9786 4.80112 14.0522 4.85612 14.1281 4.91278C14.1992 4.96778 14.2704 5.02277 14.3437 5.07944C14.746 5.38616 15.1497 5.65412 15.6122 5.89458C15.7534 5.80622 15.8946 5.71786 16.0401 5.62682C15.8697 5.2108 15.5996 4.87645 15.3047 4.51671C15.2582 4.45936 15.2118 4.402 15.1639 4.34291C15.0723 4.22986 14.9804 4.11697 14.8882 4.00424C14.7615 3.84793 14.6382 3.69001 14.515 3.53178C14.4535 3.45734 14.392 3.3829 14.3287 3.3062C14.1147 3.3062 13.9417 3.48801 13.7871 3.59628ZM22.8858 4.10949C22.1445 4.72802 21.4032 5.34656 20.6395 5.98383C20.7101 6.0722 20.7807 6.16056 20.8534 6.2516C21.3916 6.12269 21.8257 5.92595 22.2975 5.6826C22.3657 5.64808 22.434 5.61357 22.5043 5.578C22.9238 5.36468 23.3345 5.14234 23.7415 4.91278C23.6395 4.79531 23.5369 4.67824 23.434 4.56134C23.3483 4.46349 23.3483 4.46349 23.261 4.36366C23.1125 4.18884 23.1125 4.18884 22.8858 4.10949ZM12.7242 4.46651C12.5675 4.59385 12.5675 4.59385 12.4367 4.76216C12.39 4.81704 12.3432 4.87193 12.2951 4.92847C12.1639 5.09967 12.1639 5.09967 12.1894 5.35905C12.6073 5.54116 13.0266 5.72087 13.4462 5.90016C13.5651 5.95199 13.6839 6.00382 13.8064 6.05722C13.9208 6.10583 14.0353 6.15445 14.1532 6.20453C14.2585 6.24987 14.3638 6.29521 14.4723 6.34192C14.7735 6.43539 14.8909 6.43863 15.1844 6.34085C15.2211 6.06575 15.2211 6.06575 14.988 5.89946C14.8984 5.83526 14.8087 5.77106 14.7164 5.70491C14.225 5.34969 13.7468 4.98535 13.2728 4.61399C13.0509 4.43915 13.0509 4.43915 12.7242 4.46651ZM22.5582 5.88342C22.4376 5.94152 22.317 5.99963 22.1928 6.05949C22.0783 6.11529 21.9638 6.17109 21.8458 6.22859C21.7402 6.28 21.6345 6.33142 21.5257 6.38439C21.2699 6.50126 21.2699 6.50126 21.1743 6.69787C21.2096 6.78623 21.2449 6.87459 21.2813 6.96563C22.0335 6.85226 22.7575 6.69678 23.4874 6.5082C23.5846 6.48347 23.6818 6.45873 23.782 6.43324C24.0182 6.37307 24.2543 6.31252 24.4902 6.2516C24.4392 6.12138 24.3879 5.99123 24.3365 5.86111C24.3079 5.78862 24.2794 5.71614 24.25 5.64146C24.1745 5.44739 24.1745 5.44739 24.0624 5.2698C23.5453 5.2698 22.9938 5.67031 22.5582 5.88342ZM15.7192 6.43011C15.2075 6.98686 14.9356 7.55673 14.9871 8.26679C15.1401 9.06711 15.6061 9.62836 16.3509 10.1363C17.045 10.5447 17.7709 10.6232 18.6072 10.5358C19.5763 10.3194 20.2362 9.92621 20.7427 9.20048C21.1234 8.5747 21.1787 7.94376 20.947 7.27802C20.6504 6.6071 20.119 6.05269 19.356 5.71607C18.0314 5.28403 16.6345 5.49175 15.7192 6.43011ZM11.8685 5.62682C11.8141 5.73808 11.7608 5.84973 11.708 5.96152C11.6783 6.02365 11.6485 6.08578 11.6178 6.14979C11.5267 6.36443 11.5267 6.36443 11.5476 6.69787C12.5712 6.87459 13.5949 7.05132 14.6495 7.23339C14.6848 7.08612 14.7201 6.93886 14.7565 6.78712C14.3625 6.62165 13.9684 6.45641 13.5742 6.29139C13.44 6.23517 13.3058 6.17889 13.1717 6.12255C12.9793 6.04175 12.7868 5.96119 12.5943 5.88063C12.4783 5.83202 12.3623 5.78341 12.2429 5.73333C12.0087 5.62041 12.0087 5.62041 11.8685 5.62682ZM23.7745 6.73343C23.6558 6.7615 23.5372 6.78958 23.4149 6.8185C23.2911 6.84865 23.1672 6.87879 23.0395 6.90985C22.9152 6.9393 22.7909 6.96876 22.6629 6.9991C22.0657 7.13116 22.0657 7.13116 21.4952 7.32265C21.4952 7.44046 21.4952 7.55828 21.4952 7.67967C22.5895 7.67967 23.6837 7.67967 24.8111 7.67967C24.7758 7.35567 24.7405 7.03168 24.7041 6.69787C24.3139 6.58931 24.1658 6.63982 23.7745 6.73343ZM11.4406 7.05489C11.3031 7.14948 11.3031 7.14948 11.3232 7.36763C11.3245 7.45771 11.3257 7.5478 11.327 7.64062C11.3279 7.73094 11.3289 7.82125 11.3299 7.91431C11.3311 7.98415 11.3324 8.05398 11.3337 8.12594C11.7883 8.11354 12.2429 8.10029 12.6975 8.08689C12.8265 8.08338 12.9556 8.07987 13.0885 8.07626C13.2747 8.07065 13.2747 8.07065 13.4646 8.06492C13.5789 8.06165 13.6931 8.05838 13.8109 8.05501C14.0701 8.03937 14.2943 8.00884 14.5426 7.94743C14.5073 7.80016 14.472 7.65289 14.4356 7.50116C14.0168 7.42619 13.5978 7.35203 13.1788 7.27802C13.0599 7.25674 12.9411 7.23545 12.8186 7.21352C12.7042 7.19339 12.5897 7.17325 12.4718 7.15251C12.3139 7.12446 12.3139 7.12446 12.1527 7.09585C11.8463 7.04476 11.8463 7.04476 11.4406 7.05489ZM21.6022 8.03668C21.5669 8.18395 21.5316 8.33122 21.4952 8.48296C21.9697 8.58761 22.4444 8.69155 22.9192 8.79535C23.0542 8.82515 23.1893 8.85494 23.3285 8.88565C23.4577 8.91384 23.587 8.94202 23.7202 8.97107C23.8395 8.99724 23.9588 9.02342 24.0817 9.05038C24.3839 9.11765 24.3839 9.11765 24.7041 9.10774C24.8548 8.73052 24.8111 8.47322 24.8111 8.03668C23.7522 8.03668 22.6932 8.03668 21.6022 8.03668ZM13.1788 8.3435C13.0845 8.347 12.9902 8.35051 12.893 8.35413C12.3667 8.37537 11.8538 8.41239 11.3337 8.48296C11.3459 8.61134 11.3596 8.73963 11.3738 8.86787C11.3812 8.93931 11.3887 9.01076 11.3963 9.08438C11.4295 9.31054 11.4295 9.31054 11.6546 9.55401C12.6429 9.28892 13.6312 9.02384 14.6495 8.75072C14.6142 8.60345 14.5789 8.45618 14.5426 8.30445C14.0872 8.30445 13.6336 8.32523 13.1788 8.3435ZM21.3883 8.83997C21.353 8.95779 21.3177 9.0756 21.2813 9.19699C21.6418 9.37258 22.003 9.54707 22.3643 9.72136C22.5169 9.79574 22.5169 9.79574 22.6727 9.87163C23.1614 10.1067 23.6197 10.3246 24.1693 10.4466C24.3105 10.1226 24.4517 9.79857 24.5972 9.46475C24.1227 9.3601 23.648 9.25616 23.1732 9.15236C23.0382 9.12256 22.9031 9.09277 22.764 9.06206C22.6347 9.03387 22.5054 9.00569 22.3723 8.97664C22.2529 8.95047 22.1336 8.92429 22.0107 8.89733C21.7086 8.83006 21.7086 8.83006 21.3883 8.83997ZM13.1988 9.44802C13.0732 9.47983 12.9475 9.51164 12.818 9.54442C12.6987 9.57577 12.5793 9.60713 12.4564 9.63943C12.3463 9.66794 12.2362 9.69645 12.1227 9.72583C12.0388 9.75749 11.9549 9.78915 11.8685 9.82177C11.7291 10.0764 11.7291 10.0764 11.8447 10.2719C11.9061 10.3666 11.9061 10.3666 11.9688 10.4633C12.0298 10.5591 12.0298 10.5591 12.092 10.6568C12.1241 10.7052 12.1563 10.7537 12.1894 10.8036C12.528 10.7469 12.7761 10.6486 13.0689 10.4971C13.1529 10.4539 13.237 10.4107 13.3236 10.3662C13.4538 10.2983 13.4538 10.2983 13.5866 10.229C13.6738 10.1841 13.761 10.1391 13.8509 10.0928C14.1917 9.91688 14.53 9.73954 14.8635 9.55401C14.8282 9.40674 14.7929 9.25947 14.7565 9.10774C14.2332 9.10774 13.694 9.31819 13.1988 9.44802ZM21.0674 9.55401C20.9968 9.67182 20.9262 9.78964 20.8534 9.91103C21.8629 10.8177 21.8629 10.8177 22.9927 11.6069C23.0986 11.6069 23.2045 11.6069 23.3136 11.6069C23.4741 11.4798 23.4741 11.4798 23.6078 11.3112C23.6797 11.2289 23.6797 11.2289 23.7532 11.1449C23.8846 10.9685 23.8846 10.9685 23.7415 10.7143C23.4883 10.5686 23.4883 10.5686 23.1732 10.4344C23.0007 10.3571 23.0007 10.3571 22.8248 10.2783C22.6432 10.1987 22.6432 10.1987 22.4579 10.1174C22.3368 10.0633 22.2158 10.0092 22.0911 9.95339C21.6024 9.69082 21.6024 9.69082 21.0674 9.55401ZM14.6579 10.024C14.5746 10.0667 14.4913 10.1094 14.4055 10.1533C14.3184 10.1986 14.2312 10.2438 14.1415 10.2904C14.056 10.3342 13.9705 10.378 13.8824 10.4232C13.4189 10.6618 12.9612 10.9057 12.5103 11.1606C12.6066 11.2806 12.705 11.3994 12.8044 11.5176C12.859 11.5839 12.9136 11.6501 12.9699 11.7184C13.03 11.77 13.0901 11.8215 13.1521 11.8746C13.5966 11.9151 13.5966 11.9151 13.8837 11.6396C13.9953 11.5366 14.1057 11.4327 14.215 11.3279C14.2698 11.2771 14.3246 11.2262 14.3811 11.1738C14.5438 11.022 14.7038 10.8684 14.8635 10.7143C14.9164 10.6647 14.9693 10.6151 15.0238 10.5639C15.154 10.4393 15.2768 10.3094 15.3983 10.1788C15.3947 9.97157 15.3947 9.97157 15.2913 9.82177C15.0133 9.82177 14.8941 9.90233 14.6579 10.024ZM20.4256 10.1788C20.2859 10.3285 20.2859 10.3285 20.2117 10.5358C20.3214 10.7764 20.3214 10.7764 20.5184 11.0197C20.5866 11.1112 20.6549 11.2027 20.7252 11.2969C20.7984 11.3918 20.8716 11.4867 20.947 11.5845C21.0194 11.6808 21.0918 11.7771 21.1664 11.8764C21.3458 12.1146 21.5268 12.352 21.7092 12.5887C22.0397 12.5267 22.2297 12.4593 22.4846 12.2707C22.5817 12.1989 22.6788 12.1271 22.7788 12.0531C22.6176 11.725 22.39 11.5465 22.0702 11.3168C21.6287 10.9949 21.214 10.6611 20.81 10.3067C20.6512 10.1589 20.6512 10.1589 20.4256 10.1788ZM15.7192 10.3573C15.68 10.3954 15.6409 10.4335 15.6005 10.4727C14.979 11.0716 14.3327 11.6511 13.6869 12.2316C14.0213 12.5346 14.2822 12.732 14.7565 12.8564C15.3238 12.1105 15.7897 11.3283 16.254 10.5358C16.0775 10.4769 15.901 10.418 15.7192 10.3573ZM19.5699 10.6251C19.464 10.6692 19.464 10.6692 19.356 10.7143C19.5047 11.3068 19.6915 11.8818 19.9041 12.4604C19.9338 12.5419 19.9634 12.6234 19.994 12.7074C20.0662 12.9059 20.1388 13.1043 20.2117 13.3027C20.3677 13.2601 20.5237 13.2173 20.6796 13.1744C20.7665 13.1506 20.8534 13.1268 20.9429 13.1022C21.1754 13.0392 21.1754 13.0392 21.3883 12.9457C21.2209 12.4157 20.8882 11.9917 20.5392 11.5343C20.4817 11.4566 20.4241 11.3789 20.3648 11.2988C20.3089 11.225 20.253 11.1512 20.1954 11.0752C20.1446 11.008 20.0939 10.9408 20.0416 10.8716C19.8937 10.6882 19.8937 10.6882 19.5699 10.6251ZM16.5749 10.7143C16.3763 11.0286 16.1783 11.3431 15.9808 11.6578C15.9135 11.7649 15.8461 11.8719 15.7785 11.9789C15.6814 12.1324 15.585 12.2863 15.4885 12.4401C15.4303 12.5327 15.372 12.6252 15.312 12.7206C15.1691 12.9311 15.1691 12.9311 15.1844 13.1242C15.3174 13.1719 15.4513 13.2181 15.5855 13.2636C15.6599 13.2895 15.7344 13.3154 15.8111 13.3421C16.0729 13.4154 16.0729 13.4154 16.4679 13.3027C16.6797 12.5074 16.8915 11.7122 17.1097 10.8928C16.9332 10.8339 16.7567 10.775 16.5749 10.7143ZM18.3933 10.9821C18.4286 11.8362 18.4639 12.6904 18.5002 13.5705C19.1776 13.5887 19.1776 13.5887 19.7838 13.4812C19.7152 12.9063 19.5113 12.383 19.2958 11.8356C19.2606 11.7447 19.2253 11.6539 19.189 11.5603C19.1026 11.3377 19.0156 11.1152 18.9281 10.8928C18.6152 10.8729 18.6152 10.8729 18.3933 10.9821ZM17.5376 10.9821C17.3846 11.2837 17.272 11.5759 17.1858 11.8952C17.1623 11.9815 17.1389 12.0679 17.1147 12.1569C17.091 12.246 17.0673 12.3351 17.0429 12.4269C17.0183 12.517 16.9938 12.6072 16.9685 12.7001C16.8397 13.1312 16.8397 13.1312 16.7888 13.5705C17.2124 13.5999 17.636 13.6294 18.0724 13.6597C18.075 13.3071 18.077 12.9544 18.0783 12.6018C18.0791 12.4227 18.0804 12.2437 18.0818 12.0646C18.0821 11.9525 18.0825 11.8403 18.0828 11.7247C18.0834 11.6209 18.084 11.5172 18.0845 11.4103C18.0931 11.1646 18.0931 11.1646 17.9654 10.9821C17.8242 10.9821 17.683 10.9821 17.5376 10.9821Z" fill="#BEBEBE"/>
<path id="Vector_2" d="M31.5006 5.60609C31.6744 5.73802 31.8499 5.86846 32.027 5.99728C32.5376 6.37025 33.0258 6.75832 33.4953 7.167C33.5481 7.21121 33.601 7.25543 33.6555 7.30099C34.0121 7.61926 34.0121 7.61926 34.0028 7.8887C33.8687 8.20838 33.6603 8.37229 33.3724 8.61041C33.3184 8.65542 33.2643 8.70043 33.2087 8.7468C33.0939 8.84203 32.9786 8.93684 32.8628 9.03123C32.6896 9.17261 32.518 9.31531 32.3467 9.45832C31.6517 10.0343 30.9302 10.5664 30.1593 11.0719C30.0813 11.124 30.0033 11.1761 29.9229 11.2297C28.9709 11.8627 28.004 12.4451 26.9404 12.9404C26.8024 13.0048 26.6649 13.0699 26.5279 13.1358C22.6503 14.9975 18.1416 15.5685 13.7939 14.6421C10.9958 14.0022 8.44149 12.8699 6.19942 11.3396C6.09408 11.2699 5.98874 11.2002 5.8802 11.1284C4.73209 10.3478 3.69319 9.46432 2.66962 8.57275C2.57758 8.49485 2.57758 8.49485 2.48368 8.41538C2.25982 8.21385 2.13769 8.09102 2.12268 7.81165C2.28094 7.51835 2.49074 7.32768 2.75653 7.09448C2.80885 7.04836 2.86118 7.00225 2.91509 6.95473C3.08165 6.80879 3.24986 6.66428 3.41836 6.5199C3.49869 6.45014 3.49869 6.45014 3.58064 6.37896C4.303 5.75237 5.051 5.17624 5.87853 4.64556C5.93679 4.60798 5.99504 4.5704 6.05506 4.53168C14.2893 -0.748745 23.9166 -0.173235 31.5006 5.60609ZM12.8312 3.21749C12.7331 3.28687 12.7331 3.28687 12.6331 3.35765C11.6334 4.11565 10.9802 5.19071 10.5849 6.25214C10.5456 6.35672 10.5456 6.35672 10.5056 6.46342C10.0087 8.10479 10.4091 9.85785 11.4198 11.2975C12.5102 12.7717 14.1695 13.825 16.1738 14.285C18.3755 14.6401 20.6464 14.3354 22.5122 13.2862C24.242 12.2387 25.3845 10.6946 25.7437 8.93361C26.0206 7.25564 25.5382 5.58645 24.3724 4.19964C23.0494 2.7933 21.3584 1.8469 19.2202 1.54711C16.8197 1.33792 14.6451 1.8569 12.8312 3.21749ZM21.3883 1.78942C21.5764 1.89409 21.7664 1.99663 21.9603 2.09379C23.9111 3.08454 25.3249 4.50687 25.8719 6.37733C26.3432 8.29168 25.9039 10.1273 24.7042 11.7859C24.1427 12.4905 23.4538 12.9907 22.6422 13.4821C22.3529 13.6496 22.3529 13.6496 22.137 13.8388C22.8204 13.7315 23.4382 13.5667 24.0758 13.3367C24.1637 13.3053 24.2516 13.2739 24.3421 13.2415C27.6622 12.0354 30.4123 10.0768 32.9404 7.94797C32.7865 7.65462 32.596 7.4591 32.3258 7.23289C32.2456 7.16564 32.1655 7.09839 32.0829 7.02911C31.9974 6.95863 31.912 6.88816 31.824 6.81556C31.6928 6.70692 31.6928 6.70692 31.559 6.59608C30.9412 6.08899 30.3139 5.61982 29.6245 5.18109C29.5189 5.11033 29.4133 5.03957 29.3045 4.96667C27.3438 3.6602 24.0226 1.6562 21.3883 1.78942ZM13.1855 2.07392C13.1025 2.09749 13.0195 2.12106 12.934 2.14535C10.9787 2.72599 9.1549 3.53391 7.48299 4.55631C7.41743 4.59613 7.35186 4.63595 7.28431 4.67698C6.57806 5.10929 5.90904 5.57098 5.26516 6.06666C5.04402 6.23591 4.81772 6.39765 4.58828 6.55895C4.08064 6.92624 3.64453 7.34698 3.20444 7.76946C3.81925 8.9398 5.4473 9.94641 6.62728 10.7149C6.6876 10.7551 6.74793 10.7954 6.81008 10.8368C8.64067 12.056 10.651 12.9538 12.8312 13.6603C13.0084 13.7179 13.0084 13.7179 13.1893 13.7767C13.4808 13.8405 13.6228 13.8387 13.9008 13.7495C13.8104 13.6944 13.7199 13.6393 13.6267 13.5825C11.8334 12.4734 10.5172 10.9884 10.1571 9.10828C9.97306 7.16331 10.2898 5.37876 11.7615 3.80322C11.9023 3.66613 12.0448 3.53025 12.1894 3.396C12.2448 3.34146 12.3003 3.28693 12.3574 3.23074C12.9406 2.69512 13.702 2.34234 14.4356 1.96793C13.9947 1.81377 13.6132 1.95208 13.1855 2.07392Z" fill="#BEBEBE"/>
<path id="Vector_3" d="M17.9655 6.51953C18.3115 6.79194 18.5889 7.08119 18.8613 7.4065C18.9393 7.4975 19.0174 7.58851 19.0978 7.68228C19.249 7.9476 19.249 7.9476 19.1939 8.16934C19.0036 8.43843 18.8048 8.69904 18.5939 8.95729C18.5164 9.05267 18.4389 9.14805 18.3591 9.24632C18.2701 9.35453 18.2701 9.35453 18.1794 9.46493C17.7341 9.32822 17.5505 9.08956 17.2903 8.76763C17.2135 8.67501 17.1367 8.58239 17.0575 8.48696C16.8958 8.21536 16.8958 8.21536 16.8942 7.9985C17.0465 7.67675 17.2601 7.40273 17.4908 7.11642C17.5363 7.05884 17.5817 7.00125 17.6285 6.94192C17.7401 6.80071 17.8527 6.66006 17.9655 6.51953ZM17.9655 6.9658C18.0008 7.05417 18.0361 7.14253 18.0724 7.23357C18.0724 7.1452 18.0724 7.05684 18.0724 6.9658C18.0371 6.9658 18.0018 6.9658 17.9655 6.9658ZM17.7515 7.23357C17.8585 7.41208 17.8585 7.41208 17.8585 7.41208L17.7515 7.23357ZM18.2864 7.32282C18.3933 7.50133 18.3933 7.50133 18.3933 7.50133L18.2864 7.32282ZM17.5376 7.50133C17.6446 7.67984 17.6446 7.67984 17.6446 7.67984L17.5376 7.50133ZM18.5003 7.59058C18.6073 7.76909 18.6073 7.76909 18.6073 7.76909L18.5003 7.59058ZM17.2167 7.9476C17.3237 8.12611 17.3237 8.12611 17.3237 8.12611L17.2167 7.9476ZM18.7142 7.9476C18.7495 8.03596 18.7848 8.12433 18.8212 8.21536C18.8212 8.127 18.8212 8.03864 18.8212 7.9476C18.7859 7.9476 18.7506 7.9476 18.7142 7.9476ZM17.3237 8.12611C17.4307 8.30462 17.4307 8.30462 17.4307 8.30462L17.3237 8.12611ZM18.5003 8.30462C18.6073 8.48313 18.6073 8.48313 18.6073 8.48313L18.5003 8.30462ZM17.5376 8.39387C17.6446 8.57238 17.6446 8.57238 17.6446 8.57238L17.5376 8.39387ZM18.2864 8.57238C18.3933 8.75089 18.3933 8.75089 18.3933 8.75089L18.2864 8.57238ZM17.7515 8.66164C17.8585 8.84015 17.8585 8.84015 17.8585 8.84015L17.7515 8.66164ZM18.0724 8.84015C18.0724 9.10791 18.0724 9.10791 18.0724 9.10791V8.84015Z" fill="#BEBEBE"/>
<path id="Vector_4" d="M27.8061 4.55664C28.2614 4.80086 28.6796 5.06473 29.0897 5.35993C29.1486 5.40206 29.2075 5.44419 29.2683 5.4876C29.3935 5.57713 29.5187 5.66676 29.6437 5.75648C29.8424 5.89831 30.0425 6.03874 30.2429 6.17891C30.3755 6.27222 30.5081 6.36554 30.6406 6.45887C30.7329 6.52299 30.7329 6.52299 30.827 6.5884C31.8278 7.29709 31.8278 7.29709 31.9443 7.85347C31.9077 8.29755 31.5928 8.53781 31.2289 8.84085C30.9515 9.04059 30.6616 9.22311 30.3665 9.40427C30.2061 9.50466 30.0456 9.60507 29.8852 9.7055C29.7661 9.77954 29.7661 9.77954 29.6445 9.85507C29.2942 10.0738 28.9479 10.2967 28.6016 10.5199C28.4879 10.5931 28.3741 10.6662 28.2603 10.7392C28.181 10.7902 28.1017 10.8412 28.02 10.8937C27.9494 10.8642 27.8788 10.8348 27.8061 10.8044C28.3105 10.3577 28.8542 9.96972 29.4268 9.58522C29.8151 9.31902 30.1861 9.03895 30.5562 8.75543C30.8011 8.57309 30.8011 8.57309 31.0911 8.38656C31.3553 8.22765 31.3553 8.22765 31.4696 7.97062C31.4078 7.2998 30.5262 6.83067 29.9571 6.41111C29.5144 6.08331 29.0813 5.74688 28.6484 5.41014C28.5247 5.31496 28.5247 5.31496 28.3984 5.21786C28.3218 5.15808 28.2452 5.09831 28.1663 5.03673C28.0969 4.98295 28.0275 4.92917 27.956 4.87376C27.8061 4.73515 27.8061 4.73515 27.8061 4.55664Z" fill="#BEBEBE"/>
<path id="Vector_5" d="M7.9108 4.55664C7.9108 4.8244 7.9108 4.8244 7.6601 5.06288C7.54846 5.15521 7.43586 5.24675 7.3225 5.33762C7.23398 5.40992 7.23398 5.40992 7.14367 5.48368C6.77315 5.78423 6.39388 6.07412 6.00175 6.35498C5.69274 6.57679 5.3868 6.80116 5.08294 7.02787C5.02593 7.0693 4.96891 7.11072 4.91017 7.15341C4.69561 7.31454 4.51296 7.46259 4.37723 7.67671C4.38326 7.96921 4.51841 8.14854 4.70188 8.39458C4.95113 8.60013 4.95113 8.60013 5.24339 8.77949C5.7458 9.10856 6.2236 9.45099 6.69534 9.8101C7.00274 10.0424 7.31711 10.2675 7.63336 10.4914C7.80384 10.6259 7.80384 10.6259 8.01776 10.8937C7.64606 10.7532 7.33979 10.5691 7.01498 10.3638C6.96001 10.329 6.90505 10.2943 6.84842 10.2585C4.0925 8.51058 4.0925 8.51058 3.95314 8.12682C3.89486 7.75397 3.94792 7.51148 4.21929 7.20638C4.841 6.62728 5.59555 6.14695 6.31762 5.65907C6.66159 5.42589 7.00239 5.18972 7.34256 4.95271C7.39921 4.91325 7.45586 4.87379 7.51423 4.83314C7.64646 4.74101 7.77864 4.64883 7.9108 4.55664Z" fill="#BEBEBE"/>
</g>
<defs>
<clipPath id="clip0_1_2725">
<rect width="34.2284" height="15.2625" fill="white" transform="translate(0.958191 0.271484)"/>
</clipPath>
</defs>
</svg>
