<svg width="19" height="25" viewBox="0 0 19 25" fill="none" xmlns="http://www.w3.org/2000/svg">
<mask id="mask0_998_955" style="mask-type:luminance" maskUnits="userSpaceOnUse" x="0" y="0" width="19" height="25">
<path d="M10.4101 1.38768C10.4101 0.835445 10.8579 0.387695 11.4101 0.387695H17.4102C17.9624 0.387695 18.4102 0.835445 18.4102 1.38768V23.3878C18.4102 23.94 17.9624 24.3877 17.4102 24.3877H1.41014C0.857906 24.3877 0.410156 23.94 0.410156 23.3877V13.3878C0.410156 12.8355 0.857906 12.3878 1.41014 12.3878H5.41022V7.38773C5.41022 6.83542 5.8579 6.38767 6.4102 6.38767H10.4101V1.38768Z" fill="white"/>
</mask>
<g mask="url(#mask0_998_955)">
<path d="M18.4102 0.387695V24.3877H10.4102V0.387695H18.4102Z" fill="#272727"/>
</g>
<mask id="mask1_998_955" style="mask-type:luminance" maskUnits="userSpaceOnUse" x="0" y="0" width="19" height="25">
<path d="M10.4101 1.38768C10.4101 0.835445 10.8579 0.387695 11.4101 0.387695H17.4102C17.9624 0.387695 18.4102 0.835445 18.4102 1.38768V23.3878C18.4102 23.94 17.9624 24.3877 17.4102 24.3877H1.41014C0.857906 24.3877 0.410156 23.94 0.410156 23.3877V13.3878C0.410156 12.8355 0.857906 12.3878 1.41014 12.3878H5.41022V7.38773C5.41022 6.83542 5.8579 6.38767 6.4102 6.38767H10.4101V1.38768Z" fill="white"/>
</mask>
<g mask="url(#mask1_998_955)">
<path d="M13.4102 7.48729V24.4873H5.41016V6.4873H12.4102C12.9624 6.4873 13.4102 6.93498 13.4102 7.48729" fill="black" fill-opacity="0.2"/>
</g>
<mask id="mask2_998_955" style="mask-type:luminance" maskUnits="userSpaceOnUse" x="0" y="0" width="19" height="25">
<path d="M10.4101 1.38768C10.4101 0.835445 10.8579 0.387695 11.4101 0.387695H17.4102C17.9624 0.387695 18.4102 0.835445 18.4102 1.38768V23.3878C18.4102 23.94 17.9624 24.3877 17.4102 24.3877H1.41014C0.857906 24.3877 0.410156 23.94 0.410156 23.3877V13.3878C0.410156 12.8355 0.857906 12.3878 1.41014 12.3878H5.41022V7.38773C5.41022 6.83542 5.8579 6.38767 6.4102 6.38767H10.4101V1.38768Z" fill="white"/>
</mask>
<g mask="url(#mask2_998_955)">
<path d="M13.4102 7.88775V24.8877H5.41016V6.8877H12.4102C12.9624 6.8877 13.4102 7.33545 13.4102 7.88775" fill="black" fill-opacity="0.18"/>
</g>
<mask id="mask3_998_955" style="mask-type:luminance" maskUnits="userSpaceOnUse" x="0" y="0" width="19" height="25">
<path d="M10.4101 1.38768C10.4101 0.835445 10.8579 0.387695 11.4101 0.387695H17.4102C17.9624 0.387695 18.4102 0.835445 18.4102 1.38768V23.3878C18.4102 23.94 17.9624 24.3877 17.4102 24.3877H1.41014C0.857906 24.3877 0.410156 23.94 0.410156 23.3877V13.3878C0.410156 12.8355 0.857906 12.3878 1.41014 12.3878H5.41022V7.38773C5.41022 6.83542 5.8579 6.38767 6.4102 6.38767H10.4101V1.38768Z" fill="white"/>
</mask>
<g mask="url(#mask3_998_955)">
<path d="M13.4102 7.38775V24.3877H5.41016V6.3877H12.4102C12.9624 6.3877 13.4102 6.83545 13.4102 7.38775" fill="#595959"/>
</g>
<mask id="mask4_998_955" style="mask-type:luminance" maskUnits="userSpaceOnUse" x="0" y="0" width="19" height="25">
<path d="M10.4101 1.38768C10.4101 0.835445 10.8579 0.387695 11.4101 0.387695H17.4102C17.9624 0.387695 18.4102 0.835445 18.4102 1.38768V23.3878C18.4102 23.94 17.9624 24.3877 17.4102 24.3877H1.41014C0.857906 24.3877 0.410156 23.94 0.410156 23.3877V13.3878C0.410156 12.8355 0.857906 12.3878 1.41014 12.3878H5.41022V7.38773C5.41022 6.83542 5.8579 6.38767 6.4102 6.38767H10.4101V1.38768Z" fill="white"/>
</mask>
<g mask="url(#mask4_998_955)">
<path d="M0.410156 12.3877V24.3876H8.41017V13.3877C8.41017 12.8354 7.96242 12.3878 7.41019 12.3878L0.410156 12.3877Z" fill="#8E8A8A"/>
</g>
</svg>
