<svg width="16" height="16" viewBox="0 0 16 16" fill="none" xmlns="http://www.w3.org/2000/svg">
<path d="M7.99998 0.888727C7.36144 0.89093 6.7261 0.979131 6.1111 1.15095L6.45332 1.97762C7.7825 1.62568 9.19063 1.72164 10.4598 2.25065C11.7289 2.77965 12.7883 3.71221 13.4741 4.904C14.1598 6.09579 14.4336 7.48037 14.2531 8.84346C14.0726 10.2065 13.4479 11.4722 12.4757 12.4444C11.5034 13.4167 10.2378 14.0414 8.87471 14.2219C7.51162 14.4024 6.12705 14.1285 4.93526 13.4428C3.74347 12.7571 2.81091 11.6977 2.2819 10.4285C1.7529 9.15937 1.65694 7.75124 2.00887 6.42206L1.18221 6.07539C0.77879 7.5105 0.836582 9.0361 1.34742 10.4366C1.85825 11.837 2.79629 13.0416 4.02896 13.8799C5.26163 14.7182 6.72659 15.148 8.21679 15.1084C9.707 15.0688 11.1471 14.5619 12.3335 13.6593C13.5199 12.7567 14.3927 11.5041 14.8285 10.0785C15.2643 8.65289 15.241 7.12637 14.7619 5.7147C14.2829 4.30304 13.3724 3.07761 12.159 2.21162C10.9456 1.34562 9.4907 0.882858 7.99998 0.888727Z" fill="#FFC727"/>
<path d="M3.31116 6.97749C3.08933 7.99108 3.2016 9.04924 3.63116 9.99372C4.06073 10.9382 4.78451 11.7182 5.69426 12.2172C6.604 12.7161 7.65082 12.9071 8.67815 12.7616C9.70548 12.6161 10.6581 12.142 11.3936 11.4101C12.129 10.6782 12.6078 9.72786 12.7582 8.70125C12.9086 7.67463 12.7227 6.6269 12.2282 5.71476C11.7336 4.80261 10.9571 4.07507 10.0147 3.64095C9.07231 3.20682 8.0147 3.08945 7.00005 3.30638L7.27561 3.99971C8.13887 3.83808 9.03121 3.95747 9.82162 4.34035C10.612 4.72322 11.2589 5.34941 11.6672 6.12699C12.0755 6.90457 12.2238 7.79256 12.0903 8.66062C11.9567 9.52867 11.5484 10.331 10.9253 10.95C10.3022 11.5689 9.49702 11.9717 8.62807 12.0993C7.75913 12.2269 6.87216 12.0726 6.09739 11.659C5.32261 11.2454 4.70084 10.5943 4.32335 9.80132C3.94586 9.00832 3.83255 8.11519 4.00005 7.25304L3.31116 6.97749Z" fill="#FFC727"/>
<path d="M8.00003 9.81751C7.55452 9.81092 7.12703 9.64053 6.79914 9.33886C6.47124 9.0372 6.26588 8.62537 6.22225 8.18195L5.4978 7.87973V7.99973C5.49783 8.50103 5.64684 8.99101 5.92592 9.40744C6.20499 9.82387 6.60154 10.148 7.06519 10.3386C7.52884 10.5292 8.03867 10.5777 8.52994 10.4779C9.02121 10.3781 9.47175 10.1346 9.82434 9.77828C10.1769 9.42194 10.4157 8.96884 10.5102 8.47654C10.6047 7.98424 10.5508 7.47495 10.3553 7.01335C10.1598 6.55174 9.83156 6.15866 9.41219 5.88401C8.99282 5.60937 8.50129 5.46556 8.00003 5.47084H7.89336L8.19114 6.22195C8.63535 6.28932 9.0386 6.51959 9.32237 6.86793C9.60613 7.21627 9.75011 7.65775 9.72626 8.10641C9.70241 8.55507 9.51245 8.9788 9.19336 9.29509C8.87426 9.61139 8.44888 9.79761 8.00003 9.81751Z" fill="#FFC727"/>
<path d="M3.64447 5.92931C3.6855 5.97118 3.74141 5.99514 3.80003 5.99598H5.42225L7.80891 8.38265C7.8926 8.46693 8.00635 8.51451 8.12512 8.51493C8.24389 8.51534 8.35797 8.46856 8.44225 8.38487C8.52653 8.30118 8.57411 8.18744 8.57453 8.06866C8.57494 7.94989 8.52816 7.83582 8.44447 7.75154L6.01336 5.33376V3.78265C6.01252 3.72403 5.98856 3.66812 5.94669 3.62709L3.46225 1.14265C3.43119 1.11219 3.39187 1.09153 3.34918 1.0832C3.30648 1.07488 3.26228 1.07928 3.22206 1.09584C3.18184 1.1124 3.14736 1.1404 3.1229 1.17638C3.09844 1.21235 3.08508 1.25471 3.08447 1.2982V3.07598H1.33336C1.28986 3.07659 1.24751 3.08995 1.21153 3.11441C1.17556 3.13887 1.14756 3.17335 1.131 3.21357C1.11443 3.25379 1.11004 3.29799 1.11836 3.34069C1.12668 3.38338 1.14735 3.4227 1.1778 3.45376L3.64447 5.92931Z" fill="#FFC727"/>
</svg>
