<svg width="21" height="19" viewBox="0 0 21 19" fill="none" xmlns="http://www.w3.org/2000/svg">
<g id="Settings-01 1" clip-path="url(#clip0_998_760)">
<g id="Group">
<path id="Vector" d="M11.2676 5.46397C11.2676 3.93971 11.2676 2.43844 11.2676 0.887736C11.5446 0.887736 11.8148 0.874518 12.0821 0.89646C12.1545 0.902275 12.2504 1.00114 12.2808 1.07886C12.4223 1.43812 12.4508 1.90101 12.6999 2.14157C12.9473 2.38081 13.4345 2.35041 13.7702 2.52647C14.1763 2.73954 14.48 2.68402 14.8023 2.39297C14.9947 2.21929 15.2266 2.08896 15.4597 1.92612C15.9422 2.27427 16.4257 2.61265 16.8928 2.97191C16.9618 3.02504 17.0112 3.20665 16.9737 3.27935C16.5843 4.03197 16.7135 4.64051 17.2816 5.29214C17.6068 5.66515 17.8587 5.86579 18.356 5.83592C19.0536 5.79389 19.0563 5.8264 19.272 6.49205C19.3737 6.80584 19.4605 7.12518 19.5765 7.43341C19.6429 7.60947 19.6476 7.73954 19.4642 7.83232C18.7327 8.20242 18.4535 8.74487 18.536 9.60191C18.5833 10.0933 18.665 10.3989 19.0814 10.6707C19.6767 11.0593 19.6561 11.0886 19.4324 11.7723C19.3333 12.0749 19.2284 12.3763 19.1469 12.6838C19.0906 12.896 18.9822 12.9909 18.7618 12.9558C18.0073 12.8358 17.4963 13.0702 17.0733 13.7753C16.7899 14.2479 16.6395 14.5916 16.8515 15.1163C17.0842 15.6926 17.0453 15.7088 16.5311 16.0823C16.1806 16.3369 15.8288 16.5899 15.4584 16.8574C15.1441 16.6348 14.8382 16.3969 14.5091 16.197C14.3989 16.1301 14.2188 16.1198 14.0893 16.1539C13.7047 16.2547 13.334 16.4101 12.9481 16.5045C12.7429 16.5547 12.6232 16.6396 12.5745 16.8394C12.5476 16.9496 12.5095 17.0575 12.4728 17.1654C12.1926 17.988 12.1838 17.993 11.2734 17.8601C11.2734 16.353 11.2734 14.8433 11.2734 13.3103C12.4997 13.2677 13.5135 12.7879 14.2836 11.8465C14.9059 11.086 15.1983 10.1996 15.1578 9.21569C15.087 7.481 13.738 5.58875 11.2676 5.46397Z" fill="#F2F2F2" fill-opacity="0.8"/>
<path id="Vector_2" d="M12.0649 6.63858C12.0649 6.87121 12.0649 7.05996 12.0649 7.27118C11.3144 7.27118 10.5792 7.27118 9.7978 7.27118C9.7978 6.69198 9.78617 6.1252 9.80309 5.55922C9.81075 5.30438 9.73065 5.2256 9.4737 5.22798C8.25106 5.23961 7.02816 5.23671 5.80552 5.2293C5.60937 5.22798 5.50838 5.2864 5.41665 5.47066C5.16763 5.97161 4.63152 6.19393 4.08986 6.05832C3.56591 5.9272 3.2315 5.51163 3.21775 4.97473C3.20348 4.41139 3.51621 3.96569 4.03355 3.81157C4.5686 3.65217 5.13459 3.84567 5.39128 4.33023C5.50468 4.5441 5.63184 4.58507 5.84411 4.58401C7.23832 4.57714 8.63226 4.58031 10.0265 4.58031C10.151 4.58031 10.2755 4.58031 10.4603 4.58031C10.4603 5.0847 10.4571 5.56926 10.4611 6.05356C10.4666 6.73639 10.382 6.62932 11.0379 6.63778C11.3686 6.64201 11.699 6.63858 12.0649 6.63858ZM4.38779 5.41858C4.66642 5.41594 4.88504 5.19044 4.8779 4.91287C4.87103 4.64852 4.66034 4.43941 4.39466 4.4328C4.12 4.42593 3.88816 4.65063 3.88683 4.92477C3.88551 5.20445 4.10546 5.42122 4.38779 5.41858Z" fill="#F2F2F2" fill-opacity="0.8"/>
<path id="Vector_3" d="M9.87172 13.338C9.87172 12.5754 9.87172 11.8511 9.87172 11.1074C10.6167 11.1074 11.3291 11.1074 12.0608 11.1074C12.0608 11.3067 12.0608 11.4952 12.0608 11.7424C11.658 11.7424 11.2524 11.7567 10.8488 11.7374C10.5913 11.725 10.512 11.8117 10.5183 12.0665C10.5342 12.7031 10.5236 13.3404 10.5236 14.0341C10.1321 14.0341 9.76069 14.0484 9.39086 14.0291C9.13867 14.0161 8.98561 14.0811 8.85211 14.3188C8.59357 14.779 8.06618 14.9575 7.55122 14.8163C7.04313 14.677 6.70502 14.2437 6.69127 13.7142C6.67858 13.2172 7.00718 12.7475 7.47852 12.5897C7.9845 12.4202 8.55735 12.5516 8.80452 13.0097C8.99512 13.3632 9.24177 13.3735 9.55159 13.3563C9.64041 13.3518 9.72976 13.3462 9.87172 13.338ZM8.37072 13.7084C8.38023 13.4401 8.15976 13.2101 7.88404 13.2003C7.61889 13.1908 7.37225 13.4166 7.3622 13.678C7.35216 13.9384 7.58241 14.175 7.85311 14.1827C8.12725 14.1906 8.36147 13.9762 8.37072 13.7084Z" fill="#F2F2F2" fill-opacity="0.8"/>
<path id="Vector_4" d="M6.52416 6.58105C6.76446 6.58105 6.95664 6.58105 7.17077 6.58105C7.17077 7.14942 7.17077 7.70297 7.17077 8.29116C7.04626 8.29724 6.92571 8.30835 6.8049 8.30835C5.7763 8.30967 4.7477 8.31284 3.71936 8.30623C3.51052 8.30491 3.37702 8.33584 3.26652 8.5571C3.02384 9.04325 2.45601 9.25156 1.91778 9.10749C1.42899 8.97663 1.08797 8.51507 1.08692 7.98345C1.08586 7.41377 1.41234 6.99451 1.97647 6.84092C2.46552 6.70768 3.01327 6.92366 3.25885 7.38813C3.36592 7.59062 3.48223 7.65803 3.70614 7.65513C4.62953 7.6427 5.55318 7.64984 6.52442 7.64984C6.52416 7.27128 6.52416 6.92551 6.52416 6.58105ZM2.26118 8.48679C2.52025 8.48123 2.75605 8.23274 2.75076 7.97077C2.74548 7.70588 2.50544 7.47431 2.24029 7.4788C1.97673 7.4833 1.73723 7.72915 1.74357 7.98901C1.74939 8.24014 2.01163 8.49207 2.26118 8.48679Z" fill="#F2F2F2" fill-opacity="0.8"/>
<path id="Vector_5" d="M7.20971 10.0957C7.20971 10.3149 7.20971 10.5155 7.20971 10.7495C6.8026 10.7495 6.40845 10.7495 5.98125 10.7495C5.98125 11.2316 5.98125 11.6818 5.98125 12.1865C5.47475 12.1865 5.0005 12.196 4.52677 12.1825C4.29229 12.1759 4.14742 12.2161 4.02265 12.4593C3.78394 12.924 3.21214 13.1128 2.69321 12.9655C2.2023 12.8262 1.86684 12.3932 1.85626 11.8851C1.84489 11.3421 2.15181 10.8983 2.6488 10.7383C3.17301 10.5694 3.73582 10.7307 3.99093 11.1999C4.14689 11.4867 4.33538 11.537 4.6148 11.5134C4.82708 11.4957 5.042 11.51 5.2823 11.51C5.2823 11.0233 5.2823 10.5718 5.2823 10.0957C5.92944 10.0957 6.55014 10.0957 7.20971 10.0957ZM3.02815 12.3337C3.31259 12.3329 3.5291 12.1151 3.52302 11.8362C3.5172 11.5708 3.30863 11.3622 3.04216 11.3554C2.75771 11.348 2.5375 11.5578 2.53433 11.8397C2.5309 12.1246 2.74079 12.3343 3.02815 12.3337Z" fill="#F2F2F2" fill-opacity="0.8"/>
<path id="Vector_6" d="M9.35563 15.8769C9.35563 16.2343 9.36383 16.5405 9.35272 16.8458C9.34558 17.0401 9.4204 17.1093 9.61179 17.1025C9.89491 17.0919 10.1786 17.0998 10.4839 17.0998C10.4839 17.3248 10.4839 17.522 10.4839 17.7364C9.89439 17.7364 9.31941 17.7364 8.70505 17.7364C8.70505 17.4036 8.69871 17.0879 8.70743 16.7726C8.71219 16.5997 8.65351 16.5256 8.47269 16.5286C7.99368 16.536 7.51334 16.5132 7.03618 16.5439C6.92331 16.551 6.79166 16.703 6.71843 16.8193C6.33512 17.4292 5.57959 17.5905 4.99748 17.172C4.44921 16.7778 4.36065 15.9769 4.80715 15.4526C5.30678 14.8663 6.27564 14.9321 6.67904 15.6015C6.80937 15.8177 6.94419 15.8893 7.19004 15.8833C7.89481 15.8656 8.60037 15.8769 9.35563 15.8769ZM5.70965 16.7255C5.98326 16.7173 6.1921 16.4931 6.18602 16.214C6.17994 15.9353 5.95894 15.7239 5.68137 15.7318C5.41384 15.7395 5.1865 15.9782 5.19443 16.2428C5.20236 16.5085 5.44239 16.7334 5.70965 16.7255Z" fill="#F2F2F2" fill-opacity="0.8"/>
<path id="Vector_7" d="M13.3706 9.03448C13.3706 9.26896 13.3706 9.45983 13.3706 9.70277C13.2445 9.70277 13.1242 9.70277 13.0037 9.70277C12.0665 9.70197 11.1291 9.707 10.192 9.69589C9.99557 9.69351 9.89273 9.75009 9.79704 9.92879C9.52607 10.435 8.986 10.6407 8.42187 10.4863C7.93968 10.3544 7.60131 9.88359 7.60501 9.34906C7.60871 8.82485 7.95343 8.36963 8.45068 8.23322C8.97992 8.08783 9.53348 8.30275 9.7936 8.79101C9.89511 8.98161 10.0072 9.04109 10.2155 9.03924C11.2544 9.02893 12.2939 9.03448 13.3706 9.03448ZM9.26674 9.34457C9.25881 9.08048 9.01005 8.84441 8.75416 8.85842C8.50276 8.87217 8.25532 9.13811 8.26643 9.3829C8.27806 9.6454 8.52681 9.8738 8.79064 9.86455C9.05288 9.8553 9.27467 9.61315 9.26674 9.34457Z" fill="#F2F2F2" fill-opacity="0.8"/>
<path id="Vector_8" d="M10.4954 1.85504C10.4954 2.05199 10.4968 2.19923 10.4946 2.34621C10.4941 2.3901 10.4838 2.43398 10.4722 2.52069C10.0053 2.52069 9.54005 2.53073 9.07558 2.51646C8.84903 2.50932 8.70892 2.56484 8.59181 2.78161C8.33645 3.25321 7.80351 3.46073 7.31049 3.32512C6.74979 3.171 6.413 2.73904 6.41802 2.18099C6.42278 1.65546 6.76724 1.19654 7.25894 1.06092C7.79187 0.913943 8.3531 1.12225 8.60529 1.61237C8.71712 1.8294 8.85194 1.86324 9.06025 1.85848C9.52578 1.84791 9.99157 1.85504 10.4954 1.85504ZM8.09271 2.18813C8.09483 1.92589 7.85743 1.68929 7.59149 1.68824C7.32952 1.68718 7.08525 1.92695 7.08525 2.18496C7.08525 2.4464 7.32265 2.68089 7.58779 2.68168C7.85188 2.68247 8.0906 2.44905 8.09271 2.18813Z" fill="#F2F2F2" fill-opacity="0.8"/>
<path id="Vector_9" d="M4.38745 5.41953C4.10486 5.42217 3.88491 5.2054 3.88624 4.92571C3.88756 4.65158 4.1194 4.42687 4.39406 4.43375C4.65974 4.44036 4.87069 4.64973 4.8773 4.91382C4.8847 5.19139 4.66608 5.41688 4.38745 5.41953Z" fill="#F2F2F2" fill-opacity="0.8"/>
<path id="Vector_10" d="M8.37113 13.7086C8.36188 13.9764 8.12766 14.1907 7.85353 14.1828C7.58283 14.1751 7.35258 13.9383 7.36262 13.6782C7.37267 13.4167 7.61931 13.1912 7.88446 13.2005C8.16018 13.2103 8.38065 13.4402 8.37113 13.7086Z" fill="#F2F2F2" fill-opacity="0.8"/>
<path id="Vector_11" d="M2.26138 8.48656C2.01183 8.49185 1.74986 8.23992 1.74378 7.98878C1.73743 7.72892 1.97694 7.48307 2.2405 7.47858C2.50565 7.47409 2.74568 7.70566 2.75097 7.97054C2.75599 8.23252 2.52045 8.48101 2.26138 8.48656Z" fill="#F2F2F2" fill-opacity="0.8"/>
<path id="Vector_12" d="M3.02804 12.334C2.74042 12.3348 2.53078 12.1249 2.53422 11.84C2.53766 11.5582 2.75787 11.348 3.04205 11.3557C3.30852 11.3625 3.51709 11.5711 3.52291 11.8365C3.52899 12.1154 3.31248 12.3333 3.02804 12.334Z" fill="#F2F2F2" fill-opacity="0.8"/>
<path id="Vector_13" d="M5.70928 16.7263C5.44228 16.7343 5.20224 16.5093 5.19405 16.2436C5.18612 15.979 5.41346 15.7403 5.68099 15.7326C5.9583 15.7247 6.17956 15.9359 6.18564 16.2148C6.19172 16.494 5.98288 16.7182 5.70928 16.7263Z" fill="#F2F2F2" fill-opacity="0.8"/>
<path id="Vector_14" d="M9.26677 9.34439C9.2747 9.6127 9.05291 9.85512 8.79067 9.86411C8.52685 9.87336 8.27809 9.64496 8.26646 9.38245C8.25562 9.1374 8.50279 8.87146 8.75419 8.85797C9.01009 8.84449 9.25911 9.0803 9.26677 9.34439Z" fill="#F2F2F2" fill-opacity="0.8"/>
<path id="Vector_15" d="M8.0929 2.18837C8.09079 2.44929 7.85208 2.68272 7.58799 2.68192C7.32284 2.68113 7.08571 2.44665 7.08545 2.1852C7.08545 1.92719 7.32971 1.68742 7.59169 1.68848C7.85763 1.68954 8.09475 1.92613 8.0929 2.18837Z" fill="#F2F2F2" fill-opacity="0.8"/>
<path id="Vector_16" d="M11.2676 0.887695H12.3945L12.6998 2.14153L14.1749 2.65332L15.4597 1.92608L16.8928 2.97186L14.08 3.83313C14.08 3.83313 12.2267 3.72633 12.1809 3.63513C12.1355 3.54366 11.2676 0.887695 11.2676 0.887695Z" fill="#F2F2F2" fill-opacity="0.8"/>
</g>
</g>
<defs>
<clipPath id="clip0_998_760">
<rect width="20" height="18.684" fill="white" transform="translate(0.410156 0.0458984)"/>
</clipPath>
</defs>
</svg>
