<svg width="25" height="25" viewBox="0 0 25 25" fill="none" xmlns="http://www.w3.org/2000/svg">
<g id="Frame">
<path id="Vector" d="M18.6847 19.2169C17.9859 18.2918 17.0819 17.5415 16.0438 17.0253C15.0058 16.509 13.862 16.2408 12.7027 16.2419C11.5433 16.2408 10.3995 16.509 9.36147 17.0253C8.3234 17.5415 7.41939 18.2918 6.72065 19.2169M18.6847 19.2169C20.0482 18.0041 21.0098 16.4054 21.4438 14.633C21.8779 12.8605 21.7629 10.998 21.1141 9.29237C20.4653 7.58676 19.3134 6.11867 17.811 5.08279C16.3087 4.04691 14.527 3.49219 12.7022 3.49219C10.8773 3.49219 9.09558 4.04691 7.59325 5.08279C6.09093 6.11867 4.93898 7.58676 4.29018 9.29237C3.64139 10.998 3.5264 12.8605 3.96047 14.633C4.39454 16.4054 5.35715 18.0041 6.72065 19.2169M18.6847 19.2169C17.0387 20.6851 14.9083 21.495 12.7027 21.4919C10.4967 21.4953 8.36689 20.6853 6.72065 19.2169M15.7027 10.2419C15.7027 11.0375 15.3866 11.8006 14.824 12.3632C14.2614 12.9258 13.4983 13.2419 12.7027 13.2419C11.907 13.2419 11.1439 12.9258 10.5813 12.3632C10.0187 11.8006 9.70265 11.0375 9.70265 10.2419C9.70265 9.44624 10.0187 8.68318 10.5813 8.12057C11.1439 7.55796 11.907 7.24189 12.7027 7.24189C13.4983 7.24189 14.2614 7.55796 14.824 8.12057C15.3866 8.68318 15.7027 9.44624 15.7027 10.2419Z" stroke="black" stroke-width="1.5" stroke-linecap="round" stroke-linejoin="round"/>
</g>
</svg>
