<svg width="25" height="24" viewBox="0 0 25 24" fill="none" xmlns="http://www.w3.org/2000/svg">
<g id="ant-design:project-outlined">
<path id="Vector" d="M6.72949 17.625H8.60449C8.70762 17.625 8.79199 17.5406 8.79199 17.4375V6.5625C8.79199 6.45937 8.70762 6.375 8.60449 6.375H6.72949C6.62637 6.375 6.54199 6.45937 6.54199 6.5625V17.4375C6.54199 17.5406 6.62637 17.625 6.72949 17.625ZM11.2295 11.0625H13.1045C13.2076 11.0625 13.292 10.9781 13.292 10.875V6.5625C13.292 6.45937 13.2076 6.375 13.1045 6.375H11.2295C11.1264 6.375 11.042 6.45937 11.042 6.5625V10.875C11.042 10.9781 11.1264 11.0625 11.2295 11.0625ZM15.7295 12.75H17.6045C17.7076 12.75 17.792 12.6656 17.792 12.5625V6.5625C17.792 6.45937 17.7076 6.375 17.6045 6.375H15.7295C15.6264 6.375 15.542 6.45937 15.542 6.5625V12.5625C15.542 12.6656 15.6264 12.75 15.7295 12.75ZM20.792 2.625H3.54199C3.12715 2.625 2.79199 2.96016 2.79199 3.375V20.625C2.79199 21.0398 3.12715 21.375 3.54199 21.375H20.792C21.2068 21.375 21.542 21.0398 21.542 20.625V3.375C21.542 2.96016 21.2068 2.625 20.792 2.625ZM19.8545 19.6875H4.47949V4.3125H19.8545V19.6875Z" fill="#BEBEBE"/>
</g>
</svg>
