<svg width="21" height="21" viewBox="0 0 21 21" fill="none" xmlns="http://www.w3.org/2000/svg">
<g id="Group">
<g id="Clip path group">
<mask id="mask0_998_817" style="mask-type:luminance" maskUnits="userSpaceOnUse" x="0" y="0" width="21" height="21">
<g id="akarIconsPythonFill0">
<path id="Vector" d="M0.410156 0.387695H20.4102V20.3877H0.410156V0.387695Z" fill="white"/>
</g>
</mask>
<g mask="url(#mask0_998_817)">
<g id="Group_2">
<path id="Vector_2" d="M10.3385 0.387695C5.26016 0.387695 5.57682 2.60103 5.57682 2.60103L5.58266 4.89436H10.4277V5.5827H3.66016C3.66016 5.5827 0.410156 5.21186 0.410156 10.3619C0.410156 15.5119 3.24599 15.3285 3.24599 15.3285H4.93766V12.9394C4.93766 12.9394 4.84682 10.0894 7.72932 10.0894H12.5343C12.5343 10.0894 15.2343 10.1327 15.2343 7.46603V3.05603C15.2343 3.05603 15.6443 0.387695 10.3385 0.387695ZM7.66682 1.92936C8.14849 1.92936 8.53849 2.32103 8.53849 2.80603C8.53849 3.2902 8.14849 3.68186 7.66682 3.68186C7.18516 3.68186 6.79516 3.2902 6.79516 2.80603C6.79516 2.32103 7.18432 1.92936 7.66682 1.92936Z" fill="#F2F2F2" fill-opacity="0.8"/>
<path id="Vector_3" d="M10.4828 20.3879C15.5594 20.3879 15.2428 18.1746 15.2428 18.1746L15.2369 15.8813H10.3919V15.1929H17.1611C17.1611 15.1929 20.4111 15.5638 20.4111 10.4138C20.4111 5.26377 17.5744 5.4471 17.5744 5.4471H15.8828V7.83627C15.8828 7.83627 15.9736 10.6863 13.0911 10.6863H8.28694C8.28694 10.6863 5.58694 10.6429 5.58694 13.3096V17.7196C5.58694 17.7196 5.17694 20.3879 10.4828 20.3879ZM13.1544 18.8463C12.6719 18.8463 12.2828 18.4546 12.2828 17.9696C12.2828 17.4854 12.6719 17.0938 13.1544 17.0938C13.6361 17.0938 14.0261 17.4854 14.0261 17.9696C14.0261 18.4546 13.6361 18.8463 13.1544 18.8463Z" fill="#F2F2F2" fill-opacity="0.8"/>
</g>
</g>
</g>
</g>
</svg>
