<svg width="16" height="17" viewBox="0 0 16 17" fill="none" xmlns="http://www.w3.org/2000/svg">
<g id="devicon:python">
<path id="Vector" d="M7.9239 1.55242C7.39615 1.55492 6.8924 1.5998 6.4489 1.6783C5.14265 1.90905 4.90565 2.39205 4.90565 3.28292V4.4593H7.99228V4.85142H3.74715C2.85015 4.85142 2.06465 5.39055 1.8189 6.41655C1.5354 7.59217 1.5229 8.32592 1.8189 9.55355C2.03828 10.4674 2.56228 11.1184 3.4594 11.1184H4.52078V9.70817C4.52078 8.6893 5.40215 7.79067 6.44903 7.79067H9.53215C10.3904 7.79067 11.0754 7.08392 11.0754 6.22217V3.28305C11.0754 2.44642 10.3697 1.81805 9.53215 1.67842C9.00165 1.59017 8.45153 1.55005 7.9239 1.55242ZM6.25465 2.49855C6.5734 2.49855 6.8339 2.76317 6.8339 3.08867C6.8339 3.4128 6.57352 3.67492 6.25465 3.67492C5.93465 3.67492 5.67553 3.4128 5.67553 3.08867C5.6754 2.76317 5.93465 2.49855 6.25465 2.49855Z" fill="url(#paint0_linear_322_1849)"/>
<path id="Vector_2" d="M11.4601 4.85142V6.22217C11.4601 7.28467 10.5591 8.17905 9.53189 8.17905H6.44877C5.60427 8.17905 4.90552 8.90192 4.90552 9.74767V12.687C4.90552 13.5234 5.63277 14.0155 6.44877 14.2554C7.42577 14.5425 8.36277 14.5945 9.53189 14.2554C10.3089 14.0303 11.0751 13.5775 11.0751 12.687V11.5105H7.99214V11.1183H12.6186C13.5156 11.1183 13.8501 10.4927 14.1621 9.55342C14.4844 8.58655 14.4705 7.65667 14.1621 6.41642C13.9404 5.5233 13.517 4.8513 12.6186 4.8513L11.4601 4.85142ZM9.72602 12.2948C10.0461 12.2948 10.3053 12.5569 10.3053 12.8813C10.3053 13.2065 10.046 13.4712 9.72602 13.4712C9.40727 13.4712 9.14689 13.2065 9.14689 12.8813C9.14689 12.5569 9.40727 12.2948 9.72602 12.2948Z" fill="url(#paint1_linear_322_1849)"/>
<path id="Vector_3" opacity="0.444" d="M12.1637 14.971C12.1637 15.4139 10.3117 15.773 8.02737 15.773C5.74287 15.773 3.89087 15.4139 3.89087 14.971C3.89087 14.5282 5.74274 14.1689 8.02737 14.1689C10.3117 14.1689 12.1637 14.5279 12.1637 14.971Z" fill="url(#paint2_radial_322_1849)"/>
</g>
<defs>
<linearGradient id="paint0_linear_322_1849" x1="1.29213" y1="1.92025" x2="8.41136" y2="7.99149" gradientUnits="userSpaceOnUse">
<stop stop-color="#5A9FD4"/>
<stop offset="1" stop-color="#306998"/>
</linearGradient>
<linearGradient id="paint1_linear_322_1849" x1="11.0898" y1="11.7655" x2="8.53668" y2="8.1852" gradientUnits="userSpaceOnUse">
<stop stop-color="#FFD43B"/>
<stop offset="1" stop-color="#FFE873"/>
</linearGradient>
<radialGradient id="paint2_radial_322_1849" cx="0" cy="0" r="1" gradientUnits="userSpaceOnUse" gradientTransform="translate(8.01065 14.9481) rotate(-90) scale(0.80229 3.52673)">
<stop stop-color="#B8B8B8" stop-opacity="0.498"/>
<stop offset="1" stop-color="#7F7F7F" stop-opacity="0"/>
</radialGradient>
</defs>
</svg>
