<svg width="21" height="21" viewBox="0 0 21 21" fill="none" xmlns="http://www.w3.org/2000/svg">
<path id="Vector" d="M10.6186 0.598465C10.1186 0.598465 9.61859 0.788465 9.20859 1.18846L1.20859 9.18847C0.418589 9.96846 0.418589 11.2285 1.20859 12.0085L9.20859 20.0085C9.98859 20.7985 11.2486 20.7985 12.0286 20.0085L20.0286 12.0085C20.8186 11.2285 20.8186 9.96846 20.0286 9.18847L12.0286 1.18846C11.6186 0.788465 11.1186 0.598465 10.6186 0.598465ZM10.6186 5.54846C13.3186 5.65846 14.4886 8.37847 12.8986 10.4085C12.4786 10.9085 11.8086 11.2385 11.4686 11.6685C11.1186 12.0985 11.1186 12.5985 11.1186 13.0985H9.61859C9.61859 12.2485 9.61859 11.5385 9.96859 11.0385C10.2986 10.5385 10.9686 10.2385 11.3886 9.90847C12.6186 8.77847 12.2986 7.18847 10.6186 7.05847C9.79859 7.05847 9.11859 7.72847 9.11859 8.56847H7.61859C7.61859 6.89847 8.96859 5.54846 10.6186 5.54846ZM9.61859 14.0985H11.1186V15.5985H9.61859V14.0985Z" fill="#A69C42"/>
</svg>
