<svg width="18" height="27" viewBox="0 0 18 27" fill="none" xmlns="http://www.w3.org/2000/svg">
<path fill-rule="evenodd" clip-rule="evenodd" d="M16.8649 11.7955C17.4102 12.3127 17.7165 13.0138 17.7165 13.7447C17.7165 14.4757 17.4102 15.1768 16.8649 15.694L5.88537 26.0986C5.33912 26.6158 4.59835 26.9062 3.82602 26.9061C3.05369 26.9059 2.31306 26.6151 1.76707 26.0976C1.22108 25.5802 0.914445 24.8784 0.914627 24.1468C0.914809 23.4152 1.22179 22.7136 1.76804 22.1964L10.6899 13.7447L1.76804 5.29308C1.23736 4.77309 0.943515 4.07645 0.949787 3.3532C0.956059 2.62996 1.26195 1.93799 1.80157 1.42632C2.3412 0.914653 3.07138 0.624232 3.83486 0.617608C4.59833 0.610985 5.33401 0.888689 5.88343 1.39091L16.8669 11.7936L16.8649 11.7955Z" fill="#A6A6A6"/>
</svg>
