<svg width="21" height="21" viewBox="0 0 21 21" fill="none" xmlns="http://www.w3.org/2000/svg">
<g id="vscode-icons:file-type-sql">
<path id="Vector" d="M5.76123 9.9227C7.25388 10.4468 8.82831 10.6993 10.41 10.6683C11.9917 10.6991 13.5661 10.4463 15.0587 9.92207C16.2237 9.4677 16.6369 8.9627 16.6369 8.67207V6.4502C16.2294 6.72276 15.7925 6.94836 15.3344 7.1227C13.7552 7.68804 12.087 7.96371 10.41 7.93645C8.73311 7.96275 7.06515 7.68754 5.48561 7.12395C5.02719 6.94971 4.59019 6.72366 4.18311 6.4502V8.66895C4.18311 8.9652 4.59748 9.4677 5.76123 9.9227ZM5.76123 14.1133C6.28847 14.3144 6.83218 14.4694 7.38623 14.5764C8.38256 14.7688 9.39526 14.8636 10.41 14.8596C11.4247 14.8638 12.4374 14.7692 13.4337 14.5771C13.9878 14.47 14.5315 14.3151 15.0587 14.1139C16.2237 13.6596 16.6369 13.1546 16.6369 12.8639V10.7452C16.3002 10.9478 15.9463 11.1203 15.5794 11.2608C13.9204 11.848 12.1695 12.1323 10.41 12.1002C8.6503 12.1313 6.89934 11.846 5.24061 11.2577C4.87402 11.1164 4.52022 10.9438 4.18311 10.7421V12.8627C4.18311 13.1539 4.59748 13.6571 5.76123 14.1133ZM10.41 19.1377C13.8475 19.1377 16.6369 18.0477 16.6369 16.7039V14.9308C16.3306 15.1154 16.0097 15.2747 15.6775 15.4071L15.5794 15.4464C13.9207 16.0354 12.1698 16.3214 10.41 16.2908C8.65008 16.3227 6.89888 16.0367 5.24061 15.4464L5.14248 15.4071C4.81025 15.2747 4.48939 15.1154 4.18311 14.9308V16.7039C4.18311 18.0477 6.97248 19.1377 10.41 19.1377Z" fill="#F2F2F2" fill-opacity="0.8"/>
<path id="Vector_2" d="M10.41 6.5052C13.849 6.5052 16.6369 5.41557 16.6369 4.07145C16.6369 2.72732 13.849 1.6377 10.41 1.6377C6.97097 1.6377 4.18311 2.72732 4.18311 4.07145C4.18311 5.41557 6.97097 6.5052 10.41 6.5052Z" fill="#F2F2F2" fill-opacity="0.8"/>
</g>
</svg>
