<svg width="16" height="14" viewBox="0 0 16 14" fill="none" xmlns="http://www.w3.org/2000/svg">
<g id="Group">
<path id="Vector" opacity="0.2" d="M15.0564 7.23242C15.0566 7.85297 14.8644 8.4583 14.5062 8.96503C14.148 9.47176 13.6415 9.85495 13.0564 10.0618V10.4824C13.0564 11.1455 12.793 11.7813 12.3242 12.2502C11.8553 12.719 11.2194 12.9824 10.5564 12.9824C9.89336 12.9824 9.25747 12.719 8.78863 12.2502C8.31979 11.7813 8.0564 11.1455 8.0564 10.4824C8.0564 11.1455 7.793 11.7813 7.32416 12.2502C6.85532 12.719 6.21944 12.9824 5.5564 12.9824C4.89335 12.9824 4.25747 12.719 3.78863 12.2502C3.31979 11.7813 3.0564 11.1455 3.0564 10.4824V10.0618C2.47084 9.8554 1.96374 9.4724 1.60504 8.96564C1.24634 8.45887 1.05371 7.85329 1.05371 7.23242C1.05371 6.61155 1.24634 6.00598 1.60504 5.49921C1.96374 4.99244 2.47084 4.60945 3.0564 4.40305V3.98242C3.0564 3.31938 3.31979 2.6835 3.78863 2.21465C4.25747 1.74581 4.89335 1.48242 5.5564 1.48242C6.21944 1.48242 6.85532 1.74581 7.32416 2.21465C7.793 2.6835 8.0564 3.31938 8.0564 3.98242C8.0564 3.31938 8.31979 2.6835 8.78863 2.21465C9.25747 1.74581 9.89336 1.48242 10.5564 1.48242C11.2194 1.48242 11.8553 1.74581 12.3242 2.21465C12.793 2.6835 13.0564 3.31938 13.0564 3.98242V4.40305C13.6415 4.6099 14.148 4.99308 14.5062 5.49981C14.8644 6.00654 15.0566 6.61188 15.0564 7.23242Z" fill="#FFC727"/>
<path id="Vector_2" d="M15.5564 7.23267C15.5557 6.57037 15.3675 5.9218 15.0136 5.36202C14.6596 4.80224 14.1544 4.35412 13.5564 4.06954V3.98267C13.5558 3.33843 13.3479 2.71149 12.9633 2.19461C12.5787 1.67774 12.038 1.29838 11.4211 1.11268C10.8042 0.926983 10.1439 0.944803 9.53795 1.16351C8.93197 1.38221 8.41249 1.79018 8.05638 2.32704C7.70026 1.79018 7.18078 1.38221 6.5748 1.16351C5.96882 0.944803 5.30853 0.926983 4.69164 1.11268C4.07474 1.29838 3.53401 1.67774 3.14946 2.19461C2.7649 2.71149 2.55695 3.33843 2.55638 3.98267V4.06954C1.95784 4.35334 1.45212 4.80118 1.09801 5.36099C0.74389 5.92081 0.555908 6.56963 0.555908 7.23204C0.555908 7.89446 0.74389 8.54327 1.09801 9.10309C1.45212 9.66291 1.95784 10.1107 2.55638 10.3945V10.4827C2.55695 11.1269 2.7649 11.7538 3.14946 12.2707C3.53401 12.7876 4.07474 13.167 4.69164 13.3526C5.30853 13.5383 5.96882 13.5205 6.5748 13.3018C7.18078 13.0831 7.70026 12.6752 8.05638 12.1383C8.41249 12.6752 8.93197 13.0831 9.53795 13.3018C10.1439 13.5205 10.8042 13.5383 11.4211 13.3526C12.038 13.167 12.5787 12.7876 12.9633 12.2707C13.3479 11.7538 13.5558 11.1269 13.5564 10.4827V10.3945C14.1543 10.1102 14.6595 9.66228 15.0134 9.10271C15.3674 8.54314 15.5556 7.89478 15.5564 7.23267ZM5.55638 12.4827C5.06322 12.4826 4.58747 12.3003 4.22052 11.9709C3.85356 11.6414 3.62127 11.188 3.56825 10.6977C3.72994 10.7207 3.89305 10.7324 4.05638 10.7327H4.55638C4.68899 10.7327 4.81616 10.68 4.90993 10.5862C5.0037 10.4925 5.05638 10.3653 5.05638 10.2327C5.05638 10.1001 5.0037 9.97288 4.90993 9.87911C4.81616 9.78534 4.68899 9.73267 4.55638 9.73267H4.05638C3.4661 9.73336 2.89462 9.52516 2.44311 9.14494C1.99161 8.76472 1.6892 8.23701 1.58943 7.65523C1.48966 7.07344 1.59896 6.47512 1.89799 5.9662C2.19701 5.45727 2.66647 5.07056 3.22325 4.87454C3.32067 4.84005 3.40501 4.77622 3.46467 4.69183C3.52432 4.60744 3.55636 4.50664 3.55638 4.40329V3.98267C3.55638 3.45223 3.76709 2.94353 4.14216 2.56845C4.51724 2.19338 5.02594 1.98267 5.55638 1.98267C6.08681 1.98267 6.59552 2.19338 6.97059 2.56845C7.34566 2.94353 7.55638 3.45223 7.55638 3.98267V8.24892C7.00732 7.7551 6.29483 7.48212 5.55638 7.48267C5.42377 7.48267 5.29659 7.53534 5.20282 7.62911C5.10906 7.72288 5.05638 7.85006 5.05638 7.98267C5.05638 8.11527 5.10906 8.24245 5.20282 8.33622C5.29659 8.42999 5.42377 8.48267 5.55638 8.48267C6.08681 8.48267 6.59552 8.69338 6.97059 9.06845C7.34566 9.44353 7.55638 9.95223 7.55638 10.4827C7.55638 11.0131 7.34566 11.5218 6.97059 11.8969C6.59552 12.272 6.08681 12.4827 5.55638 12.4827ZM12.0564 9.73267H11.5564C11.4238 9.73267 11.2966 9.78534 11.2028 9.87911C11.1091 9.97288 11.0564 10.1001 11.0564 10.2327C11.0564 10.3653 11.1091 10.4925 11.2028 10.5862C11.2966 10.68 11.4238 10.7327 11.5564 10.7327H12.0564C12.2197 10.7324 12.3828 10.7207 12.5445 10.6977C12.503 11.0818 12.351 11.4457 12.1071 11.7454C11.8631 12.045 11.5376 12.2676 11.1698 12.3862C10.802 12.5048 10.4078 12.5142 10.0347 12.4135C9.6617 12.3128 9.32582 12.1062 9.06771 11.8186C8.8096 11.531 8.64032 11.1749 8.58034 10.7931C8.52035 10.4114 8.57223 10.0205 8.7297 9.66763C8.88716 9.31477 9.14348 9.01507 9.46765 8.80478C9.79182 8.59449 10.17 8.48261 10.5564 8.48267C10.689 8.48267 10.8162 8.42999 10.9099 8.33622C11.0037 8.24245 11.0564 8.11527 11.0564 7.98267C11.0564 7.85006 11.0037 7.72288 10.9099 7.62911C10.8162 7.53534 10.689 7.48267 10.5564 7.48267C9.81792 7.48212 9.10543 7.7551 8.55638 8.24892V3.98267C8.55638 3.45223 8.76709 2.94353 9.14216 2.56845C9.51724 2.19338 10.0259 1.98267 10.5564 1.98267C11.0868 1.98267 11.5955 2.19338 11.9706 2.56845C12.3457 2.94353 12.5564 3.45223 12.5564 3.98267V4.40329C12.5564 4.50664 12.5884 4.60744 12.6481 4.69183C12.7077 4.77622 12.7921 4.84005 12.8895 4.87454C13.4463 5.07056 13.9157 5.45727 14.2148 5.9662C14.5138 6.47512 14.6231 7.07344 14.5233 7.65523C14.4236 8.23701 14.1211 8.76472 13.6696 9.14494C13.2181 9.52516 12.6467 9.73336 12.0564 9.73267ZM13.0564 6.48267C13.0564 6.61527 13.0037 6.74245 12.9099 6.83622C12.8162 6.92999 12.689 6.98267 12.5564 6.98267H12.3064C11.7096 6.98267 11.1373 6.74561 10.7154 6.32366C10.2934 5.9017 10.0564 5.3294 10.0564 4.73267V4.48267C10.0564 4.35006 10.1091 4.22288 10.2028 4.12911C10.2966 4.03534 10.4238 3.98267 10.5564 3.98267C10.689 3.98267 10.8162 4.03534 10.9099 4.12911C11.0037 4.22288 11.0564 4.35006 11.0564 4.48267V4.73267C11.0564 5.06419 11.1881 5.38213 11.4225 5.61655C11.6569 5.85097 11.9749 5.98267 12.3064 5.98267H12.5564C12.689 5.98267 12.8162 6.03534 12.9099 6.12911C13.0037 6.22288 13.0564 6.35006 13.0564 6.48267ZM3.80638 6.98267H3.55638C3.42377 6.98267 3.29659 6.92999 3.20282 6.83622C3.10906 6.74245 3.05638 6.61527 3.05638 6.48267C3.05638 6.35006 3.10906 6.22288 3.20282 6.12911C3.29659 6.03534 3.42377 5.98267 3.55638 5.98267H3.80638C4.1379 5.98267 4.45584 5.85097 4.69026 5.61655C4.92468 5.38213 5.05638 5.06419 5.05638 4.73267V4.48267C5.05638 4.35006 5.10906 4.22288 5.20282 4.12911C5.29659 4.03534 5.42377 3.98267 5.55638 3.98267C5.68899 3.98267 5.81616 4.03534 5.90993 4.12911C6.0037 4.22288 6.05638 4.35006 6.05638 4.48267V4.73267C6.05638 5.3294 5.81932 5.9017 5.39737 6.32366C4.97541 6.74561 4.40311 6.98267 3.80638 6.98267Z" fill="#FFC727"/>
</g>
</svg>
