<svg width="25" height="25" viewBox="0 0 25 25" fill="none" xmlns="http://www.w3.org/2000/svg">
<g id="Simplification" clip-path="url(#clip0_906_1150)">
<path id="Vector" d="M11.4697 6.09717C11.5878 6.09741 11.7058 6.09764 11.8274 6.09789C11.9454 6.09765 12.0635 6.09741 12.1851 6.09717C12.4736 6.10943 12.4736 6.10943 12.5659 6.20174C12.5752 6.41995 12.5788 6.63541 12.5781 6.85366C12.5782 6.91887 12.5783 6.98409 12.5784 7.05128C12.5785 7.1894 12.5783 7.32752 12.5779 7.46565C12.5774 7.67776 12.5779 7.88986 12.5785 8.10198C12.5784 8.23587 12.5783 8.36976 12.5781 8.50366C12.5783 8.5675 12.5785 8.63135 12.5787 8.69713C12.5765 9.14497 12.5765 9.14497 12.4736 9.24789C12.3028 9.27548 12.1315 9.29993 11.9601 9.32289C11.1972 9.44597 10.6257 9.71113 10.0736 10.2633C9.5173 11.1092 9.32572 11.8321 9.42741 12.8479C9.64525 13.7041 10.0791 14.3117 10.8001 14.8145C11.2556 15.0739 11.7333 15.1425 12.2482 15.2115C12.4736 15.2479 12.4736 15.2479 12.5659 15.3402C12.5752 15.5651 12.5788 15.7874 12.5781 16.0123C12.5782 16.0796 12.5783 16.1468 12.5784 16.2161C12.5785 16.3586 12.5783 16.5011 12.5779 16.6435C12.5774 16.8623 12.5779 17.0811 12.5785 17.2999C12.5784 17.438 12.5783 17.5761 12.5781 17.7142C12.5784 17.813 12.5784 17.813 12.5787 17.9138C12.5765 18.3757 12.5765 18.3757 12.4736 18.4787C12.24 18.4854 12.009 18.4872 11.7755 18.4844C11.677 18.4838 11.677 18.4838 11.5766 18.4832C11.4141 18.4821 11.2515 18.4804 11.0889 18.4787C11.0268 18.3308 10.9654 18.1827 10.9043 18.0344C10.8701 17.952 10.8358 17.8695 10.8005 17.7845C10.7197 17.5556 10.7197 17.5556 10.7197 17.2787C10.5355 17.2159 10.3508 17.1545 10.1659 17.094C10.1064 17.072 10.0469 17.05 9.98558 17.0273C9.72554 16.9921 9.63556 17.0796 9.42741 17.2325C9.10658 17.4681 9.10658 17.4681 8.86346 17.4438C8.59012 17.3297 8.43125 17.1225 8.22741 16.9094C8.10319 16.8008 7.97814 16.6932 7.85241 16.5863C7.30437 16.1068 7.30437 16.1068 7.11971 15.8017C7.11971 15.4689 7.20485 15.3488 7.41971 15.0921C7.59768 14.7552 7.60224 14.6684 7.52933 14.3075C7.45663 14.063 7.45663 14.063 7.30433 13.8633C6.97412 13.7033 6.64849 13.6467 6.28894 13.5864C6.19664 13.494 6.19664 13.494 6.18616 13.2548C6.18664 13.1508 6.18712 13.0469 6.18762 12.9398C6.18792 12.8277 6.18822 12.7155 6.18852 12.6C6.1893 12.4819 6.19007 12.3638 6.19087 12.2421C6.19128 12.1237 6.1917 12.0052 6.19213 11.8832C6.19322 11.5894 6.19474 11.2955 6.19664 11.0017C6.31524 10.957 6.43388 10.9123 6.55253 10.8676C6.65162 10.8303 6.65162 10.8303 6.75271 10.7921C6.88365 10.7438 7.01579 10.6986 7.14856 10.6556C7.41623 10.4573 7.48171 10.2031 7.58125 9.89404C7.56695 9.59363 7.5004 9.45056 7.33894 9.19597C7.21202 8.97097 7.21202 8.97097 7.22924 8.7962C7.38801 8.38503 7.75975 8.09515 8.06587 7.78827C8.13643 7.71432 8.20699 7.64037 8.27969 7.56418C8.34858 7.49474 8.41748 7.42531 8.48846 7.35378C8.5512 7.2899 8.61394 7.22603 8.67858 7.16022C8.87356 7.0325 8.87356 7.0325 9.11758 7.0492C9.3351 7.12481 9.3351 7.12481 9.50817 7.27481C9.70991 7.43263 9.70991 7.43263 10.0216 7.38443C10.1844 7.3473 10.1844 7.3473 10.3505 7.30943C10.4343 7.2961 10.518 7.28277 10.6043 7.26904C10.9168 7.05206 10.947 6.76523 11.0356 6.40618C11.1178 6.09127 11.129 6.11165 11.4697 6.09717Z" fill="black"/>
<path id="Vector_2" d="M15.612 7.21698C15.785 7.31505 15.785 7.31505 15.8889 7.4939C15.9319 7.74841 15.936 7.97824 15.8889 8.23236C15.687 8.48089 15.558 8.50369 15.2427 8.54967C14.9658 8.50928 14.9658 8.50928 14.7927 8.32467C14.6192 8.12377 14.6192 8.12377 14.4159 8.12202C14.3496 8.12417 14.2834 8.12631 14.2151 8.12851C14.0973 8.13232 13.9795 8.13613 13.8581 8.14005C13.7301 9.23321 13.7301 9.23321 14.0193 10.2462C14.2049 10.3994 14.3867 10.5161 14.5966 10.6324C14.627 10.6933 14.6575 10.7542 14.6889 10.817C15.2981 10.8474 15.9073 10.8779 16.535 10.9093C16.5255 10.7627 16.516 10.6161 16.5062 10.4651C16.5008 10.3826 16.4955 10.3001 16.49 10.2152C16.4356 9.95173 16.3568 9.88823 16.1658 9.70928C16.1198 9.34743 16.1148 9.14474 16.31 8.83236C16.535 8.6939 16.535 8.6939 16.8639 8.69967C17.1812 8.78621 17.1812 8.78621 17.36 8.89005C17.5177 9.16828 17.4915 9.39737 17.4581 9.70928C17.3312 9.88813 17.3312 9.88813 17.1812 9.98621C17.1203 9.98621 17.0593 9.98621 16.9966 9.98621C17.0009 10.063 17.0051 10.1397 17.0096 10.2188C17.0129 10.3191 17.0162 10.4194 17.0197 10.5227C17.0239 10.6223 17.0282 10.7219 17.0326 10.8245C16.9966 11.0939 16.9966 11.0939 16.8639 11.267C16.5034 11.4252 16.1622 11.4 15.7735 11.3881C15.6959 11.3869 15.6183 11.3856 15.5384 11.3843C15.3475 11.3811 15.1567 11.3761 14.9658 11.3708C15.0115 11.6907 15.0115 11.6907 15.0581 12.017C15.3429 12.0149 15.6273 12.0077 15.912 11.9997C15.9925 11.9991 16.0731 11.9986 16.1561 11.998C16.6537 11.9881 16.6537 11.9881 17.0413 11.695C17.1105 11.5802 17.1105 11.5802 17.1812 11.4631C17.4719 11.3178 17.6907 11.3387 18.012 11.3708C18.3293 11.5554 18.3293 11.5554 18.5658 11.8324C18.6347 12.0932 18.6292 12.3092 18.5658 12.5708C18.4002 12.8302 18.2871 12.9871 18.012 13.1247C17.6276 13.1609 17.4271 13.1625 17.0947 12.9574C16.9043 12.7554 16.9043 12.7554 16.9043 12.4785C16.295 12.4785 15.6858 12.4785 15.0581 12.4785C15.0277 12.6917 14.9972 12.905 14.9658 13.1247C15.0804 13.1193 15.195 13.114 15.313 13.1084C15.4646 13.1041 15.6162 13.0999 15.7677 13.0958C15.8431 13.092 15.9185 13.0881 15.9962 13.0841C16.3969 13.076 16.5742 13.0863 16.9082 13.3277C17.1002 13.6024 17.1436 13.7298 17.1466 14.0593C17.1415 14.3925 17.1415 14.3925 17.3189 14.656C17.3649 14.699 17.4108 14.742 17.4581 14.7862C17.5043 15.1035 17.5043 15.1035 17.4581 15.4324C17.2349 15.6811 17.0882 15.7837 16.76 15.8477C16.4497 15.7841 16.3459 15.6925 16.1658 15.4324C16.1254 15.1035 16.1254 15.1035 16.1658 14.7862C16.211 14.7438 16.2562 14.7015 16.3028 14.6578C16.4939 14.455 16.4884 14.3048 16.5062 14.0304C16.5123 13.9473 16.5183 13.8641 16.5246 13.7784C16.528 13.715 16.5315 13.6516 16.535 13.5862C16.2387 13.5829 15.9429 13.5868 15.6466 13.592C15.5215 13.5905 15.5215 13.5905 15.3938 13.5889C14.9185 13.5967 14.9185 13.5967 14.5152 13.8216C14.3684 13.9913 14.3684 13.9913 14.2496 14.1683C14.135 14.3247 14.135 14.3247 13.8581 14.5093C13.8113 14.7051 13.8113 14.7051 13.8109 14.9312C13.8076 15.0139 13.8043 15.0966 13.801 15.1818C13.7989 15.2683 13.7968 15.3548 13.7947 15.4439C13.7915 15.5311 13.7883 15.6183 13.7851 15.7082C13.7775 15.9239 13.7711 16.1396 13.7658 16.3554C13.9139 16.3458 14.062 16.3362 14.21 16.3266C14.2925 16.3212 14.375 16.3159 14.4599 16.3104C14.7225 16.2562 14.7892 16.1786 14.9658 15.9862C15.2667 15.9478 15.459 15.9607 15.7389 16.0785C15.9326 16.3169 15.9465 16.5193 15.9304 16.822C15.8889 17.0016 15.8889 17.0016 15.6927 17.2381C15.4273 17.3708 15.4273 17.3708 15.1331 17.3708C14.8735 17.2785 14.8735 17.2785 14.765 17.0881C14.7399 17.0291 14.7148 16.9701 14.6889 16.9093C14.6199 16.9136 14.5509 16.9179 14.4797 16.9223C13.7301 16.9497 13.7301 16.9497 13.4312 16.7362C13.178 16.345 13.2014 16.0137 13.2062 15.5593C13.2066 15.4853 13.207 15.4113 13.2075 15.335C13.2085 15.1521 13.2102 14.9691 13.212 14.7862C13.1206 14.8167 13.0292 14.8471 12.935 14.8785C12.0969 14.9563 11.3724 14.8754 10.6959 14.3463C10.5018 14.1644 10.3325 13.9779 10.1658 13.7708C10.1237 13.7191 10.0816 13.6673 10.0382 13.614C9.64807 13.007 9.71045 12.1542 9.79658 11.4631C9.88371 11.1555 9.98001 10.993 10.1658 10.7247C10.221 10.6428 10.2762 10.5609 10.3331 10.4766C10.8016 9.98129 11.3114 9.63647 12.0044 9.5957C12.1358 9.59607 12.2671 9.59741 12.3985 9.59967C12.4653 9.59973 12.5321 9.59979 12.601 9.59985C13.0936 9.60397 13.0936 9.60397 13.3043 9.70928C13.3023 9.65809 13.3004 9.60689 13.2984 9.55415C13.2907 9.32126 13.2859 9.0884 13.2812 8.85544C13.2781 8.77488 13.275 8.69433 13.2718 8.61133C13.2628 8.02039 13.2628 8.02039 13.4572 7.71601C13.7268 7.55421 13.8919 7.54826 14.2043 7.56313C14.3406 7.56813 14.3406 7.56813 14.4797 7.57323C14.5833 7.57965 14.5833 7.57965 14.6889 7.58621C14.7155 7.52719 14.7422 7.46817 14.7697 7.40736C14.9768 7.02767 15.2343 7.12449 15.612 7.21698Z" fill="#FFC727"/>
<path id="Vector_3" d="M11.4697 6.09717C11.5878 6.09741 11.7058 6.09764 11.8274 6.09789C11.9454 6.09765 12.0635 6.09741 12.1851 6.09717C12.4736 6.10943 12.4736 6.10943 12.5659 6.20174C12.5752 6.41995 12.5788 6.63541 12.5781 6.85366C12.5782 6.91887 12.5783 6.98409 12.5784 7.05128C12.5785 7.1894 12.5783 7.32752 12.5779 7.46565C12.5774 7.67776 12.5779 7.88986 12.5785 8.10198C12.5784 8.23587 12.5783 8.36976 12.5781 8.50366C12.5783 8.5675 12.5785 8.63135 12.5787 8.69713C12.5765 9.14497 12.5765 9.14497 12.4736 9.24789C12.3028 9.27548 12.1315 9.29993 11.9601 9.32289C11.1972 9.44597 10.6257 9.71113 10.0736 10.2633C9.5173 11.1092 9.32572 11.8321 9.42741 12.8479C9.64525 13.7041 10.0791 14.3117 10.8001 14.8145C11.2556 15.0739 11.7333 15.1425 12.2482 15.2115C12.4736 15.2479 12.4736 15.2479 12.5659 15.3402C12.5752 15.5651 12.5788 15.7874 12.5781 16.0123C12.5782 16.0796 12.5783 16.1468 12.5784 16.2161C12.5785 16.3586 12.5783 16.5011 12.5779 16.6435C12.5774 16.8623 12.5779 17.0811 12.5785 17.2999C12.5784 17.438 12.5783 17.5761 12.5781 17.7142C12.5784 17.813 12.5784 17.813 12.5787 17.9138C12.5765 18.3757 12.5765 18.3757 12.4736 18.4787C12.24 18.4854 12.009 18.4872 11.7755 18.4844C11.677 18.4838 11.677 18.4838 11.5766 18.4832C11.4141 18.4821 11.2515 18.4804 11.0889 18.4787C11.0268 18.3308 10.9654 18.1827 10.9043 18.0344C10.8701 17.952 10.8358 17.8695 10.8005 17.7845C10.7197 17.5556 10.7197 17.5556 10.7197 17.2787C10.5355 17.2159 10.3508 17.1545 10.1659 17.094C10.1064 17.072 10.0469 17.05 9.98558 17.0273C9.72554 16.9921 9.63556 17.0796 9.42741 17.2325C9.10658 17.4681 9.10658 17.4681 8.86346 17.4438C8.59012 17.3297 8.43125 17.1225 8.22741 16.9094C8.10319 16.8008 7.97814 16.6932 7.85241 16.5864C7.30437 16.1068 7.30437 16.1068 7.11971 15.8017C7.11971 15.4689 7.20485 15.3488 7.41971 15.0921C7.59768 14.7552 7.60224 14.6684 7.52933 14.3075C7.45663 14.063 7.45663 14.063 7.30433 13.8633C6.97412 13.7033 6.64849 13.6467 6.28894 13.5864C6.19664 13.494 6.19664 13.494 6.18616 13.2548C6.18664 13.1508 6.18712 13.0469 6.18762 12.9398C6.18792 12.8277 6.18822 12.7155 6.18852 12.6C6.1893 12.4819 6.19007 12.3638 6.19087 12.2421C6.19128 12.1237 6.1917 12.0052 6.19213 11.8832C6.19322 11.5894 6.19474 11.2955 6.19664 11.0017C6.31524 10.957 6.43388 10.9123 6.55253 10.8676C6.65162 10.8303 6.65162 10.8303 6.75271 10.7922C6.88365 10.7438 7.01579 10.6986 7.14856 10.6556C7.41623 10.4573 7.48171 10.2031 7.58125 9.89404C7.56695 9.59363 7.5004 9.45056 7.33894 9.19597C7.21202 8.97097 7.21202 8.97097 7.22924 8.7962C7.38801 8.38503 7.75975 8.09515 8.06587 7.78827C8.13643 7.71432 8.20699 7.64037 8.27969 7.56418C8.34858 7.49474 8.41748 7.42531 8.48846 7.35378C8.5512 7.2899 8.61394 7.22603 8.67858 7.16022C8.87356 7.0325 8.87356 7.0325 9.11758 7.0492C9.3351 7.12481 9.3351 7.12481 9.50817 7.27481C9.70991 7.43263 9.70991 7.43263 10.0216 7.38443C10.1844 7.3473 10.1844 7.3473 10.3505 7.30943C10.4343 7.2961 10.518 7.28277 10.6043 7.26904C10.9168 7.05206 10.947 6.76523 11.0356 6.40618C11.1178 6.09127 11.129 6.11165 11.4697 6.09717ZM11.4582 6.57097C11.451 6.63225 11.4439 6.69353 11.4365 6.75666C11.3826 7.03643 11.3217 7.24495 11.1813 7.49404C10.7721 7.76919 10.3223 7.98128 9.82224 7.92962C9.61202 7.86327 9.61202 7.86327 9.37548 7.7075C9.30123 7.66752 9.22698 7.62754 9.15048 7.58635C8.77044 7.70641 8.5203 8.01118 8.25048 8.2902C8.20372 8.33779 8.15696 8.38539 8.10878 8.43443C7.99405 8.55132 7.8799 8.66878 7.76587 8.78635C7.8636 9.10049 7.95132 9.34145 8.1351 9.61712C8.10842 9.83563 8.10842 9.83563 8.04279 10.0787C8.02494 10.157 8.00709 10.2352 7.9887 10.3159C7.90802 10.5772 7.83164 10.7775 7.67356 11.0017C7.32995 11.1681 7.04047 11.2149 6.65817 11.2787C6.65817 11.9184 6.65817 12.558 6.65817 13.2171C6.96279 13.278 7.26741 13.339 7.58125 13.4017C7.7593 13.7044 7.85322 13.9088 7.95048 14.2325C7.99808 14.3258 8.04567 14.4191 8.09471 14.5152C8.14362 14.8436 8.08485 14.9 7.90433 15.1671C7.85768 15.2264 7.81104 15.2856 7.76298 15.3467C7.65173 15.5194 7.65173 15.5194 7.71899 15.6986C7.91128 15.9686 8.14 16.1952 8.37741 16.4248C8.425 16.4716 8.4726 16.5183 8.52164 16.5665C8.63853 16.6812 8.75599 16.7954 8.87356 16.9094C9.20313 16.7816 9.20313 16.7816 9.51394 16.6152C9.7978 16.5034 9.96346 16.5547 10.2582 16.6325C10.3277 16.6501 10.3972 16.6677 10.4688 16.6859C10.7132 16.7668 10.8868 16.8408 11.0889 17.0017C11.2403 17.3321 11.3121 17.6589 11.3659 18.0171C11.6096 18.0171 11.8533 18.0171 12.1043 18.0171C12.1043 17.2556 12.1043 16.494 12.1043 15.7094C11.7388 15.618 11.3733 15.5267 10.9966 15.4325C10.101 15.0272 9.49418 14.3814 9.1101 13.4825C8.82382 12.6039 8.82208 11.5599 9.24279 10.7248C9.71549 9.83396 10.388 9.30261 11.3237 8.94573C11.5784 8.87041 11.8424 8.83001 12.1043 8.78635C12.1043 8.05527 12.1043 7.3242 12.1043 6.57097C11.8911 6.57097 11.6779 6.57097 11.4582 6.57097Z" fill="#FFC727"/>
<path id="Vector_4" d="M13.4313 10.2631C13.9639 10.5645 14.239 10.9796 14.5389 11.4977C14.7122 12.2252 14.6176 12.8562 14.2274 13.4938C13.7975 13.9882 13.3403 14.3689 12.6737 14.4479C11.9455 14.4575 11.441 14.3879 10.9069 13.8717C10.3223 13.2284 10.198 12.7716 10.2236 11.8976C10.2942 11.1988 10.6769 10.8143 11.1957 10.3763C11.8666 9.92996 12.7091 9.9386 13.4313 10.2631Z" fill="black"/>
<path id="Vector_5" d="M17.6832 11.8149C17.9197 11.8322 17.9197 11.8322 18.1043 12.0169C18.0697 12.3053 18.0697 12.3053 18.012 12.5707C17.7986 12.6342 17.7986 12.6342 17.5505 12.663C17.3774 12.5592 17.3774 12.5592 17.2736 12.3861C17.3253 11.8425 17.3253 11.8425 17.6832 11.8149Z" fill="black"/>
</g>
<defs>
<clipPath id="clip0_906_1150">
<rect width="24" height="24.0923" fill="white" transform="translate(0.381226 0.293945)"/>
</clipPath>
</defs>
</svg>
