<svg width="25" height="25" viewBox="0 0 25 25" fill="none" xmlns="http://www.w3.org/2000/svg">
<g id="ri:hourglass-fill">
<path id="Vector" d="M6.61853 4.3047H4.61853V2.3047H20.6185V4.3047H18.6185V6.3047C18.6185 7.9197 17.8025 9.2197 16.7745 10.2817C16.0715 11.0077 15.2165 11.6767 14.3495 12.3047C15.2165 12.9327 16.0715 13.6017 16.7745 14.3277C17.8025 15.3897 18.6185 16.6897 18.6185 18.3047V20.3047H20.6185V22.3047H4.61853V20.3047H6.61853V18.3047C6.61853 16.6897 7.43453 15.3897 8.46253 14.3277C9.16553 13.6017 10.0205 12.9327 10.8875 12.3047C10.0205 11.6767 9.16553 11.0077 8.46253 10.2817C7.43453 9.2197 6.61853 7.9197 6.61853 6.3047V4.3047ZM8.61853 4.3047V6.3047C8.61853 6.9897 8.87853 7.6397 9.38953 8.3047H15.8475C16.3575 7.6397 16.6185 6.9897 16.6185 6.3047V4.3047H8.61853ZM12.6185 13.5267C11.5735 14.2647 10.6265 14.9677 9.89953 15.7187C9.71881 15.9044 9.54855 16.1001 9.38953 16.3047H15.8475C15.6885 16.1001 15.5182 15.9044 15.3375 15.7187C14.6105 14.9677 13.6635 14.2647 12.6185 13.5267Z" fill="#A69C42"/>
</g>
</svg>
