<svg width="24" height="24" viewBox="0 0 24 24" fill="none" xmlns="http://www.w3.org/2000/svg">
<g clip-path="url(#clip0_454_6179)">
<path d="M1.23678 0.538382C1.31491 0.537778 1.39303 0.537173 1.47352 0.53655C1.55886 0.536841 1.6442 0.537131 1.73213 0.53743C1.82317 0.537005 1.9142 0.536581 2.008 0.536143C2.31388 0.534954 2.61974 0.53511 2.92561 0.535264C3.14458 0.534704 3.36355 0.534066 3.58252 0.533356C4.17794 0.531697 4.77336 0.53126 5.36879 0.531141C5.86551 0.530963 6.36223 0.530273 6.85895 0.529608C7.9637 0.528141 9.06845 0.527608 10.1732 0.527734C10.2395 0.527742 10.3058 0.527749 10.3741 0.527757C10.4736 0.527769 10.4736 0.527769 10.5752 0.52778C11.6509 0.527857 12.7265 0.526062 13.8022 0.523419C14.9067 0.520726 16.0112 0.51943 17.1158 0.519593C17.7359 0.51964 18.356 0.519103 18.9761 0.517122C19.5592 0.515309 20.1423 0.51529 20.7254 0.516656C20.9395 0.516852 21.1537 0.516407 21.3678 0.515276C21.6599 0.513833 21.9519 0.514696 22.2441 0.516144C22.329 0.51518 22.4139 0.514215 22.5014 0.513222C23.113 0.519931 23.4435 0.674046 23.8923 1.10355C24.0487 1.40685 24.0391 1.69735 24.0363 2.03067C24.0371 2.13977 24.0371 2.13977 24.0379 2.25106C24.0392 2.49498 24.0385 2.73885 24.0379 2.98277C24.0384 3.15755 24.0391 3.33234 24.0398 3.50712C24.0415 3.98207 24.0414 4.457 24.0409 4.93195C24.0406 5.32826 24.0411 5.72456 24.0417 6.12087C24.043 7.0557 24.0429 7.99053 24.0418 8.92536C24.0407 9.89022 24.0421 10.855 24.0446 11.8199C24.0466 12.6479 24.0473 13.476 24.0467 14.304C24.0464 14.7987 24.0466 15.2934 24.0482 15.7881C24.0497 16.2533 24.0493 16.7184 24.0476 17.1836C24.0472 17.3544 24.0475 17.5251 24.0485 17.6959C24.0497 17.929 24.0486 18.1619 24.047 18.3949C24.0479 18.4626 24.0488 18.5303 24.0497 18.6C24.0431 19.0504 23.9463 19.2794 23.625 19.5938C23.1565 19.8517 22.7488 19.915 22.223 19.9069C22.1516 19.907 22.0801 19.907 22.0066 19.9071C21.7727 19.9069 21.5389 19.9047 21.3051 19.9025C21.142 19.9019 20.979 19.9015 20.816 19.9013C20.3886 19.9002 19.9613 19.8974 19.5339 19.8943C19.0971 19.8914 18.6603 19.8902 18.2236 19.8887C17.3678 19.8857 16.512 19.8809 15.6562 19.875C15.6639 20.1778 15.6744 20.4805 15.6855 20.7832C15.6877 20.8687 15.6898 20.9542 15.692 21.0423C15.7104 21.5036 15.7244 21.8493 16.0312 22.2188C16.4764 22.5156 16.8953 22.5134 17.4218 22.5297C17.5429 22.5336 17.6641 22.5375 17.7889 22.5416C17.9159 22.5453 18.0429 22.549 18.1699 22.5527C18.2988 22.5568 18.4276 22.5609 18.5565 22.565C18.871 22.5749 19.1855 22.5845 19.5 22.5938C19.6113 22.8047 19.6113 22.8047 19.6875 23.0625C19.5888 23.2631 19.5888 23.2631 19.4062 23.4375C19.1411 23.485 19.1411 23.485 18.812 23.4858C18.7514 23.4864 18.6909 23.4871 18.6286 23.4877C18.4254 23.4894 18.2222 23.4885 18.019 23.4875C17.8735 23.4882 17.728 23.489 17.5825 23.49C17.187 23.4921 16.7915 23.4918 16.3959 23.491C16.066 23.4905 15.7361 23.4912 15.4062 23.4919C14.6281 23.4934 13.85 23.4931 13.0719 23.4915C12.2684 23.49 11.465 23.4914 10.6616 23.4945C9.97233 23.497 9.28309 23.4977 8.59382 23.4969C8.18191 23.4964 7.77002 23.4966 7.3581 23.4985C6.97087 23.5002 6.58371 23.4997 6.19649 23.4974C6.0542 23.4969 5.9119 23.4972 5.76961 23.4984C5.57567 23.4999 5.38195 23.4985 5.18802 23.4964C5.07941 23.4963 4.9708 23.4963 4.8589 23.4962C4.59375 23.4375 4.59375 23.4375 4.41122 23.213C4.3125 22.9688 4.3125 22.9688 4.38867 22.752C4.42541 22.6997 4.46215 22.6475 4.5 22.5938C4.62264 22.5917 4.62264 22.5917 4.74776 22.5896C5.05374 22.5839 5.35965 22.5769 5.66558 22.5691C5.7975 22.566 5.92943 22.5634 6.06136 22.5613C6.25202 22.5581 6.44257 22.5532 6.63318 22.548C6.74757 22.5455 6.86196 22.5431 6.97982 22.5405C7.44699 22.4836 7.82003 22.3791 8.14636 22.0272C8.29992 21.6165 8.30368 21.2186 8.31445 20.7832C8.31765 20.6959 8.32086 20.6086 8.32416 20.5186C8.33186 20.3041 8.33835 20.0896 8.34375 19.875C8.2536 19.8756 8.16344 19.8763 8.07055 19.8769C7.21953 19.8826 6.3685 19.8868 5.51746 19.8896C5.07996 19.891 4.64248 19.893 4.20499 19.8962C3.78253 19.8993 3.36007 19.901 2.93759 19.9017C2.77669 19.9022 2.61578 19.9032 2.45488 19.9047C2.22891 19.9068 2.003 19.9071 1.77701 19.9069C1.711 19.9079 1.64498 19.909 1.57696 19.91C1.01955 19.9065 0.575615 19.7902 0.171455 19.3944C-0.0433294 19.0569 -0.0526814 18.7837 -0.0482504 18.3962C-0.0489016 18.3234 -0.0495527 18.2507 -0.0502236 18.1758C-0.051937 17.9323 -0.050974 17.689 -0.0500114 17.4456C-0.0506731 17.2709 -0.0514929 17.0963 -0.052459 16.9216C-0.0545698 16.4475 -0.0542917 15.9733 -0.0534601 15.4991C-0.0529813 15.1033 -0.0536645 14.7075 -0.0543481 14.3116C-0.0559424 13.3778 -0.0556068 12.444 -0.0540397 11.5102C-0.0524532 10.5468 -0.053938 9.58341 -0.0569669 8.62C-0.059469 7.79283 -0.0601519 6.96568 -0.059356 6.13851C-0.0588937 5.64448 -0.0591027 5.15048 -0.0610237 4.65645C-0.0627436 4.19189 -0.0621873 3.72738 -0.05988 3.26283C-0.0594101 3.09238 -0.0597384 2.92194 -0.0609251 2.7515C-0.0624179 2.51867 -0.0610179 2.28604 -0.0588934 2.05322C-0.060003 1.98587 -0.0611126 1.91852 -0.0622559 1.84913C-0.0524597 1.32021 0.102769 1.10524 0.468749 0.750001C0.734038 0.590282 0.928589 0.538987 1.23678 0.538382ZM0.937499 1.5C0.818484 1.73803 0.832217 1.90264 0.832475 2.16917C0.832346 2.27098 0.832217 2.37278 0.832084 2.47767C0.832421 2.5903 0.832759 2.70292 0.833106 2.81896C0.833095 2.93885 0.833084 3.05875 0.833072 3.18228C0.833051 3.50723 0.833595 3.83218 0.834254 4.15713C0.834787 4.46181 0.834813 4.76649 0.83488 5.07118C0.835372 5.96282 0.836681 6.85446 0.83789 7.7461C0.839823 9.7377 0.841757 11.7293 0.843749 13.7813C8.20687 13.7813 15.57 13.7813 23.1562 13.7813C23.1582 11.7897 23.1601 9.79805 23.1621 7.7461C23.163 7.11642 23.1638 6.48675 23.1647 5.838C23.165 5.2753 23.165 5.2753 23.1652 4.7126C23.1653 4.46127 23.1656 4.20996 23.1661 3.95864C23.1669 3.57874 23.1669 3.19885 23.1669 2.81896C23.1672 2.70633 23.1676 2.59371 23.1679 2.47767C23.1677 2.32497 23.1677 2.32497 23.1675 2.16917C23.1676 2.08016 23.1677 1.99115 23.1678 1.89945C23.1702 1.68426 23.1702 1.68426 23.0625 1.5C22.6858 1.37443 22.3235 1.39336 21.9307 1.39435C21.8426 1.3942 21.7545 1.39405 21.6638 1.3939C21.3673 1.39353 21.0709 1.39383 20.7744 1.39412C20.5624 1.39399 20.3504 1.39383 20.1383 1.39362C19.5615 1.39319 18.9847 1.39336 18.4079 1.39366C17.8052 1.3939 17.2025 1.39368 16.5998 1.39353C15.5226 1.39335 14.4455 1.39364 13.3683 1.39412C12.3912 1.39453 11.4141 1.39446 10.437 1.39403C9.30294 1.39353 8.16887 1.39334 7.0348 1.39362C6.43426 1.39376 5.83372 1.39378 5.23318 1.39347C4.66868 1.3932 4.10419 1.39339 3.5397 1.39393C3.3321 1.39406 3.1245 1.39402 2.9169 1.39381C2.63435 1.39356 2.35182 1.39388 2.06927 1.39435C1.94494 1.39403 1.94494 1.39403 1.8181 1.39371C1.5012 1.39474 1.24024 1.39909 0.937499 1.5ZM0.843749 14.625C0.843749 15.9863 0.843749 17.3475 0.843749 18.75C1.09523 19.0015 1.28691 18.9604 1.62875 18.9626C1.71343 18.9622 1.79812 18.9617 1.88537 18.9613C1.97498 18.9616 2.06459 18.9619 2.15692 18.9622C2.45907 18.963 2.7612 18.9624 3.06335 18.9618C3.27921 18.962 3.49506 18.9624 3.71091 18.9628C4.29858 18.9636 4.88624 18.9633 5.47391 18.9627C6.08766 18.9622 6.70142 18.9627 7.31518 18.9629C8.41217 18.9634 9.50915 18.9627 10.6061 18.9618C11.6015 18.9609 12.5968 18.9611 13.5922 18.9619C14.7471 18.9629 15.9019 18.9633 17.0568 18.9628C17.6685 18.9625 18.2802 18.9624 18.8919 18.9631C19.4669 18.9636 20.0418 18.9632 20.6168 18.9621C20.8284 18.9619 21.0399 18.962 21.2515 18.9624C21.5392 18.9629 21.8269 18.9623 22.1146 18.9613C22.2417 18.9619 22.2417 18.9619 22.3712 18.9626C22.8089 18.9809 22.8089 18.9809 23.1562 18.75C23.1562 17.3888 23.1562 16.0275 23.1562 14.625C15.7931 14.625 8.43 14.625 0.843749 14.625ZM9.28125 19.875C9.25031 20.4009 9.21937 20.9269 9.1875 21.4688C9.11473 21.8599 9.03154 22.2179 8.90625 22.5938C10.9481 22.5938 12.99 22.5938 15.0937 22.5938C15.0009 22.3617 15.0009 22.3617 14.9062 22.125C14.7998 21.38 14.7629 20.6263 14.7187 19.875C12.9244 19.875 11.13 19.875 9.28125 19.875Z" fill="#FFC727"/>
<path d="M21.1758 2.50781C21.3204 2.50419 21.3204 2.50419 21.468 2.50049C21.8777 2.54518 22.1191 2.71286 22.4063 3C22.4306 3.17696 22.4306 3.17696 22.432 3.39666C22.4334 3.52145 22.4334 3.52145 22.4348 3.64877C22.4349 3.74028 22.4349 3.83179 22.435 3.92608C22.4358 4.02228 22.4365 4.11848 22.4373 4.2176C22.4396 4.53695 22.4404 4.85629 22.441 5.17566C22.4419 5.39707 22.4427 5.61848 22.4436 5.83989C22.4452 6.30465 22.4459 6.7694 22.4462 7.23415C22.4467 7.83001 22.4502 8.42581 22.4545 9.02165C22.4573 9.47919 22.4579 9.93672 22.458 10.3943C22.4584 10.6139 22.4596 10.8336 22.4615 11.0533C22.4641 11.3606 22.4636 11.6677 22.4624 11.975C22.4638 12.066 22.4652 12.1569 22.4667 12.2506C22.462 12.6786 22.4521 12.8757 22.1907 13.2281C21.8589 13.4615 21.5793 13.4757 21.1875 13.4648C21.122 13.4667 21.0565 13.4685 20.989 13.4703C20.6537 13.4672 20.459 13.4215 20.1845 13.2273C19.8783 12.816 19.9035 12.4886 19.9096 11.9881C19.9089 11.8928 19.9082 11.7974 19.9076 11.6992C19.906 11.3844 19.9078 11.0697 19.9098 10.7549C19.9097 10.536 19.9095 10.3171 19.9091 10.0982C19.9088 9.63949 19.9102 9.18085 19.9128 8.72218C19.916 8.13422 19.9154 7.54633 19.9137 6.95836C19.9127 6.50636 19.9135 6.05438 19.9149 5.60239C19.9154 5.38559 19.9154 5.1688 19.9148 4.95201C19.9143 4.64901 19.9162 4.34613 19.9187 4.04315C19.9181 3.95353 19.9175 3.8639 19.9169 3.77156C19.9226 3.37526 19.9341 3.15147 20.1418 2.8059C20.4669 2.51465 20.7547 2.51411 21.1758 2.50781ZM20.8125 3.46875C20.8125 6.46969 20.8125 9.47062 20.8125 12.5625C21.06 12.5625 21.3075 12.5625 21.5625 12.5625C21.5625 9.56156 21.5625 6.56063 21.5625 3.46875C21.315 3.46875 21.0675 3.46875 20.8125 3.46875Z" fill="#FFC727"/>
<path d="M5.62499 5.90625C5.62499 6.92718 5.62499 7.94812 5.62499 9C6.63893 8.99628 6.63893 8.99628 7.65286 8.99155C7.77952 8.99128 7.90617 8.99104 8.03283 8.99084C8.09915 8.99036 8.16547 8.98988 8.2338 8.98939C8.39548 8.98936 8.55716 8.99416 8.71874 9C8.88111 9.16237 8.84017 9.37009 8.84765 9.59179C8.83451 10.5987 8.42244 11.3607 7.7307 12.0754C6.86627 12.8466 6.03505 13.0757 4.89806 13.0547C3.85575 12.9744 3.04464 12.4901 2.32763 11.7491C1.60102 10.8254 1.50198 9.75421 1.59374 8.625C1.77503 7.67466 2.35399 6.88557 3.14061 6.33398C3.95437 5.83986 4.69601 5.59659 5.62499 5.90625ZM3.16478 7.49377C2.67111 8.07412 2.40358 8.7766 2.41771 9.53686C2.48614 10.2743 2.75234 10.9153 3.28124 11.4375C3.92148 11.9594 4.61437 12.1744 5.43749 12.1875C6.29808 12.0608 6.89661 11.6322 7.44872 10.9775C7.70929 10.6248 7.87499 10.2903 7.87499 9.84375C7.78744 9.8414 7.69989 9.83905 7.60969 9.83663C7.28593 9.82773 6.96219 9.81842 6.63845 9.80884C6.49814 9.80477 6.35782 9.80087 6.2175 9.79712C6.01619 9.79173 5.81492 9.78575 5.61364 9.77966C5.49237 9.77622 5.37111 9.77279 5.24617 9.76925C4.96874 9.75 4.96874 9.75 4.87499 9.65625C4.86002 9.43374 4.85069 9.21364 4.84533 8.99084C4.84338 8.92439 4.84143 8.85793 4.83942 8.78946C4.83328 8.57645 4.82776 8.36342 4.82225 8.15039C4.81821 8.00628 4.81412 7.86218 4.80999 7.71807C4.79993 7.36414 4.79044 7.0102 4.78124 6.65625C4.20022 6.65625 3.56791 7.11594 3.16478 7.49377Z" fill="#FFC727"/>
<path d="M18.9375 5.90625C19.2511 6.22857 19.2551 6.48721 19.2581 6.9274C19.2589 6.99163 19.2597 7.05585 19.2605 7.12202C19.2627 7.33385 19.2628 7.54561 19.2627 7.75744C19.2634 7.90502 19.2641 8.0526 19.2649 8.20017C19.2661 8.50934 19.2663 8.81848 19.2657 9.12765C19.2652 9.52342 19.268 9.91908 19.2718 10.3148C19.2742 10.6196 19.2745 10.9243 19.2742 11.229C19.2743 11.3749 19.2752 11.5208 19.2769 11.6667C19.279 11.8709 19.2781 12.075 19.2764 12.2792C19.2766 12.3953 19.2768 12.5114 19.277 12.631C19.2023 13.0243 19.0623 13.163 18.75 13.4062C18.4768 13.4538 18.2709 13.4723 18 13.4648C17.9345 13.4667 17.869 13.4685 17.8015 13.4703C17.4537 13.4671 17.2727 13.4239 16.997 13.209C16.7302 12.8732 16.7224 12.7057 16.7221 12.2807C16.7214 12.2165 16.7207 12.1522 16.7201 12.086C16.7185 11.8747 16.7203 11.6635 16.7223 11.4521C16.7222 11.3047 16.722 11.1573 16.7216 11.0098C16.7213 10.7012 16.7227 10.3926 16.7253 10.084C16.7285 9.689 16.7279 9.29409 16.7262 8.89906C16.7252 8.59472 16.726 8.2904 16.7274 7.98606C16.7279 7.84044 16.7279 7.69481 16.7273 7.54919C16.7268 7.34542 16.7287 7.1418 16.7312 6.93805C16.7318 6.82225 16.7324 6.70646 16.733 6.58716C16.79 6.22608 16.9017 6.06997 17.1563 5.8125C17.6664 5.60209 18.4666 5.62086 18.9375 5.90625ZM17.625 6.65625C17.625 8.60531 17.625 10.5544 17.625 12.5625C17.8725 12.5625 18.12 12.5625 18.375 12.5625C18.375 10.6134 18.375 8.66437 18.375 6.65625C18.1275 6.65625 17.88 6.65625 17.625 6.65625Z" fill="#FFC727"/>
<path d="M7.68749 4.21875C8.78893 4.54345 9.55842 5.14641 10.1107 6.15308C10.4093 6.76654 10.4825 7.38629 10.4062 8.0625C10.1595 8.30924 9.98074 8.27332 9.64486 8.27606C9.56644 8.27568 9.48802 8.2753 9.40722 8.27491C9.32677 8.27509 9.24633 8.27526 9.16345 8.27545C8.99322 8.27558 8.823 8.27523 8.65278 8.27445C8.39166 8.27345 8.13061 8.27444 7.8695 8.27564C7.70434 8.27551 7.53918 8.27527 7.37402 8.27491C7.2956 8.27529 7.21718 8.27567 7.13638 8.27606C6.58405 8.27156 6.58405 8.27156 6.37499 8.0625C6.35509 7.78224 6.3465 7.51088 6.34679 7.23047C6.34639 7.14795 6.34599 7.06542 6.34558 6.9804C6.34504 6.80576 6.34499 6.63112 6.3454 6.45649C6.34569 6.18857 6.34349 5.92074 6.34112 5.65284C6.3409 5.4834 6.34084 5.31397 6.34093 5.14453C6.34007 5.06406 6.33921 4.98359 6.33832 4.90068C6.34009 4.67505 6.34009 4.67505 6.37499 4.3125C6.80853 4.02348 7.18991 4.12362 7.68749 4.21875ZM7.21874 5.0625C7.21874 5.805 7.21874 6.5475 7.21874 7.3125C7.96124 7.3125 8.70374 7.3125 9.46874 7.3125C9.34772 6.58637 9.06422 6.1637 8.55468 5.64258C8.20159 5.40492 7.66269 5.0625 7.21874 5.0625Z" fill="#FFC727"/>
<path d="M14.8125 9.31641C14.878 9.31459 14.9435 9.31278 15.011 9.31091C15.3566 9.31417 15.5399 9.35765 15.8153 9.56914C16.0764 9.90121 16.0996 10.1438 16.0935 10.5498C16.094 10.6167 16.0944 10.6836 16.0949 10.7525C16.0952 10.8934 16.0943 11.0343 16.0924 11.1752C16.0899 11.3901 16.0923 11.6045 16.0953 11.8195C16.095 11.9568 16.0944 12.0941 16.0935 12.2314C16.0945 12.2952 16.0954 12.359 16.0964 12.4247C16.0877 12.7782 16.0363 12.9311 15.8153 13.2121C15.4856 13.4653 15.2123 13.4759 14.8125 13.4648C14.747 13.4667 14.6815 13.4685 14.614 13.4703C14.2684 13.4671 14.0851 13.4236 13.8097 13.2121C13.5486 12.88 13.5255 12.6375 13.5315 12.2314C13.5311 12.1646 13.5306 12.0977 13.5301 12.0287C13.5298 11.8879 13.5307 11.747 13.5326 11.6061C13.5352 11.3912 13.5327 11.1767 13.5297 10.9618C13.53 10.8245 13.5306 10.6871 13.5315 10.5498C13.5306 10.486 13.5296 10.4222 13.5286 10.3565C13.5373 10.003 13.5887 9.85014 13.8097 9.56914C14.1394 9.31594 14.4127 9.30534 14.8125 9.31641ZM14.4375 10.2188C14.4375 10.9922 14.4375 11.7656 14.4375 12.5625C14.685 12.5625 14.9325 12.5625 15.1875 12.5625C15.1875 11.7891 15.1875 11.0156 15.1875 10.2188C14.94 10.2188 14.6925 10.2188 14.4375 10.2188Z" fill="#FFC727"/>
<path d="M12.4277 10.248C12.6563 10.4062 12.6563 10.4062 12.8438 10.6875C12.8847 11.0416 12.8741 11.3977 12.8731 11.7539C12.8746 11.8516 12.8761 11.9492 12.8776 12.0498C12.8782 12.9515 12.8782 12.9515 12.5625 13.3125C12.2572 13.4652 11.925 13.4314 11.5899 13.4355C11.5178 13.4383 11.4458 13.441 11.3716 13.4438C11.0219 13.4477 10.8398 13.4481 10.5491 13.2404C10.2515 12.8047 10.2953 12.3273 10.2949 11.8184C10.2938 11.7435 10.2926 11.6686 10.2914 11.5915C10.2902 11.109 10.3165 10.7233 10.6348 10.3359C11.1062 9.9588 11.8994 10.0534 12.4277 10.248ZM11.25 11.0625C11.25 11.5575 11.25 12.0525 11.25 12.5625C11.4975 12.5625 11.745 12.5625 12 12.5625C12 12.0675 12 11.5725 12 11.0625C11.7525 11.0625 11.505 11.0625 11.25 11.0625Z" fill="#FFC727"/>
<path d="M12.4688 15.375C12.9226 15.5935 13.1909 15.857 13.4063 16.3125C13.4795 16.8142 13.4697 17.2122 13.2481 17.6719C12.8774 18.0725 12.5576 18.2371 12.0048 18.2871C11.5396 18.2729 11.2239 18.0603 10.8867 17.7598C10.5468 17.3699 10.5618 17.0759 10.5678 16.5714C10.6169 16.0819 10.8637 15.845 11.2149 15.5273C11.644 15.3207 12.0005 15.3003 12.4688 15.375ZM11.4375 16.5938C11.4625 16.8689 11.4625 16.8689 11.5313 17.1563C11.7962 17.3738 11.7962 17.3738 12.0996 17.3262C12.4029 17.2746 12.4029 17.2746 12.5625 16.9688C12.5473 16.6636 12.5123 16.5407 12.2871 16.3301C11.8967 16.1053 11.7504 16.3303 11.4375 16.5938Z" fill="#FFC727"/>
<path d="M5.22868 2.11095C5.43751 2.15625 5.43751 2.15625 5.62501 2.34375C5.61765 2.90546 5.41999 3.19503 5.03248 3.57349C4.95698 3.64979 4.95698 3.64979 4.87996 3.72764C4.77362 3.83436 4.66658 3.94037 4.55888 4.04572C4.39499 4.20659 4.23432 4.37025 4.07374 4.53442C3.96967 4.63812 3.86543 4.74164 3.761 4.84497C3.71341 4.89369 3.66583 4.94242 3.6168 4.99262C3.2713 5.32497 3.00611 5.41199 2.53126 5.4375C2.34376 5.15625 2.34376 5.15625 2.34477 4.94176C2.47605 4.58185 2.71708 4.35251 2.9839 4.08801C3.03884 4.03249 3.09378 3.97697 3.15038 3.91977C3.26655 3.80293 3.3832 3.68658 3.5003 3.57067C3.67926 3.39302 3.85585 3.21322 4.03236 3.03314C4.14563 2.91979 4.25903 2.80656 4.37257 2.69348C4.42522 2.63958 4.47788 2.58569 4.53213 2.53016C4.75894 2.30864 4.91146 2.16624 5.22868 2.11095Z" fill="#FFC727"/>
<path d="M2.85938 2.16797C3.09375 2.25 3.09375 2.25 3.2168 2.49023C3.2487 2.60335 3.2487 2.60335 3.28125 2.71875C3.11979 2.9056 2.95764 3.09174 2.79419 3.27685C2.66999 3.41772 2.54741 3.56003 2.42578 3.70312C2.25 3.84375 2.25 3.84375 2.00391 3.8789C1.78125 3.84375 1.78125 3.84375 1.59375 3.65625C1.5564 3.39148 1.5564 3.39148 1.59375 3.09375C1.77173 2.85754 1.77173 2.85754 2.00391 2.64258C2.08004 2.57043 2.15618 2.49828 2.23462 2.42395C2.55115 2.15255 2.55115 2.15255 2.85938 2.16797Z" fill="#FFC727"/>
<path d="M10.459 20.543C10.6875 20.625 10.6875 20.625 10.875 20.9063C10.8414 21.1838 10.7956 21.2669 10.5938 21.4688C10.3008 21.4336 10.3008 21.4336 10.0313 21.375C9.90672 20.8655 9.90672 20.8655 10.043 20.6309C10.2188 20.5313 10.2188 20.5313 10.459 20.543Z" fill="#FFC727"/>
<path d="M13.4063 20.5312C13.6847 20.5777 13.6847 20.5777 13.9688 20.625C14.0933 21.1345 14.0933 21.1345 13.957 21.3691C13.7813 21.4688 13.7813 21.4688 13.541 21.4688C13.3125 21.375 13.3125 21.375 13.1719 21.1582C13.125 20.9062 13.125 20.9062 13.2539 20.6895C13.3293 20.6111 13.3293 20.6111 13.4063 20.5312Z" fill="#FFC727"/>
<path d="M11.8125 20.5312C12.1216 20.5622 12.2459 20.5896 12.4688 20.8125C12.4378 21.1216 12.4104 21.2459 12.1875 21.4688C11.8784 21.4378 11.7541 21.4104 11.5312 21.1875C11.5622 20.8784 11.5896 20.7541 11.8125 20.5312Z" fill="#FFC727"/>
</g>
<defs>
<clipPath id="clip0_454_6179">
<rect width="24" height="24" fill="white"/>
</clipPath>
</defs>
</svg>
