<svg width="23" height="23" viewBox="0 0 23 23" fill="none" xmlns="http://www.w3.org/2000/svg">
<g id="eos-icons:big-data-outlined">
<path id="Vector" d="M18.7435 6.02238C18.5472 5.97662 18.3482 5.94386 18.1476 5.9243C17.8719 4.5275 17.1688 3.25094 16.1358 2.27123C15.1027 1.29152 13.7907 0.657098 12.3812 0.455749C10.9718 0.2544 9.53462 0.496076 8.26855 1.14734C7.00248 1.7986 5.97012 2.82725 5.3143 4.09096C4.89166 4.14204 4.47638 4.24202 4.0768 4.38888C3.0052 4.76502 2.07688 5.46471 1.42014 6.39126C0.763392 7.31781 0.410645 8.42547 0.410645 9.56117C0.410645 10.6969 0.763392 11.8045 1.42014 12.7311C2.07688 13.6576 3.0052 14.3573 4.0768 14.7335V12.7131C3.51964 12.3941 3.05663 11.9336 2.73462 11.3782C2.4126 10.8228 2.24302 10.1922 2.24302 9.55017C2.24302 8.90816 2.4126 8.27754 2.73462 7.72212C3.05663 7.1667 3.51964 6.7062 4.0768 6.38721C4.51454 6.13011 5.00202 5.96917 5.5068 5.91513L6.48764 5.8143L6.94597 4.94346C7.4249 4.01565 8.18071 3.25988 9.10855 2.781C10.0364 2.30212 11.0903 2.12386 12.124 2.27096C13.1577 2.41806 14.12 2.88322 14.8775 3.60192C15.6349 4.32061 16.1499 5.25721 16.351 6.2818L16.626 7.6568L18.0285 7.75763C18.2727 7.77779 18.5132 7.8305 18.7435 7.91438C19.2784 8.09831 19.7426 8.44469 20.0712 8.90515C20.3998 9.36562 20.5764 9.91719 20.5764 10.4829C20.5764 11.0486 20.3998 11.6001 20.0712 12.0606C19.7426 12.5211 19.2784 12.8674 18.7435 13.0514V14.9617C19.7772 14.7556 20.7075 14.1975 21.376 13.3826C22.0445 12.5676 22.4098 11.5461 22.4098 10.492C22.4098 9.43798 22.0445 8.4165 21.376 7.60154C20.7075 6.78657 19.7772 6.22851 18.7435 6.02238Z" fill="#F2F2F2" fill-opacity="0.8"/>
<path id="Vector_2" d="M11.4102 10.4707C7.91032 10.4707 5.91016 11.1655 5.91016 12.4571V20.401C5.91016 21.6925 8.73991 22.3874 11.4102 22.3874C14.0804 22.3874 16.9102 21.6925 16.9102 20.401V12.4571C16.9102 11.1655 14.91 10.4707 11.4102 10.4707ZM11.4102 11.3874C13.8952 11.3874 15.911 12.1299 15.911 12.953C15.911 13.7762 13.8943 14.4426 11.4102 14.4426C8.92599 14.4426 6.90932 13.7762 6.90932 12.953C6.90932 12.1299 8.92599 11.3874 11.4102 11.3874ZM6.90932 18.651V17.6033C8.33613 18.1864 9.86955 18.4631 11.4102 18.4155C12.9508 18.4631 14.4842 18.1864 15.911 17.6033V18.684C14.4737 19.222 12.9436 19.4682 11.4102 19.4082C9.87478 19.4529 8.34558 19.1956 6.90932 18.651Z" fill="#F2F2F2" fill-opacity="0.8"/>
</g>
</svg>
