<svg width="26" height="26" viewBox="0 0 26 26" fill="none" xmlns="http://www.w3.org/2000/svg">
<path d="M0.5 13C0.5 11.067 2.067 9.5 4 9.5H7.5V16.5H4C2.067 16.5 0.5 14.933 0.5 13Z" fill="#FFC727"/>
<path d="M0.5 13C0.5 11.067 2.067 9.5 4 9.5H7.5V16.5H4C2.067 16.5 0.5 14.933 0.5 13Z" stroke="#FFC727"/>
<rect x="9.5" y="9.5" width="7" height="7" fill="#FFC727"/>
<rect x="9.5" y="9.5" width="7" height="7" stroke="#FFC727"/>
<path d="M18.5 9.5H22C23.933 9.5 25.5 11.067 25.5 13C25.5 14.933 23.933 16.5 22 16.5H18.5V9.5Z" fill="#FFC727"/>
<path d="M18.5 9.5H22C23.933 9.5 25.5 11.067 25.5 13C25.5 14.933 23.933 16.5 22 16.5H18.5V9.5Z" stroke="#FFC727"/>
</svg>
