<svg width="23" height="23" viewBox="0 0 23 23" fill="none" xmlns="http://www.w3.org/2000/svg">
<g id="Group">
<path id="Vector" d="M10.4102 3.3877V9.3877C10.4102 10.4927 8.39516 11.3877 5.91016 11.3877C3.42516 11.3877 1.41016 10.4927 1.41016 9.3877V3.3877" stroke="#F2F2F2" stroke-opacity="0.8" stroke-width="2" stroke-linecap="round" stroke-linejoin="round"/>
<path id="Vector_2" d="M10.4102 6.3877C10.4102 7.4927 8.39516 8.3877 5.91016 8.3877C3.42516 8.3877 1.41016 7.4927 1.41016 6.3877M15.4102 2.3877H18.4102C18.9406 2.3877 19.4493 2.59841 19.8244 2.97348C20.1994 3.34855 20.4102 3.85726 20.4102 4.3877V7.3877M7.41016 20.3877H4.41016C3.87972 20.3877 3.37102 20.177 2.99594 19.8019C2.62087 19.4268 2.41016 18.9181 2.41016 18.3877V15.3877M10.4102 3.3877C10.4102 4.4927 8.39516 5.3877 5.91016 5.3877C3.42516 5.3877 1.41016 4.4927 1.41016 3.3877C1.41016 2.2827 3.42516 1.3877 5.91016 1.3877C8.39516 1.3877 10.4102 2.2827 10.4102 3.3877Z" stroke="#F2F2F2" stroke-opacity="0.8" stroke-linecap="round" stroke-linejoin="round"/>
<path id="Vector_3" d="M16.9102 16.3877C18.2909 16.3877 19.4102 15.2684 19.4102 13.8877C19.4102 12.507 18.2909 11.3877 16.9102 11.3877C15.5294 11.3877 14.4102 12.507 14.4102 13.8877C14.4102 15.2684 15.5294 16.3877 16.9102 16.3877Z" stroke="#F2F2F2" stroke-opacity="0.8" stroke-width="2" stroke-linecap="round" stroke-linejoin="round"/>
<path id="Vector_4" d="M21.4102 21.3877H12.4102C12.4102 20.7967 12.5266 20.2116 12.7527 19.6656C12.9788 19.1197 13.3103 18.6236 13.7282 18.2057C14.146 17.7879 14.6421 17.4564 15.1881 17.2302C15.734 17.0041 16.3192 16.8877 16.9102 16.8877C17.5011 16.8877 18.0863 17.0041 18.6322 17.2302C19.1782 17.4564 19.6743 17.7879 20.0921 18.2057C20.51 18.6236 20.8415 19.1197 21.0676 19.6656C21.2938 20.2116 21.4102 20.7967 21.4102 21.3877Z" stroke="#F2F2F2" stroke-opacity="0.8" stroke-width="2" stroke-linecap="round" stroke-linejoin="round"/>
</g>
</svg>
