<svg width="16" height="17" viewBox="0 0 16 17" fill="none" xmlns="http://www.w3.org/2000/svg">
<path d="M6 7.02148C6.55228 7.02148 7 6.57377 7 6.02148C7 5.4692 6.55228 5.02148 6 5.02148C5.44772 5.02148 5 5.4692 5 6.02148C5 6.57377 5.44772 7.02148 6 7.02148Z" fill="#F2F2F2" fill-opacity="0.6"/>
<path d="M10 7.02148C10.5523 7.02148 11 6.57377 11 6.02148C11 5.4692 10.5523 5.02148 10 5.02148C9.44772 5.02148 9 5.4692 9 6.02148C9 6.57377 9.44772 7.02148 10 7.02148Z" fill="#F2F2F2" fill-opacity="0.6"/>
<path d="M8 15.0215C4.14 15.0215 1 11.8815 1 8.02148C1 4.16148 4.14 1.02148 8 1.02148C11.86 1.02148 15 4.16148 15 8.02148C15 11.8815 11.86 15.0215 8 15.0215ZM8 2.02148C4.69 2.02148 2 4.71148 2 8.02148C2 11.3315 4.69 14.0215 8 14.0215C11.31 14.0215 14 11.3315 14 8.02148C14 4.71148 11.31 2.02148 8 2.02148Z" fill="#F2F2F2" fill-opacity="0.6"/>
<path d="M8.00012 11.522C6.52012 11.522 5.19012 10.582 4.70012 9.19196C4.66532 9.06995 4.67811 8.93929 4.7359 8.82634C4.7937 8.71339 4.89219 8.62658 5.0115 8.58342C5.13081 8.54027 5.26205 8.54399 5.37872 8.59383C5.4954 8.64367 5.58882 8.73592 5.64012 8.85196C5.81213 9.34052 6.13154 9.76366 6.55425 10.063C6.97697 10.3623 7.48216 10.5231 8.00012 10.5231C8.51808 10.5231 9.02327 10.3623 9.44599 10.063C9.86871 9.76366 10.1881 9.34052 10.3601 8.85196C10.4501 8.59196 10.7401 8.45196 11.0001 8.55196C11.2601 8.64196 11.4001 8.93196 11.3001 9.19196C11.0596 9.87457 10.6127 10.4655 10.0215 10.883C9.43027 11.3004 8.72387 11.5237 8.00012 11.522Z" fill="#F2F2F2" fill-opacity="0.6"/>
</svg>
