<svg width="25" height="25" viewBox="0 0 25 25" fill="none" xmlns="http://www.w3.org/2000/svg">
<g id="ci:timer">
<path id="Vector" d="M12.3289 12.7846V9.41616M19.9078 6.88984L18.2236 5.20563M10.6447 3.52142H14.0131M12.3289 19.5214C10.5422 19.5214 8.82862 18.8117 7.56522 17.5482C6.30181 16.2848 5.59204 14.5713 5.59204 12.7846C5.59204 10.9979 6.30181 9.28432 7.56522 8.02091C8.82862 6.75751 10.5422 6.04774 12.3289 6.04774C14.1156 6.04774 15.8291 6.75751 17.0926 8.02091C18.356 9.28432 19.0657 10.9979 19.0657 12.7846C19.0657 14.5713 18.356 16.2848 17.0926 17.5482C15.8291 18.8117 14.1156 19.5214 12.3289 19.5214Z" stroke="#AFAFAF" stroke-width="1.26316" stroke-linecap="round" stroke-linejoin="round"/>
</g>
</svg>
