<svg width="25" height="25" viewBox="0 0 25 25" fill="none" xmlns="http://www.w3.org/2000/svg">
<g id="mdi:run-fast">
<path id="Vector" d="M17.4287 6.31152C17.9591 6.31152 18.4679 6.10081 18.8429 5.72574C19.218 5.35066 19.4287 4.84196 19.4287 4.31152C19.4287 3.78109 19.218 3.27238 18.8429 2.89731C18.4679 2.52224 17.9591 2.31152 17.4287 2.31152C16.8983 2.31152 16.3896 2.52224 16.0145 2.89731C15.6394 3.27238 15.4287 3.78109 15.4287 4.31152C15.4287 4.84196 15.6394 5.35066 16.0145 5.72574C16.3896 6.10081 16.8983 6.31152 17.4287 6.31152ZM13.8287 20.2115L14.8287 15.8115L16.9287 17.8115V23.8115H18.9287V16.3115L16.8287 14.3115L17.4287 11.3115C18.1139 12.0967 18.9593 12.726 19.9079 13.1572C20.8566 13.5884 21.8866 13.8115 22.9287 13.8115V11.8115C21.1687 11.8415 19.5287 10.9215 18.6287 9.41152L17.6287 7.81152C17.2687 7.21152 16.6287 6.81152 15.9287 6.81152C15.6287 6.81152 15.4287 6.91152 15.1287 6.91152L9.92871 9.11152V13.8115H11.9287V10.4115L13.7287 9.71152L12.1287 17.8115L7.22871 16.8115L6.82871 18.8115L13.8287 20.2115ZM4.92871 9.81152C4.66349 9.81152 4.40914 9.70617 4.2216 9.51863C4.03407 9.33109 3.92871 9.07674 3.92871 8.81152C3.92871 8.54631 4.03407 8.29195 4.2216 8.10442C4.40914 7.91688 4.66349 7.81152 4.92871 7.81152H7.92871V9.81152H4.92871ZM5.92871 5.81152C5.66349 5.81152 5.40914 5.70617 5.2216 5.51863C5.03407 5.33109 4.92871 5.07674 4.92871 4.81152C4.92871 4.54631 5.03407 4.29195 5.2216 4.10442C5.40914 3.91688 5.66349 3.81152 5.92871 3.81152H10.9287V5.81152H5.92871ZM3.92871 13.8115C3.66349 13.8115 3.40914 13.7062 3.2216 13.5186C3.03407 13.3311 2.92871 13.0767 2.92871 12.8115C2.92871 12.5463 3.03407 12.292 3.2216 12.1044C3.40914 11.9169 3.66349 11.8115 3.92871 11.8115H7.92871V13.8115H3.92871Z" fill="#FFC727" fill-opacity="0.8"/>
</g>
</svg>
