<svg width="25" height="25" viewBox="0 0 25 25" fill="none" xmlns="http://www.w3.org/2000/svg">
<g id="fluent:target-arrow-20-filled">
<path id="Vector" d="M20.5327 10.3295C21.0892 12.0391 21.0535 13.8864 20.4316 15.5733C19.8096 17.2602 18.6375 18.6884 17.1043 19.6275C15.5712 20.5666 13.7664 20.962 11.9811 20.7497C10.1957 20.5374 8.53392 19.73 7.26372 18.4575C5.99353 17.1851 5.18898 15.5219 4.97985 13.7362C4.77073 11.9505 5.16922 10.1464 6.11105 8.61489C7.05288 7.0834 8.48313 5.91382 10.1711 5.2948C11.8591 4.67577 13.7064 4.64339 15.415 5.20288L14.3679 6.25001C14.3106 6.30735 14.2579 6.36902 14.2099 6.43503C12.8418 6.1589 11.4212 6.33039 10.1581 6.92414C8.89504 7.51789 7.85659 8.50238 7.19634 9.732C6.53609 10.9616 6.2891 12.3711 6.4919 13.7519C6.6947 15.1328 7.33652 16.4117 8.32244 17.3996C9.30836 18.3874 10.586 19.0318 11.9665 19.2373C13.3469 19.4428 14.7569 19.1986 15.9878 18.5407C17.2187 17.8829 18.2052 16.8464 18.8015 15.5845C19.3977 14.3226 19.572 12.9023 19.2985 11.5337C19.367 11.4851 19.4312 11.4309 19.4906 11.3716L20.5327 10.3295ZM17.8273 11.8107C17.894 12.1347 17.9274 12.4681 17.9274 12.8108C17.9271 13.8428 17.6075 14.8494 17.0125 15.6926C16.4175 16.5358 15.5762 17.1742 14.604 17.5203C13.6318 17.8665 12.5763 17.9034 11.5824 17.6259C10.5884 17.3485 9.70458 16.7703 9.05218 15.9707C8.39978 15.1711 8.01074 14.1893 7.93841 13.1598C7.86609 12.1304 8.11403 11.1038 8.64823 10.2209C9.18242 9.3379 9.97671 8.64184 10.9221 8.22815C11.8676 7.81446 12.9178 7.70341 13.9289 7.91021V9.45641C13.1824 9.23358 12.383 9.2661 11.6571 9.54882C10.9313 9.83155 10.3204 10.3483 9.92136 11.0173C9.52229 11.6863 9.35777 12.4693 9.45386 13.2424C9.54995 14.0154 9.90115 14.7343 10.4519 15.2852C11.0026 15.8362 11.7213 16.1877 12.4943 16.2841C13.2673 16.3805 14.0504 16.2163 14.7195 15.8175C15.3887 15.4188 15.9057 14.8081 16.1888 14.0824C16.4718 13.3567 16.5047 12.5572 16.2822 11.8107H17.8273ZM12.9267 14.311C13.1568 14.3111 13.3838 14.2583 13.5902 14.1567C13.7966 14.0551 13.9769 13.9073 14.1171 13.7249C14.2573 13.5425 14.3536 13.3302 14.3987 13.1046C14.4437 12.879 14.4363 12.6461 14.3769 12.4238L15.9591 10.8406L15.9891 10.8106H18.4294C18.4951 10.8107 18.5602 10.7979 18.621 10.7728C18.6817 10.7477 18.7369 10.711 18.7835 10.6646L20.7837 8.66431C20.8538 8.59437 20.9016 8.50519 20.921 8.40807C20.9403 8.31095 20.9304 8.21026 20.8925 8.11878C20.8546 8.02729 20.7904 7.94913 20.708 7.89419C20.6256 7.83926 20.5287 7.81003 20.4297 7.8102H17.9294V5.30989C17.9293 5.21106 17.9 5.11446 17.8451 5.03227C17.7903 4.95009 17.7123 4.88601 17.621 4.84813C17.5297 4.81025 17.4292 4.80026 17.3323 4.81944C17.2353 4.83861 17.1462 4.88608 17.0763 4.95585L15.076 6.9561C15.0294 7.00254 14.9925 7.05772 14.9672 7.11847C14.942 7.17922 14.929 7.24436 14.929 7.31014V9.75044L14.899 9.78045L13.3168 11.3616C13.0943 11.3017 12.861 11.2939 12.635 11.3387C12.409 11.3835 12.1964 11.4797 12.0136 11.62C11.8308 11.7602 11.6827 11.9407 11.5809 12.1474C11.4791 12.3541 11.4263 12.5814 11.4266 12.8118C11.4266 13.2097 11.5846 13.5913 11.8659 13.8726C12.1473 14.154 12.5289 14.312 12.9267 14.312" fill="#FFC727" fill-opacity="0.8"/>
</g>
</svg>
