<svg width="24" height="24" viewBox="0 0 24 24" fill="none" xmlns="http://www.w3.org/2000/svg">
<path d="M19.7 2.5C20.9607 3.49338 21.9247 4.6909 22.5 6.2C22.5621 6.36223 22.5621 6.36223 22.6254 6.52774C23.267 8.51499 23.0203 10.6848 22.1188 12.5375C21.8062 13.1453 21.462 13.693 21 14.2C20.9285 14.2807 20.8569 14.3614 20.7832 14.4445C19.3616 15.9612 17.4944 16.7714 15.4242 16.9285C13.788 16.9678 12.1648 16.5772 10.7902 15.6723C10.5968 15.5755 10.5968 15.5755 10.3863 15.6738C10.169 15.821 10.0449 15.9827 9.90001 16.2C9.93301 16.266 9.96601 16.332 10 16.4C10.0632 16.8586 10.016 17.1254 9.75079 17.4945C9.63971 17.6352 9.52684 17.7745 9.41251 17.9125C9.29233 18.0633 9.17214 18.2141 9.05196 18.3648C8.9921 18.4387 8.93224 18.5125 8.87056 18.5886C8.63545 18.88 8.40822 19.1772 8.18126 19.475C7.93333 19.7971 7.68528 20.1191 7.43712 20.441C7.39364 20.4975 7.35015 20.554 7.30535 20.6122C7.21938 20.7237 7.13321 20.835 7.04681 20.9462C6.87106 21.1731 6.69973 21.4004 6.53907 21.6383C6.07828 22.3191 5.43987 22.7336 4.64376 22.9438C3.8321 23.0821 3.1065 22.9146 2.40001 22.5C1.75339 22.038 1.25467 21.5028 1.10001 20.7C1.00236 19.6716 1.09042 18.8656 1.70001 18C1.93905 17.7229 2.20534 17.5161 2.50001 17.3C2.61469 17.2135 2.72926 17.1269 2.84376 17.0402C3.11369 16.8365 3.38472 16.6344 3.65626 16.4328C4.0431 16.1444 4.42419 15.8492 4.80404 15.5516C5.10347 15.3171 5.40399 15.084 5.70484 14.8512C5.87414 14.72 6.0428 14.588 6.21134 14.4559C6.59342 14.1689 6.81295 14.0111 7.29376 13.95C7.60001 14 7.60001 14 7.90001 14.1C8.06501 13.935 8.23001 13.77 8.40001 13.6C8.27037 13.2586 8.11835 12.9351 7.95374 12.6093C7.00414 10.6913 6.77503 8.56262 7.42725 6.5063C8.19936 4.31695 9.72325 2.65729 11.8125 1.64922C14.4211 0.560148 17.3801 0.873999 19.7 2.5ZM9.80001 4.2C8.4909 5.57789 7.94214 7.34132 7.95824 9.21802C8.02114 11.0761 8.76888 12.7057 10.1 14C10.1674 14.0695 10.2348 14.139 10.3043 14.2106C11.6932 15.5578 13.5079 16.0383 15.4024 16.0215C16.8983 15.9407 18.2285 15.4221 19.4 14.5C19.4761 14.4416 19.5521 14.3832 19.6305 14.3231C20.5863 13.5375 21.2743 12.4554 21.7 11.3C21.7318 11.2149 21.7637 11.1298 21.7965 11.0422C22.3459 9.26988 22.0442 7.33553 21.2938 5.68125C20.9027 4.9395 20.3942 4.38112 19.8 3.8C19.7366 3.73336 19.6732 3.66671 19.6078 3.59805C18.3818 2.39649 16.5665 1.91948 14.8995 1.89771C12.8925 1.9208 11.1908 2.79762 9.80001 4.2ZM9.00001 14.2C8.83501 14.365 8.67001 14.53 8.50001 14.7C8.64911 15.0795 8.87571 15.261 9.20001 15.5C9.36501 15.335 9.53001 15.17 9.70001 15C9.55091 14.6205 9.32431 14.439 9.00001 14.2ZM6.49376 15.3688C6.36676 15.4702 6.23967 15.5715 6.11251 15.6727C6.04535 15.7262 5.97819 15.7797 5.90899 15.8349C5.55715 16.1129 5.20043 16.3845 4.84376 16.6563C4.77243 16.7108 4.70111 16.7654 4.62762 16.8216C4.29321 17.0773 3.95806 17.3318 3.62071 17.5836C3.56207 17.6277 3.50342 17.6719 3.443 17.7174C3.28685 17.8348 3.13017 17.9516 2.97345 18.0684C2.48081 18.4857 2.03601 18.9381 1.96993 19.6023C1.96719 20.3871 2.00715 20.8597 2.53126 21.4688C3.12375 21.9786 3.595 22.0371 4.3586 22.0594C5.20624 21.912 5.6816 21.3396 6.16876 20.675C6.22821 20.5962 6.28766 20.5174 6.34891 20.4363C6.47242 20.2725 6.59541 20.1084 6.71788 19.9439C6.94781 19.636 7.18192 19.3315 7.41627 19.027C7.98364 18.2893 8.54368 17.5461 9.10001 16.8C8.71433 16.3286 8.30282 15.8892 7.87501 15.4563C7.7953 15.3746 7.7953 15.3746 7.71397 15.2913C7.57988 15.1569 7.44033 15.0279 7.30001 14.9C6.96512 14.9 6.74468 15.1654 6.49376 15.3688Z" fill="#FFC727"/>
<path d="M18.943 4.06172C20.2921 5.21229 21.0712 6.70707 21.275 8.4625C21.3885 10.1364 20.8917 11.7285 19.8 13C18.6248 14.3252 17.1737 15.0862 15.3914 15.2238C13.579 15.2647 11.964 14.7063 10.6255 13.4539C9.43526 12.268 8.7832 10.7426 8.76874 9.0625C8.76718 7.35147 9.3464 5.78203 10.543 4.53477C12.8966 2.38501 16.3893 2.02681 18.943 4.06172ZM10.8223 5.59688C9.83891 6.81793 9.55861 8.27485 9.69999 9.8C9.86426 10.6615 10.2127 11.4704 10.7 12.2C10.766 12.233 10.832 12.266 10.9 12.3C10.9025 12.2309 10.905 12.1617 10.9076 12.0905C10.9191 11.779 10.9314 11.4676 10.9437 11.1563C10.9477 11.0474 10.9516 10.9385 10.9557 10.8264C10.9598 10.7229 10.964 10.6195 10.9684 10.5129C10.972 10.4171 10.9757 10.3212 10.9795 10.2225C11 10 11 10 11.1 9.9C11.826 9.867 12.552 9.834 13.3 9.8C13.333 8.216 13.366 6.632 13.4 5C14.456 5 15.512 5 16.6 5C16.6495 6.4355 16.6495 6.4355 16.7 7.9C17.3446 7.92493 17.3446 7.92493 17.9894 7.9478C18.0698 7.95136 18.1503 7.95493 18.2332 7.95859C18.3154 7.96174 18.3976 7.96488 18.4823 7.96812C18.7 8 18.7 8 19 8.2C19.0399 8.3797 19.0399 8.3797 19.0432 8.59907C19.0452 8.68114 19.0472 8.76321 19.0492 8.84777C19.0499 8.93642 19.0505 9.02507 19.0512 9.11641C19.053 9.20713 19.0548 9.29785 19.0566 9.39132C19.062 9.68171 19.0654 9.97208 19.0687 10.2625C19.0721 10.4591 19.0755 10.6557 19.0791 10.8523C19.0876 11.3349 19.0943 11.8174 19.1 12.3C19.4421 11.968 19.6793 11.7018 19.8687 11.2625C19.9083 11.173 19.9479 11.0836 19.9887 10.9914C20.4984 9.65722 20.5066 8.11487 19.9473 6.79375C19.7302 6.36076 19.5079 5.97484 19.2 5.6C19.1326 5.51789 19.0652 5.43577 18.9957 5.35117C18.0999 4.36238 16.8402 3.69696 15.5 3.6C15.3921 3.58975 15.3921 3.58975 15.282 3.5793C13.5079 3.49157 11.9813 4.31303 10.8223 5.59688ZM14.2 5.8C14.1977 6.8935 14.1959 7.98699 14.1948 9.08049C14.1943 9.58819 14.1936 10.0959 14.1924 10.6036C14.1914 11.0931 14.1908 11.5827 14.1905 12.0722C14.1903 12.2594 14.19 12.4466 14.1894 12.6338C14.1887 12.895 14.1886 13.1563 14.1886 13.4176C14.1883 13.4957 14.1879 13.5739 14.1875 13.6545C14.1557 14.0065 14.1557 14.0065 14.3 14.3C14.5332 14.3099 14.7666 14.313 15 14.3125C15.1279 14.3128 15.2557 14.313 15.3875 14.3133C15.6867 14.3359 15.6867 14.3359 15.8 14.2C15.8095 13.9383 15.8125 13.6793 15.8113 13.4176C15.8114 13.3356 15.8114 13.2537 15.8114 13.1692C15.8113 12.8971 15.8105 12.6249 15.8098 12.3527C15.8096 12.1645 15.8094 11.9764 15.8093 11.7882C15.8089 11.2919 15.808 10.7955 15.8069 10.2992C15.8058 9.79316 15.8054 9.28711 15.8049 8.78106C15.8038 7.78737 15.802 6.79369 15.8 5.8C15.272 5.8 14.744 5.8 14.2 5.8ZM16.7 8.9C16.7 10.583 16.7 12.266 16.7 14C17.5336 13.7648 17.5336 13.7648 18.2 13.3C18.2817 12.9651 18.2699 12.6414 18.2586 12.2984C18.2577 12.2013 18.2569 12.1042 18.256 12.0042C18.2527 11.6944 18.2451 11.3848 18.2375 11.075C18.2345 10.8648 18.2317 10.6547 18.2293 10.4445C18.2227 9.92959 18.2123 9.41484 18.2 8.9C17.705 8.9 17.21 8.9 16.7 8.9ZM11.8 10.7C11.8 11.558 11.8 12.416 11.8 13.3C12.0104 13.4155 12.2207 13.531 12.4375 13.65C12.5035 13.6865 12.5696 13.7231 12.6376 13.7607C12.9506 13.9421 12.9506 13.9421 13.3 14C13.3 12.911 13.3 11.822 13.3 10.7C12.805 10.7 12.31 10.7 11.8 10.7Z" fill="#FFC727"/>
<path d="M4.70001 18.4C5.14061 18.6163 5.41988 18.8397 5.60001 19.3C5.66843 19.8043 5.6574 20.1831 5.43126 20.6437C5.12812 20.9797 4.92587 21.1694 4.4668 21.2316C3.89274 21.2583 3.54597 21.1916 3.10001 20.8C2.80216 20.5124 2.73051 20.2202 2.69376 19.809C2.70443 19.4522 2.8237 19.2056 3.00001 18.9C3.54645 18.3935 3.97026 18.3193 4.70001 18.4ZM3.80001 19.3C3.56623 19.5836 3.56623 19.5836 3.62501 19.9125C3.64976 20.0074 3.67451 20.1022 3.70001 20.2C3.97626 20.3381 4.19474 20.3191 4.50001 20.3C4.73157 20.1115 4.73157 20.1115 4.72501 19.8C4.73157 19.4885 4.73157 19.4885 4.50001 19.3C4.15001 19.2583 4.15001 19.2583 3.80001 19.3Z" fill="#FFC727"/>
<path d="M2.50001 17.3C2.56601 17.333 2.63201 17.366 2.70001 17.4C2.57146 17.5339 2.44215 17.6671 2.31251 17.8C2.24058 17.8743 2.16865 17.9485 2.09454 18.025C1.90001 18.2 1.90001 18.2 1.70001 18.2C1.85832 17.7726 2.15058 17.5735 2.50001 17.3Z" fill="#FFC727"/>
<path d="M18 11.6C18.1 12 18.1 12 18.1 12L18 11.6Z" fill="white"/>
<path d="M18 10.9C18.1 11.3 18.1 11.3 18.1 11.3L18 10.9Z" fill="white"/>
<path d="M7.10001 6.9C7.20001 7.3 7.20001 7.3 7.20001 7.3L7.10001 6.9Z" fill="#FFC727"/>
<path d="M1.80001 17.3C1.83301 17.366 1.86601 17.432 1.90001 17.5C1.83401 17.467 1.76801 17.434 1.70001 17.4C1.73301 17.367 1.76601 17.334 1.80001 17.3Z" fill="#FFC727"/>
</svg>
