<svg width="19" height="27" viewBox="0 0 19 27" fill="none" xmlns="http://www.w3.org/2000/svg">
<path fill-rule="evenodd" clip-rule="evenodd" d="M1.69194 11.7955C1.1306 12.3127 0.815304 13.0138 0.815304 13.7447C0.815304 14.4757 1.1306 15.1768 1.69194 15.694L12.9946 26.0986C13.557 26.6158 14.3195 26.9062 15.1146 26.9061C15.9097 26.9059 16.6721 26.6151 17.2342 26.0976C17.7962 25.5802 18.1119 24.8784 18.1117 24.1468C18.1115 23.4152 17.7955 22.7136 17.2332 22.1964L8.04872 13.7447L17.2332 5.29308C17.7795 4.77309 18.082 4.07645 18.0755 3.3532C18.069 2.62996 17.7542 1.93799 17.1986 1.42632C16.6431 0.914653 15.8915 0.624232 15.1055 0.617608C14.3196 0.610985 13.5622 0.888689 12.9966 1.39091L1.68994 11.7936L1.69194 11.7955Z" fill="#A6A6A6"/>
</svg>
