<svg width="25" height="25" viewBox="0 0 25 25" fill="none" xmlns="http://www.w3.org/2000/svg">
<g id="ic:round-menu">
<path id="Vector" d="M4.70312 18.4922H20.7031C21.2531 18.4922 21.7031 18.0422 21.7031 17.4922C21.7031 16.9422 21.2531 16.4922 20.7031 16.4922H4.70312C4.15312 16.4922 3.70312 16.9422 3.70312 17.4922C3.70312 18.0422 4.15312 18.4922 4.70312 18.4922ZM4.70312 13.4922H20.7031C21.2531 13.4922 21.7031 13.0422 21.7031 12.4922C21.7031 11.9422 21.2531 11.4922 20.7031 11.4922H4.70312C4.15312 11.4922 3.70312 11.9422 3.70312 12.4922C3.70312 13.0422 4.15312 13.4922 4.70312 13.4922ZM3.70312 7.49219C3.70312 8.04219 4.15312 8.49219 4.70312 8.49219H20.7031C21.2531 8.49219 21.7031 8.04219 21.7031 7.49219C21.7031 6.94219 21.2531 6.49219 20.7031 6.49219H4.70312C4.15312 6.49219 3.70312 6.94219 3.70312 7.49219Z" fill="#BEBEBE"/>
</g>
</svg>
