<svg width="17" height="17" viewBox="0 0 17 17" fill="none" xmlns="http://www.w3.org/2000/svg">
<g id="fluent-mdl2:party-leader">
<path id="Vector" d="M9.29492 7.7373C9.49284 7.81543 9.68555 7.90137 9.87305 7.99512C10.0605 8.08887 10.2428 8.19564 10.4199 8.31543C10.3053 8.44043 10.2012 8.57064 10.1074 8.70605C10.0137 8.84147 9.92773 8.9873 9.84961 9.14355C9.44857 8.88314 9.02148 8.68522 8.56836 8.5498C8.11523 8.41439 7.64909 8.34668 7.16992 8.34668C6.71159 8.34668 6.26888 8.40658 5.8418 8.52637C5.41471 8.64616 5.01628 8.81283 4.64648 9.02637C4.27669 9.23991 3.94076 9.50033 3.63867 9.80762C3.33659 10.1149 3.07617 10.4535 2.85742 10.8232C2.63867 11.193 2.4694 11.5915 2.34961 12.0186C2.22982 12.4456 2.16992 12.8883 2.16992 13.3467H1.16992C1.16992 12.7217 1.26107 12.1201 1.44336 11.542C1.62565 10.9639 1.88867 10.43 2.23242 9.94043C2.57617 9.45085 2.98242 9.01595 3.45117 8.63574C3.91992 8.25553 4.45117 7.95605 5.04492 7.7373C4.45638 7.35189 3.99805 6.86751 3.66992 6.28418C3.3418 5.70085 3.17513 5.05501 3.16992 4.34668C3.16992 3.7946 3.27409 3.27637 3.48242 2.79199C3.69076 2.30762 3.97461 1.88314 4.33398 1.51855C4.69336 1.15397 5.11784 0.867513 5.60742 0.65918C6.09701 0.450846 6.61784 0.34668 7.16992 0.34668C7.72201 0.34668 8.24023 0.450846 8.72461 0.65918C9.20898 0.867513 9.63346 1.15137 9.99805 1.51074C10.3626 1.87012 10.6491 2.2946 10.8574 2.78418C11.0658 3.27376 11.1699 3.7946 11.1699 4.34668C11.1699 4.69043 11.1283 5.02637 11.0449 5.35449C10.9616 5.68262 10.8366 5.99251 10.6699 6.28418C10.5033 6.57585 10.3079 6.84408 10.084 7.08887C9.86003 7.33366 9.597 7.5498 9.29492 7.7373ZM4.16992 4.34668C4.16992 4.76335 4.24805 5.15137 4.4043 5.51074C4.56055 5.87012 4.77409 6.18783 5.04492 6.46387C5.31576 6.73991 5.63346 6.95605 5.99805 7.1123C6.36263 7.26855 6.75326 7.34668 7.16992 7.34668C7.58138 7.34668 7.9694 7.26855 8.33398 7.1123C8.69857 6.95605 9.01628 6.74251 9.28711 6.47168C9.55794 6.20085 9.77409 5.88314 9.93555 5.51855C10.097 5.15397 10.1751 4.76335 10.1699 4.34668C10.1699 3.93522 10.0918 3.5472 9.93555 3.18262C9.7793 2.81803 9.56575 2.50033 9.29492 2.22949C9.02409 1.95866 8.70378 1.74251 8.33398 1.58105C7.96419 1.4196 7.57617 1.34147 7.16992 1.34668C6.75326 1.34668 6.36523 1.4248 6.00586 1.58105C5.64648 1.7373 5.32878 1.95085 5.05273 2.22168C4.77669 2.49251 4.56055 2.81283 4.4043 3.18262C4.24805 3.55241 4.16992 3.94043 4.16992 4.34668ZM15.6699 10.8467C15.6699 11.1175 15.6283 11.3805 15.5449 11.6357C15.4616 11.891 15.3366 12.1279 15.1699 12.3467V16.3467L13.1699 15.3467L11.1699 16.3467V12.3467C11.0085 12.1279 10.8861 11.891 10.8027 11.6357C10.7194 11.3805 10.6751 11.1175 10.6699 10.8467C10.6699 10.5029 10.735 10.18 10.8652 9.87793C10.9954 9.57585 11.1725 9.31283 11.3965 9.08887C11.6204 8.86491 11.8861 8.68522 12.1934 8.5498C12.5007 8.41439 12.8262 8.34668 13.1699 8.34668C13.5137 8.34668 13.8366 8.41178 14.1387 8.54199C14.4408 8.6722 14.7038 8.85189 14.9277 9.08105C15.1517 9.31022 15.3314 9.57585 15.4668 9.87793C15.6022 10.18 15.6699 10.5029 15.6699 10.8467ZM13.1699 9.34668C12.9616 9.34668 12.7663 9.38574 12.584 9.46387C12.4017 9.54199 12.2428 9.64876 12.1074 9.78418C11.972 9.9196 11.8652 10.0785 11.7871 10.2607C11.709 10.443 11.6699 10.6383 11.6699 10.8467C11.6699 11.055 11.709 11.2503 11.7871 11.4326C11.8652 11.6149 11.972 11.7738 12.1074 11.9092C12.2428 12.0446 12.4017 12.1514 12.584 12.2295C12.7663 12.3076 12.9616 12.3467 13.1699 12.3467C13.3783 12.3467 13.5736 12.3076 13.7559 12.2295C13.9382 12.1514 14.097 12.0446 14.2324 11.9092C14.3678 11.7738 14.4746 11.6149 14.5527 11.4326C14.6309 11.2503 14.6699 11.055 14.6699 10.8467C14.6699 10.6383 14.6309 10.443 14.5527 10.2607C14.4746 10.0785 14.3678 9.9196 14.2324 9.78418C14.097 9.64876 13.9382 9.54199 13.7559 9.46387C13.5736 9.38574 13.3783 9.34668 13.1699 9.34668ZM14.1699 14.7295V13.1357C13.8574 13.2764 13.5241 13.3467 13.1699 13.3467C12.8158 13.3467 12.4824 13.2764 12.1699 13.1357V14.7295C12.3366 14.6462 12.5033 14.5654 12.6699 14.4873C12.8366 14.4092 13.0033 14.3232 13.1699 14.2295C13.3366 14.318 13.5033 14.4014 13.6699 14.4795C13.8366 14.5576 14.0033 14.641 14.1699 14.7295Z" fill="#FFC727"/>
</g>
</svg>
