<svg width="26" height="25" viewBox="0 0 26 25" fill="none" xmlns="http://www.w3.org/2000/svg">
<g id="ic:sharp-share">
<path id="Vector" d="M19.5137 16.7497C18.722 16.7497 18.0137 17.0622 17.472 17.5518L10.0449 13.2288C10.097 12.9893 10.1387 12.7497 10.1387 12.4997C10.1387 12.2497 10.097 12.0101 10.0449 11.7705L17.3887 7.48926C17.9512 8.01009 18.6908 8.33301 19.5137 8.33301C21.2428 8.33301 22.6387 6.93717 22.6387 5.20801C22.6387 3.47884 21.2428 2.08301 19.5137 2.08301C17.7845 2.08301 16.3887 3.47884 16.3887 5.20801C16.3887 5.45801 16.4303 5.69759 16.4824 5.93717L9.13867 10.2184C8.57617 9.69759 7.83659 9.37467 7.01367 9.37467C5.28451 9.37467 3.88867 10.7705 3.88867 12.4997C3.88867 14.2288 5.28451 15.6247 7.01367 15.6247C7.83659 15.6247 8.57617 15.3018 9.13867 14.7809L16.5553 19.1143C16.5033 19.333 16.472 19.5622 16.472 19.7913C16.472 21.4684 17.8366 22.833 19.5137 22.833C21.1908 22.833 22.5553 21.4684 22.5553 19.7913C22.5553 18.1143 21.1908 16.7497 19.5137 16.7497Z" fill="#DC9E42"/>
</g>
</svg>
