<svg width="24" height="24" viewBox="0 0 24 24" fill="none" xmlns="http://www.w3.org/2000/svg">
<path d="M4.222 21.995V18.445C4.222 17.174 3.889 16.513 3.235 15.408C2.43773 14.0581 2.01168 12.5214 2.00009 10.9537C1.9885 9.38603 2.39177 7.84317 3.16899 6.48167C3.94621 5.12016 5.06973 3.98845 6.42555 3.20136C7.78138 2.41427 9.32127 1.9998 10.889 2C13.2461 2.00027 15.5066 2.93659 17.1735 4.60311C18.8404 6.26963 19.7772 8.52992 19.778 10.887C19.778 11.467 19.778 11.757 19.802 11.919C19.86 12.307 20.042 12.641 20.219 12.987L22 16.441L20.6 17.141C20.195 17.343 19.992 17.444 19.851 17.631C19.71 17.818 19.67 18.03 19.591 18.451L19.583 18.493C19.4 19.461 19.199 20.529 18.633 21.203C18.433 21.44 18.185 21.633 17.906 21.77C17.445 21.995 16.878 21.995 15.744 21.995C15.219 21.995 14.693 22.007 14.168 21.995C12.925 21.964 12 20.918 12 19.705" stroke="#FFCD29" stroke-width="1.5" stroke-linecap="round" stroke-linejoin="round"/>
<path d="M14.388 10.532C13.962 10.532 13.573 10.37 13.278 10.105M14.388 10.532C14.388 11.678 13.724 12.766 12.446 12.766C11.168 12.766 10.504 13.854 10.504 15M14.388 10.532C16.538 10.532 16.538 7.181 14.388 7.181C14.192 7.18167 14.0063 7.21333 13.831 7.276C13.936 4.778 10.335 4.1 9.519 6.44M9.519 6.44C10.114 6.841 10.504 7.523 10.504 8.297M9.519 6.44C7.667 5.19 5.199 7.433 6.373 9.433C4.403 9.728 4.613 12.766 6.62 12.766C6.8876 12.7659 7.15121 12.7011 7.38836 12.5771C7.62551 12.4531 7.82918 12.2737 7.982 12.054" stroke="#FFCD29" stroke-width="1.5" stroke-linecap="round" stroke-linejoin="round"/>
</svg>
